<svg xmlns="http://www.w3.org/2000/svg" width="88.399" height="81.638" viewBox="0 0 88.399 81.638">
  <g id="_Group_4" data-name=" Group 4" transform="translate(-433 -445.98)">
    <path id="_Compound_Path_6" data-name=" Compound Path 6" d="M510.579,507.973,524.7,516.1l.064.026.076.03a.769.769,0,0,0,.6,0l.076-.03.064-.026,14.119-8.131a.878.878,0,0,0,.439-.757v-15.5a.868.868,0,0,0-.061-.3l-.03-.072a.877.877,0,0,0-.167-.246.9.9,0,0,0-.182-.14l-14.119-8.131a.879.879,0,0,0-.878,0l-14.119,8.131a.83.83,0,0,0-.348.386l-.03.072a.864.864,0,0,0-.061.3v15.5A.878.878,0,0,0,510.579,507.973ZM538.39,506.7l-12.363,7.12V500.353l12.363-7.12ZM525.141,484.6l12.359,7.116-12.359,7.124-12.359-7.116Zm-13.249,8.634,12.367,7.12v13.472l-12.367-7.12Z" transform="translate(-47.94 -22.826)" fill="#1660a9"/>
    <path id="_Compound_Path_7" data-name=" Compound Path 7" d="M525.311,469H455.857a1.317,1.317,0,0,0-1.317,1.317v41.26a1.317,1.317,0,0,0,1.317,1.317h69.453a1.317,1.317,0,0,0,1.317-1.317h0v-41.26A1.317,1.317,0,0,0,525.311,469Zm-1.317,41.26H457.175V471.65h66.819Z" transform="translate(-13.386 -14.306)" fill="#1660a9"/>
    <path id="_Compound_Path_8" data-name=" Compound Path 8" d="M516.773,445.98H437.622A4.626,4.626,0,0,0,433,450.6v54.255a4.626,4.626,0,0,0,4.622,4.622H464.04v9.713h-8.5A1.537,1.537,0,0,0,454,520.729v5.352a1.537,1.537,0,0,0,1.537,1.537h43.319a1.537,1.537,0,0,0,1.537-1.537v-5.349a1.537,1.537,0,0,0-1.537-1.537h-8.5v-9.713h26.418a4.626,4.626,0,0,0,4.622-4.622V450.606a4.626,4.626,0,0,0-4.626-4.626ZM497.32,522.27v2.271H457.075V522.27ZM467.11,519.2v-9.713h20.176V519.2Zm51.212-14.339a1.552,1.552,0,0,1-1.548,1.548H437.622a1.552,1.552,0,0,1-1.548-1.548V450.606a1.552,1.552,0,0,1,1.548-1.548h79.151a1.552,1.552,0,0,1,1.548,1.548Z" transform="translate(0 0)" fill="#1660a9"/>
    <path id="_Path_6" data-name=" Path 6" d="M608.165,539.229l1.6,3.04,1.382-.731-1.609-3.04,2.116-1.12-6.049-4.648.439,7.62Z" transform="translate(-107.271 -53.912)" fill="#1660a9"/>
  </g>
</svg>
