<svg xmlns="http://www.w3.org/2000/svg" width="179.566" height="466.032" viewBox="0 0 179.566 466.032">
  <g id="Bottle" transform="translate(-1094.519 -4535.968)">
    <path id="Union_1" data-name="Union 1" d="M21.7,466.032c-11.936,0-21.7-9.324-21.7-20.714V260.978l48.283-87.511v-29h82.457v29l48.826,86.993V445.318c0,11.39-9.768,20.714-21.7,20.714ZM32.109,133.593V100.454c0-5.7,5.016-10.355,11.152-10.355h18.4V25.891C61.664,11.39,74.49,0,89.547,0c15.615,0,27.883,11.908,27.883,25.891v63.69h17.846c6.133,0,11.152,4.66,11.152,10.355v33.657Z" transform="translate(1094.517 4535.968)" fill="#fff"/>
    <g id="Group_909" data-name="Group 909" transform="translate(1126.938 4868.503)">
      <g id="Group_907" data-name="Group 907" transform="translate(68.568 0)">
        <ellipse id="Ellipse_1" data-name="Ellipse 1" cx="5.788" cy="5.788" rx="5.788" ry="5.788" transform="translate(0 10.806) rotate(-68.966)" fill="#1660a9"/>
      </g>
      <g id="Group_908" data-name="Group 908" transform="translate(0 18.264)">
        <path id="Path_4181" data-name="Path 4181" d="M582.06,186.325A15.874,15.874,0,1,0,597.935,202.2,15.893,15.893,0,0,0,582.06,186.325Zm0,26.159A10.285,10.285,0,1,1,592.346,202.2,10.3,10.3,0,0,1,582.06,212.484Z" transform="translate(-482.764 -185.503)" fill="#1660a9"/>
        <path id="Path_4182" data-name="Path 4182" d="M334.493,198.407a15.768,15.768,0,0,0-3.136-9.433,3.846,3.846,0,1,0-5.413-4.637,15.869,15.869,0,1,0-7.324,29.943c.519,0,1.032-.029,1.539-.078a10.08,10.08,0,1,1-11.665,9.254,2.795,2.795,0,0,0-5.577-.382,15.7,15.7,0,0,0,14.572,16.714c.366.025.729.038,1.093.038a15.67,15.67,0,0,0,9.108-28.41A15.859,15.859,0,0,0,334.493,198.407Zm-15.874,10.285A10.285,10.285,0,1,1,328.9,198.407,10.3,10.3,0,0,1,318.619,208.692Z" transform="translate(-266.263 -181.711)" fill="#1660a9"/>
        <path id="Path_4183" data-name="Path 4183" d="M512.833,189.7a2.8,2.8,0,0,0-2.795,2.795v25.557a2.795,2.795,0,0,0,5.59,0V192.5A2.8,2.8,0,0,0,512.833,189.7Z" transform="translate(-436.622 -188.28)" fill="#1660a9"/>
        <path id="Path_4184" data-name="Path 4184" d="M113.872,186.325a15.874,15.874,0,1,0,10.286,27.943v1.01a2.795,2.795,0,1,0,5.589,0V202.26s0-.008,0-.012,0-.032,0-.049A15.893,15.893,0,0,0,113.872,186.325Zm0,26.159A10.285,10.285,0,1,1,124.158,202.2,10.3,10.3,0,0,1,113.872,212.484Z" transform="translate(-97.998 -185.503)" fill="#1660a9"/>
      </g>
    </g>
  </g>
</svg>
