<svg version="1.2" baseProfile="tiny-ps" xmlns="http://www.w3.org/2000/svg" viewBox="0 0 115 366" width="115" height="366">
	<title>Home Agio '21</title>
	<style>
		tspan { white-space:pre }
		.shp0 { fill: #ffffff } 
	</style>
	<g id="Home Agio '21">
		<g id="Residencial/Comercial/Corporativo">
			<g id="Group 897">
				<g id="Group 893">
					<g id="Group 892">
						<g id="Group 837">
							<path id="Path 3968" class="shp0" d="M63.39 240.01C62.73 241.7 62.02 243.33 61.21 244.91C61.15 245.03 61.41 244.99 61.45 244.91C62.27 243.32 62.98 241.66 63.65 239.96C63.68 239.87 63.43 239.9 63.39 240.01L63.39 240.01Z" />
							<path id="Path 3969" class="shp0" d="M65.58 240.01C63.96 242.84 62.77 245.92 61.75 249.16C61.72 249.23 61.98 249.2 62.01 249.1C63.03 245.86 64.22 242.78 65.83 239.95C65.86 239.92 65.62 239.93 65.58 240.01L65.58 240.01Z" />
							<path id="Path 3970" class="shp0" d="M67.77 242.1C66.11 244.99 64.65 248.07 63.39 251.28C63.36 251.34 63.61 251.31 63.65 251.22C64.91 248.03 66.36 244.96 68.01 242.08C68.07 241.99 67.81 242.04 67.77 242.1L67.77 242.1Z" />
							<path id="Path 3971" class="shp0" d="M68.87 243.51C67.3 245.99 65.96 248.7 64.91 251.59C64.44 252.9 63.4 255.7 64.49 256.94C64.54 257 64.78 256.87 64.74 256.82C63.54 255.46 64.89 252.32 65.4 250.9C66.36 248.25 67.68 245.76 69.1 243.49C69.16 243.4 68.9 243.45 68.87 243.51L68.87 243.51Z" />
							<path id="Path 3972" class="shp0" d="M69.94 246.35C67.84 250.52 66.26 255.03 65.03 259.72C65.01 259.79 65.26 259.76 65.29 259.67C66.53 254.97 68.1 250.45 70.21 246.29C70.23 246.25 69.99 246.26 69.94 246.35L69.94 246.35Z" />
							<path id="Path 3973" class="shp0" d="M70.5 250.54C68.37 254.74 66.68 259.13 65.57 263.94C65.55 264.06 65.81 264.01 65.83 263.9C66.94 259.11 68.62 254.72 70.75 250.55C70.82 250.42 70.55 250.45 70.5 250.54L70.5 250.54Z" />
							<path id="Path 3974" class="shp0" d="M72.68 251.98C69.88 257.15 67.8 262.73 66.67 268.88C66.65 268.96 66.91 268.91 66.93 268.82C68.06 262.67 70.13 257.09 72.94 251.92C72.96 251.88 72.73 251.9 72.68 251.98L72.68 251.98Z" />
							<path id="Path 3975" class="shp0" d="M74.88 254.06C71.26 260.22 68.96 267.15 67.21 274.5C67.18 274.63 67.45 274.58 67.48 274.46C69.21 267.14 71.52 260.2 75.12 254.07C75.19 253.94 74.93 253.97 74.88 254.06L74.88 254.06Z" />
							<path id="Path 3976" class="shp0" d="M76.51 256.88C72.71 264.04 70.07 272.01 67.76 280.14C67.73 280.25 67.99 280.21 68.02 280.1C70.33 271.99 72.96 264.03 76.76 256.89C76.83 256.76 76.56 256.78 76.51 256.88L76.51 256.88Z" />
							<path id="Path 3977" class="shp0" d="M80.89 254.75C76 264.6 71.72 274.89 68.31 285.73C68.25 285.91 68.52 285.9 68.56 285.77C71.97 274.93 76.26 264.63 81.14 254.79C81.21 254.63 80.94 254.63 80.89 254.75L80.89 254.75Z" />
							<path id="Path 3978" class="shp0" d="M84.17 254.07C75.91 267.02 70.66 282.47 65.58 297.75C65.55 297.82 65.8 297.78 65.83 297.69C70.92 282.43 76.16 266.99 84.41 254.05C84.47 253.96 84.21 254 84.17 254.07L84.17 254.07Z" />
							<path id="Path 3979" class="shp0" d="M84.16 261.84C77.19 276.33 70.02 290.75 65.58 306.9C65.56 306.95 65.81 306.92 65.83 306.84C70.28 290.69 77.45 276.27 84.42 261.78C84.43 261.75 84.2 261.76 84.16 261.84L84.16 261.84Z" />
							<path id="Path 3980" class="shp0" d="M84.17 267.44C77.24 279.9 71.66 293.4 67.21 307.6C67.18 307.7 67.44 307.66 67.48 307.55C71.92 293.36 77.49 279.89 84.41 267.44C84.48 267.32 84.22 267.35 84.17 267.44L84.17 267.44Z" />
							<path id="Path 3981" class="shp0" d="M84.18 275.13C78.3 284.91 74.25 295.95 71.04 307.56C70.99 307.74 71.26 307.75 71.3 307.6C74.5 296.02 78.53 285 84.4 275.24C84.51 275.07 84.26 275.01 84.18 275.13L84.18 275.13Z" />
							<path id="Path 3982" class="shp0" d="M83.09 284.29C78.28 291.4 75.9 300.12 73.77 309C73.74 309.15 74.01 309.11 74.04 308.97C76.16 300.12 78.51 291.48 83.31 284.38C83.42 284.23 83.17 284.19 83.09 284.29L83.09 284.29Z" />
							<path id="Path 3983" class="shp0" d="M80.88 296.99C79.3 300.44 77.71 304.19 77.6 308.29C77.59 308.47 77.86 308.43 77.87 308.27C77.98 304.2 79.56 300.47 81.14 297.04C81.21 296.87 80.95 296.85 80.88 296.99L80.88 296.99Z" />
							<path id="Path 3984" class="shp0" d="M81.43 304.79C80.48 308.01 79.82 311.22 80.33 314.66C80.35 314.74 80.52 314.66 80.54 314.64C81.01 314.35 81.7 313.93 82.14 313.57C83.34 312.61 82.87 313.97 82.74 315.16C82.48 317.58 82.37 320 81.97 322.39C81.96 322.48 82.22 322.42 82.24 322.33C82.78 319.08 82.88 315.75 83.33 312.48C83.35 312.37 83.13 312.46 83.1 312.49C78.62 317.19 80.89 307.47 81.69 304.73C81.71 304.66 81.46 304.69 81.43 304.79L81.43 304.79Z" />
							<path id="Path 3985" class="shp0" d="M64.49 333.62C63.94 335.03 63.39 336.44 62.85 337.85C62.79 338 63.05 337.96 63.09 337.86C63.64 336.45 64.19 335.04 64.74 333.64C64.79 333.48 64.53 333.52 64.49 333.62L64.49 333.62Z" />
							<path id="Path 3986" class="shp0" d="M64.49 333.61C63.91 334.74 63.39 335.9 62.92 337.11C62.67 337.76 62.34 338.53 62.29 339.28C62.28 339.44 62.55 339.39 62.56 339.24C62.61 338.41 63.01 337.57 63.29 336.83C63.72 335.74 64.21 334.67 64.74 333.64C64.81 333.5 64.54 333.5 64.49 333.61L64.49 333.61Z" />
							<path id="Path 3987" class="shp0" d="M65.05 332.17C63.43 335.01 62.23 338.1 61.2 341.35C61.15 341.53 61.41 341.54 61.45 341.39C62.47 338.16 63.66 335.09 65.27 332.27C65.37 332.1 65.12 332.04 65.05 332.17L65.05 332.17Z" />
							<path id="Path 3988" class="shp0" d="M63.95 334.28C63 336.09 61.87 337.67 60.67 339.21C60.75 339.23 60.83 339.26 60.91 339.28C61.51 337.09 62.5 335.13 63.09 332.94C63.15 332.76 62.88 332.76 62.84 332.91C62.24 335.09 61.26 337.05 60.66 339.24C60.6 339.43 60.87 339.42 60.91 339.28C61.51 337.09 62.5 335.13 63.09 332.94C63.15 332.76 62.88 332.76 62.84 332.91C62.24 335.09 61.26 337.05 60.66 339.24C60.6 339.43 60.83 339.39 60.89 339.31C62.09 337.77 63.22 336.19 64.17 334.38C64.27 334.2 64.02 334.15 63.95 334.28L63.95 334.28Z" />
							<path id="Path 3989" class="shp0" d="M64.49 333.62C63.37 335.57 62.45 337.74 61.75 339.99C61.71 340.1 61.97 340.06 62.01 339.95C62.71 337.72 63.63 335.57 64.74 333.64C64.81 333.5 64.54 333.53 64.49 333.62L64.49 333.62Z" />
							<path id="Path 3990" class="shp0" d="M67.24 330.07C64.09 334.93 61.85 340.44 60.1 346.32C60.07 346.45 60.33 346.41 60.37 346.29C62.11 340.44 64.32 334.97 67.45 330.14C67.55 329.98 67.3 329.97 67.24 330.07L67.24 330.07Z" />
							<path id="Path 3991" class="shp0" d="M70.5 326.59C65.33 333.46 61.94 342.28 59.56 351.26C59.53 351.35 59.8 351.3 59.82 351.2C62.2 342.24 65.58 333.43 70.74 326.58C70.82 326.49 70.55 326.53 70.5 326.59L70.5 326.59Z" />
							<path id="Path 3992" class="shp0" d="M71.61 327.25C66.36 335.62 61.95 345.11 59.56 355.47C59.52 355.62 59.79 355.58 59.82 355.44C62.21 345.13 66.6 335.67 71.83 327.33C71.93 327.17 71.68 327.14 71.61 327.25L71.61 327.25Z" />
							<path id="Path 3993" class="shp0" d="M71.05 332.91C65.96 341.1 62.48 350.69 59.56 360.4C59.52 360.53 59.79 360.49 59.82 360.37C62.75 350.67 66.22 341.1 71.29 332.93C71.38 332.81 71.11 332.82 71.05 332.91L71.05 332.91Z" />
							<path id="Path 3994" class="shp0" d="M71.59 337.13C67.86 345.29 63.56 353.04 60.66 361.78C60.6 361.95 60.86 361.94 60.91 361.81C63.82 353.08 68.12 345.32 71.85 337.17C71.91 337 71.65 337.01 71.59 337.13L71.59 337.13Z" />
							<path id="Path 3995" class="shp0" d="M72.69 339.97C68.82 345.82 66.16 352.62 63.93 359.71C63.91 359.79 64.16 359.75 64.19 359.65C66.42 352.6 69.08 345.8 72.93 339.96C73 339.86 72.74 339.9 72.69 339.97L72.69 339.97Z" />
							<path id="Path 3996" class="shp0" d="M72.7 345.54C71.82 346.98 66.11 356.35 68.91 357.69C69.03 357.75 69.22 357.52 69.06 357.45C66.62 356.29 72.09 347.01 72.92 345.65C73.03 345.48 72.78 345.41 72.7 345.54L72.7 345.54Z" />
							<path id="Path 3997" class="shp0" d="M74.89 348.38C73.74 349.96 73.39 352.13 72.68 354.04C72.66 354.11 72.71 354.16 72.76 354.16L77.14 354.16C77.25 354.16 77.41 353.94 77.23 353.94L74.91 353.94L73.78 353.94L73.18 353.94C72.86 353.94 73.11 353.55 73.17 353.38C73.72 351.68 74.11 349.83 75.1 348.45C75.22 348.3 74.96 348.28 74.89 348.38L74.89 348.38Z" />
							<path id="Path 3998" class="shp0" d="M88.54 311.09C86.23 314.81 83.79 318.55 82.52 323.08C82.49 323.21 82.75 323.16 82.78 323.05C84.05 318.53 86.48 314.8 88.79 311.1C88.86 310.98 88.6 311 88.54 311.09L88.54 311.09Z" />
							<path id="Path 3999" class="shp0" d="M95.66 305.41C88.87 313.58 83.7 323.6 78.7 333.61C78.62 333.77 78.89 333.77 78.95 333.65C83.94 323.66 89.1 313.66 95.88 305.52C96 305.37 95.75 305.31 95.66 305.41L95.66 305.41Z" />
							<path id="Path 4000" class="shp0" d="M97.31 307.56C89.3 317.26 82.78 328.94 77.6 341.4C77.56 341.48 77.82 341.45 77.86 341.35C83.02 328.93 89.53 317.27 97.52 307.6C97.63 307.46 97.37 307.49 97.31 307.56L97.31 307.56Z" />
							<path id="Path 4001" class="shp0" d="M97.84 311.82C90.65 321.21 85.19 332.39 79.79 343.52C79.77 343.55 80.01 343.54 80.04 343.45C85.45 332.33 90.9 321.17 98.08 311.79C98.13 311.72 97.88 311.76 97.84 311.82L97.84 311.82Z" />
							<path id="Path 4002" class="shp0" d="M98.39 315.97C93.11 324.26 89.06 333.61 84.72 342.72C84.64 342.91 84.88 342.98 84.95 342.84C89.29 333.72 93.33 324.38 98.62 316.08C98.73 315.91 98.48 315.84 98.39 315.97L98.39 315.97Z" />
							<path id="Path 4003" class="shp0" d="M96.19 324.5C94.62 328.46 92 332.61 91.81 337.19C91.81 337.25 92.07 337.21 92.08 337.1C92.27 332.54 94.88 328.38 96.45 324.45C96.48 324.39 96.23 324.41 96.19 324.5L96.19 324.5Z" />
							<path id="Path 4004" class="shp0" d="M96.76 328.65C95.77 330.61 95.11 332.74 95.64 335.08C95.65 335.15 95.71 335.17 95.76 335.16C97.66 335.06 99.26 333.61 100.78 332.3C100.93 332.17 100.71 332.04 100.61 332.14C99.22 333.33 97.79 334.63 96.09 334.89C95.49 334.99 95.72 332.68 95.77 332.25C95.92 330.99 96.45 329.81 96.98 328.75C97.07 328.57 96.82 328.51 96.76 328.65L96.76 328.65Z" />
							<path id="Path 4005" class="shp0" d="M73.78 299.15C72.73 304.72 72.14 310.38 71.59 316.05C71.58 316.16 71.84 316.09 71.85 316C72.35 310.98 72.3 306.11 71.3 301.19C71.28 301.1 71.04 301.19 71.04 301.28C70.83 304.93 70.89 308.57 70.96 312.22C70.99 314.04 71 315.86 70.99 317.69C70.96 319.05 70.9 320.41 70.8 321.77C70.61 324.41 70.75 322.72 70.74 321.7C70.67 313.68 70.14 305.67 69.67 297.67C69.66 297.59 69.4 297.66 69.4 297.76C69.41 303.53 69.51 309.29 69.41 315.05C69.32 320.77 68.28 327.02 68.07 332.23C68.57 320.02 68.04 307.78 68.02 295.56C68.02 295.48 67.77 295.55 67.76 295.63C66.72 309.69 67.14 323.88 65.58 337.88C65.56 337.98 65.83 337.92 65.83 337.83C67.25 325.17 67.05 312.37 67.75 299.65C67.99 295.29 67.76 296.71 67.77 298.37C67.78 300.18 67.8 301.99 67.82 303.8C67.85 306.97 67.91 310.14 67.95 313.3C68.03 320.1 68.03 326.89 67.76 333.67C67.75 333.75 68 333.69 68.02 333.6C69.7 323.96 69.77 314.16 69.7 304.32C69.69 302.99 69.68 301.66 69.67 300.33C69.65 297.87 69.49 299.35 69.56 300.49C69.72 303.16 69.88 305.83 70.02 308.5C70.3 313.83 70.47 319.18 70.49 324.52C70.49 324.6 70.74 324.53 70.76 324.45C71.21 320.8 71.29 317.19 71.25 313.5C71.22 311.22 71.16 308.94 71.14 306.66C71.13 305.9 70.91 300.2 71.53 303.97C71.89 306.18 71.94 308.45 71.94 310.69C71.91 312.04 71.85 313.37 71.72 314.71C71.71 314.87 72.2 312.44 72.23 312.1C72.68 307.73 73.23 303.39 74.03 299.1C74.05 299 73.79 299.06 73.78 299.15L73.78 299.15Z" />
							<path id="Path 4006" class="shp0" d="M60.36 332.15C60.31 332.03 60.26 331.9 60.21 331.78C60.17 331.66 59.93 331.76 59.96 331.9C60.18 332.74 60.52 333.5 60.65 334.38C60.67 334.53 60.91 334.45 60.91 334.32C60.91 332.29 60.88 330.27 60.72 328.25C60.59 326.78 60.27 326.6 60.76 328.21C61.09 329.33 61.43 330.43 61.75 331.56C61.78 331.7 62.01 331.64 62.01 331.5C62.01 328.5 61.9 325.66 61.24 322.76C61.86 325.46 62.98 329.2 63.93 332.27C63.97 332.4 64.2 332.35 64.2 332.21C64.14 329.53 63.81 326.97 63.31 324.38C63.05 323.06 62.71 321.77 62.38 320.48C62.15 319.61 61.91 318.74 61.67 317.88C61.75 316.9 61.52 316.46 61.01 316.57C62.56 321.77 64.55 326.75 66.67 331.59C66.72 331.7 66.93 331.63 66.93 331.5C66.8 325.51 65.13 320.01 63.51 314.47C63.44 314.24 62.59 312.05 62.67 312.29C63.19 313.88 63.69 315.49 64.18 317.1C65.23 320.5 66.22 323.91 67.21 327.34C67.25 327.47 67.46 327.42 67.48 327.27C67.77 323.36 67.01 319.8 65.94 316.16C65.68 315.33 65.42 314.51 65.15 313.69C64.83 312.72 66.26 315.87 66.13 315.61C67.29 317.83 68.34 320.14 69.41 322.44C69.47 322.57 69.72 322.44 69.65 322.29C68.09 318.93 66.52 315.59 64.73 312.43C64.67 312.32 64.43 312.41 64.48 312.55C65.15 314.59 65.81 316.62 66.37 318.71C66.7 319.92 66.91 321.16 67.11 322.41C67.16 322.74 67.48 327.26 67.1 325.94C65.64 320.95 64.17 315.96 62.55 311.05C62.51 310.91 62.25 310.99 62.29 311.14C63.77 316.69 65.64 322.04 66.43 327.84C66.54 328.65 67.07 331.82 65.98 329.29C65.19 327.43 64.44 325.54 63.72 323.64C62.68 320.91 61.76 318.11 60.91 315.28C60.87 315.12 60.61 315.22 60.65 315.37C61.89 319.63 63.08 323.87 63.69 328.37C63.82 329.23 63.87 330.12 63.83 331C63.47 329.83 63.1 328.65 62.74 327.48C62.13 325.52 61.52 323.57 60.91 321.61C60.87 321.46 60.61 321.55 60.65 321.7C61.36 324.21 61.66 326.61 61.73 329.27C61.81 332.23 60.56 326.54 60.37 325.84C60.33 325.69 60.08 325.77 60.1 325.93C60.5 328.32 60.62 330.7 60.65 333.14C60.66 334.58 60.75 333.43 60.53 332.72C60.45 332.45 59.81 331.5 60.12 332.29C60.17 332.43 60.42 332.3 60.36 332.15L60.36 332.15Z" />
							<path id="Path 4007" class="shp0" d="M107.69 296.26C106.79 297.41 105.66 298.48 104.99 299.88C104.46 300.96 105.74 300.75 106.18 300.64C106.35 300.61 106.3 300.39 106.14 300.42C105.85 300.49 104.94 300.75 105.19 300.02C105.34 299.6 105.64 299.23 105.88 298.9C106.53 298.01 107.24 297.21 107.91 296.36C108.03 296.2 107.77 296.16 107.69 296.26L107.69 296.26Z" />
							<path id="Path 4008" class="shp0" d="M110.41 294.19C108.9 296.84 107.72 299.71 106.58 302.64C106.52 302.8 106.79 302.77 106.83 302.66C107.97 299.73 109.15 296.85 110.66 294.21C110.74 294.07 110.47 294.09 110.41 294.19L110.41 294.19Z" />
							<path id="Path 4009" class="shp0" d="M112.06 292.08C109.82 297.09 107.36 302.04 106.03 307.6C106 307.72 106.27 307.67 106.3 307.56C107.62 302.02 110.07 297.08 112.3 292.09C112.36 291.95 112.1 291.98 112.06 292.08L112.06 292.08Z" />
							<path id="Path 4010" class="shp0" d="M113.16 294.16C109.8 299.31 107.1 304.97 104.95 311.09C104.89 311.25 105.15 311.21 105.19 311.1C107.34 305.01 110.02 299.36 113.38 294.23C113.48 294.07 113.23 294.07 113.16 294.16L113.16 294.16Z" />
							<path id="Path 4011" class="shp0" d="M112.06 297.71C109.24 302.93 107.23 308.72 105.48 314.64C105.45 314.75 105.72 314.71 105.74 314.6C107.49 308.7 109.49 302.93 112.3 297.72C112.37 297.59 112.1 297.62 112.06 297.71L112.06 297.71Z" />
							<path id="Path 4012" class="shp0" d="M113.14 299.12C110.4 304.9 108.27 311.05 106.58 317.46C106.55 317.57 106.81 317.52 106.84 317.41C108.53 311.02 110.65 304.89 113.39 299.13C113.45 299 113.19 299.03 113.14 299.12L113.14 299.12Z" />
							<path id="Path 4013" class="shp0" d="M113.16 304.01C110.49 308.33 107.85 314.62 107.67 320.27C107.67 320.43 107.93 320.37 107.94 320.23C108.12 314.65 110.73 308.38 113.38 304.1C113.48 303.93 113.23 303.9 113.16 304.01L113.16 304.01Z" />
							<path id="Path 4014" class="shp0" d="M110.95 311.12C110.47 313 109.76 315.53 110.4 317.48C110.44 317.6 110.7 317.49 110.67 317.39C110.03 315.46 110.74 312.95 111.22 311.07C111.24 310.96 110.98 311.01 110.95 311.12L110.95 311.12Z" />
							<path id="Path 4015" class="shp0" d="M93.53 311.01C92.46 311.51 91.72 312.57 91.27 313.9C91.21 314.08 91.48 314.05 91.52 313.93C91.84 313.11 92.16 312.29 92.48 311.47C92.87 310.46 91.57 312.78 91.37 313.06C92.01 312.16 92.47 311.15 93.04 310.13C93.03 310.14 94.01 308.18 93.61 308.98C93.1 309.99 92.65 311.02 92.24 312.1C91.52 314.01 91.07 316.08 90.72 318.15C90.69 318.32 90.92 318.24 90.96 318.18C93.2 315.16 94.68 311.43 95.9 307.59C95.96 307.4 95.7 307.45 95.65 307.56C93.51 311.75 91.83 316.16 90.72 320.97C90.68 321.12 90.95 321.08 90.99 320.94C91.67 317.96 92.56 315.14 93.67 312.38C94.11 311.29 94.6 310.23 95.1 309.18C96.13 307.02 94.85 309.95 94.65 310.49C93.74 313.02 92.59 315.4 91.17 317.51C91.09 317.12 91.13 316.74 91.3 316.37C91.53 315.2 91.86 314.08 92.21 312.96C92.72 311.3 93.44 309.77 94.24 308.32C94.34 308.15 94.1 308.13 94.02 308.24C92.93 309.73 92.02 311.38 91.27 313.2C91.2 313.37 91.45 313.33 91.51 313.25C91.99 312.61 92.45 311.95 92.63 311.08C92.66 310.92 92.41 310.98 92.37 311.08C92.05 311.9 91.73 312.72 91.41 313.54C90.95 314.73 92.67 311.76 92.32 312.29C92.65 311.81 93.17 311.41 93.64 311.19C93.82 311.11 93.66 310.94 93.53 311.01L93.53 311.01Z" />
							<path id="Path 4016" class="shp0" d="M98.4 305.42C94.09 310.58 92.52 318.03 91.27 325.19C91.24 325.35 91.51 325.3 91.53 325.16C92.77 318.04 94.32 310.64 98.62 305.51C98.74 305.37 98.47 305.33 98.4 305.42L98.4 305.42Z" />
							<path id="Path 4017" class="shp0" d="M97.84 310.37C95.26 315.86 93.59 321.81 92.36 328C92.32 328.18 92.59 328.14 92.63 327.98C93.85 321.81 95.52 315.88 98.09 310.42C98.16 310.25 97.9 310.23 97.84 310.37L97.84 310.37Z" />
							<path id="Path 4018" class="shp0" d="M98.38 312.5C96.23 318.01 94.03 323.38 92.91 329.42C92.88 329.55 93.15 329.5 93.17 329.38C94.29 323.37 96.49 317.99 98.63 312.51C98.69 312.36 98.42 312.4 98.38 312.5L98.38 312.5Z" />
							<path id="Path 4019" class="shp0" d="M98.92 313.93C97.19 319.77 95.13 325.43 94 331.53C93.98 331.67 94.24 331.61 94.26 331.49C94.75 329.36 95.48 327.37 96.17 325.34C96.18 325.3 96.73 322.46 96.73 323.65C96.73 325.4 96.54 327.03 96.19 328.72C96.17 328.84 96.43 328.79 96.45 328.68C97.78 322.63 98.11 316.38 98.82 310.19C98.95 309.07 98.91 307.75 98.67 309.91C98.5 311.52 98.33 313.13 98.16 314.74C97.88 317.52 97.59 320.3 97.28 323.09C97.27 323.23 97.52 323.14 97.54 323.05C99.13 317.83 99.18 312.35 99.19 306.82C99.19 306.72 98.93 306.79 98.92 306.89C97.96 314.36 98.33 321.98 97.28 329.42C97.26 329.55 97.53 329.5 97.54 329.38C98.15 325.08 98.28 320.73 98.44 316.37C98.52 314.1 98.66 311.84 98.86 309.58C99.04 307.79 99.06 307.76 98.92 309.49C98.91 310.78 98.87 312.07 98.83 313.35C98.75 315.45 98.52 317.52 98.18 319.57C97.71 322.35 97.62 322.37 97.92 319.54C98.35 315.54 98.75 311.55 99.19 307.55C99.2 307.42 98.94 307.48 98.92 307.6C98.28 311.97 97.96 316.4 97.49 320.8C97.25 323.03 96.9 325.22 96.48 327.4C96.73 326.11 96.99 324.13 97 322.34C97 322.2 96.76 322.28 96.73 322.38C96.33 324.15 95.77 325.81 95.19 327.49C94.84 328.5 94.52 329.53 94.22 330.58C94.46 329.74 94.82 328.72 95.04 327.77C96.14 323.02 97.81 318.51 99.19 313.89C99.22 313.78 98.95 313.82 98.92 313.93L98.92 313.93Z" />
						</g>
						<g id="Group 891">
							<g id="Group 890">
								<g id="Group 863">
									<g id="Group 838">
										<path id="Path 4020" class="shp0" d="M52.23 81.23C51.61 81.08 51 80.92 50.39 80.75L56.55 84.45L56.54 363.9L1.26 330.57L1.27 59.24C1.1 59.14 0.94 59.04 0.77 58.93L0.76 330.88L57.04 364.82L57.06 84.14L52.23 81.23Z" />
									</g>
									<g id="Group 839">
										<path id="Path 4021" fill-rule="evenodd" class="shp0" d="M57.49 360.76L1.65 327.1L1.65 309.78L57.49 343.45L57.49 360.76ZM2.16 326.78L56.98 359.84L56.98 343.77L2.16 310.7L2.16 326.78Z" />
									</g>
									<g id="Group 840">
										<path id="Path 4022" fill-rule="evenodd" class="shp0" d="M14.65 333.7L7.9 329.63L7.9 313.55L14.65 317.62L14.65 333.7ZM8.4 329.31L14.14 332.77L14.14 317.94L8.4 314.47L8.4 329.31Z" />
									</g>
									<g id="Group 841">
										<path id="Path 4023" fill-rule="evenodd" class="shp0" d="M28.03 342.39L19.94 337.51L19.94 321.43L28.04 326.31L28.03 342.39ZM20.45 337.19L27.53 341.46L27.53 326.63L20.45 322.36L20.45 337.19Z" />
									</g>
									<g id="Group 842">
										<path id="Path 4024" fill-rule="evenodd" class="shp0" d="M36.96 347.77L30.65 343.97L30.65 327.89L36.96 331.69L36.96 347.77ZM31.16 343.65L36.45 346.84L36.45 332.01L31.16 328.81L31.16 343.65Z" />
									</g>
									<g id="Group 843">
										<path id="Path 4025" fill-rule="evenodd" class="shp0" d="M47.67 354.22L40.92 350.15L40.92 334.7L47.67 338.77L47.67 354.22ZM41.42 349.84L47.16 353.31L47.16 339.09L41.42 335.62L41.42 349.84Z" />
									</g>
									<g id="Group 844">
										<path id="Path 4026" fill-rule="evenodd" class="shp0" d="M55.26 359.42L51.18 356.96L51.18 339.65L55.26 342.11L55.26 359.42ZM51.68 356.65L54.75 358.49L54.75 342.42L51.68 340.57L51.68 356.65Z" />
									</g>
									<g id="Group 845">
										<path id="Path 4027" fill-rule="evenodd" class="shp0" d="M57.93 365.36L1.65 331.42L1.65 326.48L57.93 360.42L57.93 365.36ZM2.16 331.11L57.43 364.44L57.43 360.72L2.16 327.4L2.16 331.11Z" />
									</g>
									<g id="Group 846">
										<path id="Path 4028" class="shp0" d="M19.94 321.43L10.37 315.66L10.38 64.57C10.21 64.49 10.05 64.4 9.88 64.32L9.86 315.97L20.45 322.36L20.46 68.67C20.29 68.59 20.12 68.51 19.96 68.43L19.94 321.43Z" />
									</g>
									<g id="Group 847">
										<path id="Path 4029" class="shp0" d="M48.91 80.3C48.71 80.24 48.52 80.18 48.32 80.11C48.29 80.12 48.25 80.12 48.21 80.13L48.26 80.16L48.09 144.12L48.04 176.32L48.06 208.55C48.04 230.03 48.16 251.58 48.22 273.1L48.33 305.4L48.52 337.68L37.08 330.66C37.17 320.03 37.21 309.37 37.25 298.72L37.32 282.64L37.35 266.54L37.39 234.35L37.34 202.08C37.26 180.56 37.12 158.99 37.11 137.5C37.07 126.73 37.13 116.02 37.15 105.3L37.21 77.02C37.04 76.95 36.86 76.87 36.68 76.8L36.74 105.05C36.76 115.8 36.81 126.58 36.77 137.3C36.77 158.77 36.62 180.17 36.54 201.61L36.49 233.8L36.53 266.05L36.56 282.18L36.62 298.34C36.66 309.1 36.7 319.87 36.79 330.66L36.79 330.85L36.93 330.93L48.63 337.86L48.82 305.69L48.93 273.53C48.99 252.08 49.11 230.67 49.09 209.18L49.12 176.96L49.07 144.71L48.91 80.3Z" />
									</g>
									<g id="Group 856">
										<g id="Group 848">
											<path id="Path 4030" class="shp0" d="M23.53 70.01C23.52 74.98 23.52 79.95 23.52 84.92C23.54 89.97 23.54 95 23.57 100.06C22.66 99.46 21.76 98.89 20.85 98.33L20.87 90.88L20.85 83.31L20.83 75.74L20.85 68.85L20.78 68.82L20.8 75.72L20.77 83.27L20.76 90.82L20.77 98.39L20.77 98.49L20.81 98.51C21.73 99.06 22.66 99.59 23.58 100.09L23.58 100.1L23.58 100.08C23.62 95.06 23.62 90.02 23.63 84.99C23.64 80.02 23.64 75.04 23.63 70.05C23.6 70.04 23.57 70.02 23.53 70.01Z" />
											<path id="Path 4031" class="shp0" d="M26.36 71.64L27.91 72.59C27.9 77.58 27.9 82.57 27.91 87.56C27.92 92.61 27.92 97.65 27.95 102.7L26.34 101.67L24.77 100.69L24.78 93.24L24.76 85.67L24.75 78.11L24.76 70.7L24.7 70.66L24.72 78.08L24.7 85.63L24.68 93.18L24.69 100.75L24.69 100.86L24.73 100.88L26.34 101.82L27.96 102.74L27.96 102.72C28 97.7 28 92.66 28.01 87.63C28.02 82.61 28.02 77.59 28.01 72.55C27.46 72.25 26.91 71.95 26.36 71.64Z" />
											<path id="Path 4032" fill-rule="evenodd" class="shp0" d="M31.7 74.73C31.71 79.78 31.71 84.82 31.7 89.86C31.68 94.89 31.68 99.93 31.65 104.95L31.65 104.96L31.64 104.96C30.72 104.45 29.8 103.92 28.88 103.38L28.84 103.35L28.84 103.26L28.83 95.69L28.84 88.13L28.86 80.58L28.85 73.02C29.36 73.3 29.89 73.56 30.4 73.84L31.64 74.56L31.7 74.59L31.7 74.73ZM31.64 104.92C31.61 99.87 31.61 94.83 31.59 89.79C31.59 84.79 31.59 79.8 31.59 74.81L28.91 73.14L28.9 80.61L28.91 88.18L28.93 95.75L28.91 103.2C29.82 103.75 30.73 104.33 31.64 104.92Z" />
											<path id="Path 4033" fill-rule="evenodd" class="shp0" d="M36.03 107.6L34.41 106.69L32.8 105.74L32.76 105.72L32.76 105.62L32.75 98.05L32.76 90.5L32.78 82.95L32.77 75.38L32.77 75.29L32.8 75.31L36.03 77.19L36.08 77.22L36.08 77.37C36.09 82.42 36.09 87.46 36.08 92.5C36.06 97.53 36.06 102.56 36.03 107.59L36.03 107.6ZM36.02 107.56C35.99 102.51 35.99 97.48 35.97 92.43C35.96 87.44 35.96 82.45 35.97 77.46L32.83 75.5L32.82 82.97L32.83 90.54L32.85 98.11L32.83 105.55L34.41 106.53L36.02 107.56ZM35.97 77.46L36.03 77.49L35.97 77.31C35.97 77.36 35.97 77.41 35.97 77.46ZM32.83 75.5L32.83 75.41L32.8 75.48L32.83 75.5ZM32.83 105.55L32.8 105.53L32.83 105.66L32.83 105.55Z" />
										</g>
										<g id="Group 849">
											<path id="Path 4034" fill-rule="evenodd" class="shp0" d="M23.57 131.83C22.65 131.32 21.73 130.79 20.81 130.25L20.77 130.22L20.77 130.13L20.76 122.55L20.77 115L20.79 107.46L20.78 99.88L20.78 99.8L20.81 99.82L23.58 101.43L23.63 101.45L23.63 101.6C23.64 106.65 23.64 111.69 23.63 116.73C23.62 121.76 23.62 126.8 23.58 131.82L23.58 131.83L23.57 131.83ZM23.57 131.79C23.54 126.74 23.54 121.7 23.52 116.66C23.52 111.66 23.52 106.67 23.53 101.68L20.85 100.01L20.83 107.48L20.85 115.05L20.87 122.61L20.85 130.07C21.75 130.62 22.66 131.2 23.57 131.79ZM23.53 101.68L23.58 101.72L23.53 101.54C23.53 101.59 23.53 101.64 23.53 101.68ZM20.85 100.01L20.85 99.92L20.81 99.99L20.85 100.01ZM20.85 130.07C20.83 130.06 20.82 130.05 20.81 130.04L20.85 130.17L20.85 130.07Z" />
											<path id="Path 4035" fill-rule="evenodd" class="shp0" d="M27.96 134.47L26.34 133.56L24.73 132.61L24.69 132.59L24.69 132.49L24.68 124.92L24.7 117.37L24.71 109.82L24.7 102.25L24.7 102.16L24.73 102.18L27.96 104.07L28.01 104.1L28.01 104.24C28.02 109.29 28.02 114.33 28.01 119.37C28 124.4 28 129.44 27.96 134.46L27.96 134.47ZM27.95 134.44C27.92 129.38 27.92 124.35 27.9 119.3C27.89 114.3 27.89 109.31 27.9 104.33L24.76 102.38L24.75 109.84L24.76 117.41L24.78 124.98L24.77 132.43L26.34 133.4L27.95 134.44ZM27.9 104.33L27.96 104.36L27.91 104.18C27.91 104.23 27.91 104.28 27.9 104.33ZM24.76 102.38L24.76 102.29L24.73 102.36L24.76 102.38ZM24.77 132.43L24.73 132.4L24.77 132.53L24.77 132.43Z" />
											<path id="Path 4036" fill-rule="evenodd" class="shp0" d="M31.64 136.69C30.72 136.19 29.8 135.66 28.88 135.11L28.84 135.09L28.84 134.99L28.83 127.42L28.84 119.87L28.86 112.32L28.85 104.75L28.85 104.66L28.88 104.68L31.64 106.29L31.7 106.32L31.7 106.47C31.7 111.51 31.71 116.55 31.7 121.59C31.68 126.62 31.68 131.66 31.65 136.68L31.65 136.7L31.64 136.69ZM31.64 136.66C31.61 131.61 31.6 126.57 31.59 121.52C31.58 116.53 31.58 111.54 31.59 106.55L28.91 104.88L28.9 112.34L28.91 119.91L28.93 127.48L28.92 134.93C29.82 135.49 30.73 136.06 31.64 136.66ZM31.59 106.55L31.64 106.58L31.59 106.4C31.59 106.45 31.59 106.5 31.59 106.55ZM28.91 104.88L28.91 104.79L28.88 104.86L28.91 104.88ZM28.92 134.93C28.9 134.92 28.89 134.92 28.88 134.91L28.91 135.03L28.92 134.93Z" />
											<path id="Path 4037" fill-rule="evenodd" class="shp0" d="M36.03 139.34L34.41 138.42L32.79 137.48L32.76 137.46L32.76 137.35L32.75 129.78L32.78 114.68L32.77 107.11L32.76 107.03L32.8 107.04L36.02 108.93L36.08 108.96L36.08 109.11C36.09 114.15 36.09 119.2 36.08 124.23C36.06 129.26 36.06 134.3 36.03 139.32L36.03 139.34ZM36.02 139.3C35.99 134.24 35.98 129.21 35.97 124.16C35.96 119.17 35.96 114.18 35.97 109.2L32.83 107.24L32.81 114.7L32.83 122.27L32.85 129.84L32.83 137.29L34.41 138.27L36.02 139.3ZM35.97 109.2L36.02 109.23L35.97 109.05C35.97 109.1 35.97 109.15 35.97 109.2ZM32.83 107.24L32.83 107.15L32.8 107.22L32.83 107.24ZM32.83 137.29L32.79 137.27L32.83 137.39L32.83 137.29Z" />
										</g>
										<g id="Group 850">
											<path id="Path 4038" fill-rule="evenodd" class="shp0" d="M23.57 163.56C22.65 163.06 21.73 162.53 20.81 161.98L20.77 161.96L20.77 161.86L20.76 154.29L20.77 146.74L20.79 139.19L20.78 131.62L20.78 131.53L20.81 131.55L23.57 133.16L23.63 133.19L23.63 133.34C23.64 138.39 23.64 143.42 23.63 148.46C23.62 153.49 23.61 158.53 23.58 163.55L23.58 163.57L23.57 163.56ZM23.57 163.53C23.54 158.48 23.54 153.44 23.52 148.39C23.52 143.4 23.52 138.41 23.53 133.42L20.85 131.75L20.83 139.21L20.85 146.79L20.86 154.35L20.85 161.8C21.75 162.36 22.66 162.93 23.57 163.53ZM23.53 133.42L23.57 133.45L23.53 133.28C23.53 133.33 23.53 133.37 23.53 133.42ZM20.85 131.75L20.85 131.66L20.81 131.73L20.85 131.75ZM20.85 161.8C20.83 161.79 20.82 161.79 20.81 161.78L20.85 161.9L20.85 161.8Z" />
											<path id="Path 4039" fill-rule="evenodd" class="shp0" d="M27.96 166.21L26.34 165.3L24.73 164.35L24.69 164.33L24.69 164.22L24.68 156.65L24.7 149.11L24.71 141.55L24.7 133.98L24.7 133.9L24.73 133.91L27.95 135.8L28.01 135.83L28.01 135.98C28.02 141.02 28.02 146.07 28.01 151.1C28 156.13 27.99 161.17 27.96 166.19L27.96 166.21ZM27.95 166.17C27.92 161.12 27.92 156.08 27.9 151.04C27.89 146.04 27.89 141.05 27.9 136.07L24.76 134.11L24.74 141.58L24.76 149.14L24.78 156.71L24.77 164.16L26.34 165.13L27.95 166.17ZM27.9 136.07L27.95 136.1L27.91 135.91C27.91 135.96 27.91 136.02 27.9 136.07ZM24.76 134.11L24.76 134.02L24.73 134.09L24.76 134.11ZM24.77 164.16L24.73 164.14L24.77 164.26L24.77 164.16Z" />
											<path id="Path 4040" fill-rule="evenodd" class="shp0" d="M31.64 168.43C30.72 167.92 29.8 167.39 28.88 166.85L28.84 166.83L28.84 166.72L28.83 159.15L28.84 151.6L28.86 144.06L28.84 136.49L28.84 136.39L28.88 136.42L31.64 138.02L31.69 138.06L31.69 138.2C31.7 143.25 31.7 148.29 31.7 153.33C31.68 158.36 31.68 163.4 31.65 168.41L31.65 168.43L31.64 168.43ZM31.64 168.39C31.6 163.34 31.6 158.3 31.59 153.26C31.58 148.26 31.59 143.27 31.59 138.28L28.91 136.61L28.89 144.08L28.91 151.64L28.93 159.22L28.91 166.67C29.82 167.23 30.73 167.8 31.64 168.39ZM31.59 138.28L31.64 138.32L31.59 138.14C31.59 138.19 31.59 138.24 31.59 138.28ZM28.91 136.61L28.91 136.52L28.88 136.59L28.91 136.61ZM28.91 166.67C28.9 166.66 28.89 166.65 28.88 166.65L28.91 166.77L28.91 166.67Z" />
											<path id="Path 4041" fill-rule="evenodd" class="shp0" d="M36.02 171.07L34.41 170.16L32.79 169.21L32.76 169.19L32.76 169.08L32.74 161.52L32.76 153.96L32.78 146.42L32.76 138.85L32.76 138.76L32.79 138.78L36.02 140.66L36.08 140.7L36.08 140.84C36.09 145.89 36.09 150.93 36.08 155.97C36.06 161 36.06 166.03 36.02 171.06L36.02 171.07ZM36.02 171.03C35.98 165.98 35.98 160.94 35.97 155.9C35.96 150.91 35.96 145.92 35.97 140.93L32.83 138.98L32.81 146.44L32.83 154.01L32.85 161.58L32.83 169.03L34.41 170L36.02 171.03ZM35.97 140.93L36.02 140.96L35.97 140.78C35.97 140.83 35.97 140.88 35.97 140.93ZM32.83 138.98L32.83 138.88L32.79 138.96L32.83 138.98ZM32.83 169.03L32.79 169L32.83 169.13L32.83 169.03Z" />
										</g>
										<g id="Group 851">
											<path id="Path 4042" fill-rule="evenodd" class="shp0" d="M23.57 195.3C22.65 194.79 21.73 194.26 20.81 193.71L20.77 193.69L20.77 193.59L20.76 186.03L20.77 178.47L20.79 170.93L20.78 163.36L20.77 163.27L20.81 163.29L23.57 164.9L23.63 164.93L23.63 165.08C23.63 170.12 23.64 175.16 23.63 180.2C23.61 185.23 23.61 190.27 23.58 195.29L23.58 195.3L23.57 195.3ZM23.57 195.27C23.54 190.21 23.54 185.18 23.52 180.13C23.51 175.13 23.52 170.14 23.52 165.15L20.84 163.48L20.83 170.95L20.85 178.52L20.86 186.09L20.85 193.54C21.76 194.09 22.66 194.67 23.57 195.27ZM23.52 165.15L23.57 165.18L23.52 165.01C23.52 165.06 23.52 165.1 23.52 165.15ZM20.84 163.48L20.84 163.39L20.81 163.46L20.84 163.48ZM20.85 193.54C20.83 193.53 20.82 193.53 20.81 193.52L20.85 193.64L20.85 193.54Z" />
											<path id="Path 4043" fill-rule="evenodd" class="shp0" d="M27.96 197.94L26.34 197.03L24.73 196.08L24.69 196.07L24.69 195.95L24.68 188.39L24.69 180.84L24.71 173.29L24.7 165.72L24.7 165.63L24.73 165.65L27.95 167.53L28.01 167.56L28.01 167.72C28.02 172.76 28.02 177.8 28.01 182.84C27.99 187.87 27.99 192.91 27.96 197.93L27.96 197.94ZM27.95 197.9C27.92 192.85 27.91 187.81 27.9 182.77C27.89 177.78 27.89 172.79 27.9 167.8L24.76 165.84L24.74 173.31L24.76 180.88L24.78 188.45L24.76 195.89L26.34 196.87L27.95 197.9ZM27.9 167.8L27.95 167.83L27.91 167.65C27.91 167.7 27.91 167.75 27.9 167.8ZM24.76 165.84L24.76 165.76L24.73 165.82L24.76 165.84ZM24.76 195.89L24.73 195.87L24.76 196L24.76 195.89Z" />
											<path id="Path 4044" fill-rule="evenodd" class="shp0" d="M31.64 200.16C30.72 199.66 29.8 199.13 28.87 198.58L28.84 198.56L28.84 198.46L28.83 190.89L28.84 183.34L28.86 175.79L28.84 168.22L28.84 168.13L28.88 168.15L31.64 169.76L31.69 169.79L31.69 169.94C31.7 174.98 31.7 180.02 31.7 185.06C31.68 190.09 31.68 195.13 31.64 200.15L31.64 200.17L31.64 200.16ZM31.63 200.13C31.6 195.07 31.6 190.04 31.59 184.99C31.58 180 31.58 175.01 31.59 170.02L28.91 168.34L28.89 175.81L28.91 183.38L28.93 190.95L28.91 198.4C29.82 198.96 30.73 199.53 31.63 200.13ZM31.59 170.02L31.64 170.05L31.59 169.87C31.59 169.92 31.59 169.97 31.59 170.02ZM28.91 168.34L28.91 168.26L28.88 168.33L28.91 168.34ZM28.91 198.4C28.9 198.4 28.89 198.39 28.87 198.38L28.91 198.5L28.91 198.4Z" />
											<path id="Path 4045" fill-rule="evenodd" class="shp0" d="M36.02 202.81L34.41 201.9L32.79 200.95L32.76 200.93L32.76 200.82L32.74 193.25L32.76 185.7L32.78 178.15L32.76 170.58L32.76 170.5L32.79 170.51L36.02 172.4L36.08 172.43L36.08 172.58C36.09 177.62 36.09 182.66 36.08 187.7C36.06 192.73 36.05 197.77 36.02 202.79L36.02 202.81ZM36.01 202.77C35.98 197.71 35.98 192.68 35.96 187.63C35.96 182.64 35.96 177.65 35.97 172.66L32.83 170.71L32.81 178.17L32.83 185.74L32.84 193.31L32.83 200.76L34.41 201.74L36.01 202.77ZM35.97 172.66L36.02 172.7L35.97 172.51C35.97 172.56 35.97 172.61 35.97 172.66ZM32.83 170.71L32.83 170.62L32.79 170.69L32.83 170.71ZM32.83 200.76L32.79 200.73L32.83 200.86L32.83 200.76Z" />
										</g>
										<g id="Group 852">
											<path id="Path 4046" fill-rule="evenodd" class="shp0" d="M23.57 227.03C22.65 226.53 21.73 226 20.81 225.45L20.77 225.43L20.77 225.33L20.76 217.76L20.77 210.21L20.79 202.66L20.77 195.09L20.77 195L20.81 195.02L23.57 196.63L23.63 196.66L23.63 196.81C23.63 201.85 23.63 206.9 23.63 211.93C23.61 216.96 23.61 222 23.58 227.03L23.58 227.03L23.57 227.03ZM23.57 227C23.54 221.94 23.53 216.91 23.52 211.86C23.51 206.87 23.52 201.88 23.52 196.89L20.84 195.22L20.82 202.68L20.85 210.25L20.86 217.82L20.85 225.28C21.76 225.83 22.66 226.41 23.57 227ZM23.52 196.89L23.57 196.92L23.52 196.75C23.52 196.79 23.52 196.84 23.52 196.89ZM20.84 195.22L20.84 195.13L20.81 195.2L20.84 195.22ZM20.85 225.28C20.83 225.27 20.82 225.26 20.81 225.25L20.85 225.38L20.85 225.28Z" />
											<path id="Path 4047" fill-rule="evenodd" class="shp0" d="M27.96 229.68L26.34 228.77L24.73 227.82L24.69 227.8L24.69 227.69L24.68 220.12L24.69 212.57L24.71 205.02L24.7 197.45L24.7 197.37L24.73 197.39L27.95 199.27L28.01 199.3L28.01 199.45C28.01 204.5 28.01 209.54 28.01 214.57C27.99 219.6 27.99 224.64 27.96 229.66L27.96 229.68ZM27.95 229.64C27.92 224.59 27.91 219.55 27.9 214.51C27.89 209.51 27.89 204.52 27.9 199.54L24.76 197.58L24.74 205.04L24.76 212.61L24.77 220.19L24.76 227.63L26.34 228.61L27.95 229.64ZM27.9 199.54L27.95 199.57L27.9 199.39C27.9 199.44 27.9 199.49 27.9 199.54ZM24.76 197.58L24.76 197.49L24.73 197.56L24.76 197.58ZM24.76 227.63L24.73 227.61L24.76 227.74L24.76 227.63Z" />
											<path id="Path 4048" fill-rule="evenodd" class="shp0" d="M31.64 231.9C30.72 231.39 29.8 230.86 28.87 230.32L28.84 230.29L28.84 230.2L28.82 222.63L28.84 215.07L28.86 207.52L28.84 199.96L28.84 199.87L28.87 199.89L31.64 201.5L31.69 201.53L31.69 201.67C31.7 206.72 31.7 211.76 31.7 216.8C31.68 221.82 31.68 226.86 31.64 231.89L31.64 231.9L31.64 231.9ZM31.63 231.86C31.6 226.81 31.6 221.77 31.59 216.73C31.58 211.73 31.58 206.74 31.59 201.75L28.91 200.08L28.89 207.54L28.91 215.12L28.93 222.69L28.91 230.14C29.82 230.69 30.73 231.27 31.63 231.86ZM31.59 201.75L31.64 201.79L31.59 201.61C31.59 201.66 31.59 201.7 31.59 201.75ZM28.91 200.08L28.91 199.99L28.87 200.06L28.91 200.08ZM28.91 230.14C28.9 230.13 28.89 230.12 28.87 230.12L28.91 230.24L28.91 230.14Z" />
											<path id="Path 4049" fill-rule="evenodd" class="shp0" d="M36.02 234.54L34.41 233.63L32.79 232.68L32.75 232.66L32.75 232.56L32.74 224.99L32.76 217.44L32.77 209.89L32.76 202.32L32.76 202.23L32.79 202.25L36.02 204.13L36.07 204.17L36.07 204.31C36.08 209.36 36.08 214.4 36.08 219.44C36.05 224.46 36.05 229.5 36.02 234.53L36.02 234.54ZM36.01 234.5C35.98 229.45 35.98 224.41 35.96 219.37C35.96 214.37 35.96 209.38 35.97 204.4L32.82 202.44L32.81 209.91L32.83 217.48L32.84 225.05L32.83 232.5L34.41 233.47L36.01 234.5ZM35.97 204.4L36.02 204.43L35.97 204.25C35.97 204.3 35.97 204.35 35.97 204.4ZM32.82 202.44L32.82 202.35L32.79 202.42L32.82 202.44ZM32.83 232.5L32.79 232.47L32.83 232.6L32.83 232.5Z" />
										</g>
										<g id="Group 853">
											<path id="Path 4050" fill-rule="evenodd" class="shp0" d="M23.57 258.77C22.65 258.26 21.73 257.73 20.81 257.19L20.77 257.17L20.77 257.07L20.76 249.49L20.77 241.94L20.79 234.39L20.77 226.83L20.77 226.74L20.81 226.76L23.57 228.36L23.62 228.4L23.63 228.55C23.63 233.59 23.63 238.63 23.63 243.67C23.61 248.7 23.61 253.73 23.57 258.76L23.57 258.77L23.57 258.77ZM23.57 258.73C23.53 253.68 23.53 248.64 23.52 243.6C23.51 238.61 23.51 233.62 23.52 228.63L20.84 226.95L20.82 234.42L20.84 241.99L20.86 249.56L20.84 257.01C21.75 257.56 22.66 258.14 23.57 258.73ZM23.52 228.63L23.57 228.66L23.52 228.48C23.52 228.53 23.52 228.58 23.52 228.63ZM20.84 226.95L20.84 226.86L20.81 226.93L20.84 226.95ZM20.84 257.01C20.83 257 20.82 257 20.81 256.99L20.84 257.11L20.84 257.01Z" />
											<path id="Path 4051" fill-rule="evenodd" class="shp0" d="M27.96 261.41L26.34 260.5L24.72 259.55L24.69 259.53L24.69 259.43L24.67 251.86L24.69 244.31L24.7 236.76L24.69 229.19L24.69 229.1L24.73 229.12L27.95 231L28 231.03L28 231.19C28.01 236.23 28.01 241.27 28.01 246.31C27.99 251.34 27.99 256.38 27.96 261.4L27.96 261.41ZM27.95 261.37C27.91 256.32 27.91 251.28 27.89 246.24C27.89 241.24 27.89 236.26 27.9 231.27L24.76 229.31L24.74 236.78L24.76 244.35L24.77 251.92L24.76 259.37L26.34 260.34L27.95 261.37ZM27.9 231.27L27.95 231.3L27.9 231.12C27.9 231.17 27.9 231.22 27.9 231.27ZM24.76 229.31L24.76 229.23L24.73 229.29L24.76 229.31ZM24.76 259.37L24.72 259.35L24.76 259.47L24.76 259.37Z" />
											<path id="Path 4052" fill-rule="evenodd" class="shp0" d="M31.64 263.64C30.71 263.13 29.8 262.6 28.87 262.05L28.84 262.03L28.84 261.93L28.82 254.36L28.84 246.81L28.86 239.26L28.84 231.69L28.84 231.6L28.87 231.62L31.64 233.23L31.69 233.26L31.69 233.41C31.7 238.45 31.7 243.49 31.7 248.53C31.68 253.56 31.67 258.6 31.64 263.62L31.64 263.64L31.64 263.64ZM31.63 263.6C31.6 258.54 31.6 253.51 31.58 248.46C31.58 243.47 31.58 238.48 31.59 233.49L28.91 231.82L28.89 239.28L28.91 246.85L28.93 254.42L28.91 261.87C29.81 262.43 30.72 263.01 31.63 263.6ZM31.59 233.49L31.64 233.52L31.59 233.34C31.59 233.39 31.59 233.44 31.59 233.49ZM28.91 231.82L28.91 231.73L28.87 231.8L28.91 231.82ZM28.91 261.87C28.89 261.86 28.88 261.86 28.87 261.85L28.91 261.97L28.91 261.87Z" />
											<path id="Path 4053" fill-rule="evenodd" class="shp0" d="M36.02 266.28L34.4 265.36L32.79 264.42L32.75 264.4L32.75 264.29L32.74 256.72L32.76 249.17L32.77 241.62L32.76 234.05L32.76 233.97L32.79 233.98L36.02 235.87L36.07 235.9L36.07 236.05C36.08 241.09 36.08 246.14 36.07 251.17C36.05 256.2 36.05 261.24 36.02 266.26L36.02 266.28ZM36.01 266.24C35.98 261.18 35.98 256.15 35.96 251.1C35.96 246.11 35.96 241.12 35.97 236.13L32.82 234.18L32.81 241.64L32.83 249.21L32.84 256.78L32.83 264.23L34.4 265.21L36.01 266.24ZM35.97 236.13L36.02 236.17L35.97 235.99C35.97 236.04 35.97 236.08 35.97 236.13ZM32.82 234.18L32.82 234.09L32.79 234.16L32.82 234.18ZM32.83 264.23L32.79 264.21L32.83 264.33L32.83 264.23Z" />
										</g>
										<g id="Group 854">
											<path id="Path 4054" fill-rule="evenodd" class="shp0" d="M23.57 290.51C22.65 290 21.73 289.47 20.81 288.92L20.77 288.9L20.77 288.8L20.75 281.23L20.77 273.68L20.79 266.13L20.77 258.56L20.77 258.47L20.81 258.49L23.57 260.1L23.62 260.13L23.62 260.28C23.63 265.32 23.63 270.37 23.63 275.4C23.61 280.43 23.61 285.47 23.57 290.49L23.57 290.51L23.57 290.51ZM23.57 290.47C23.53 285.41 23.53 280.38 23.52 275.33C23.51 270.34 23.51 265.35 23.52 260.36L20.84 258.69L20.82 266.15L20.84 273.72L20.86 281.29L20.84 288.74C21.74 289.3 22.66 289.87 23.57 290.47ZM23.52 260.36L23.57 260.39L23.52 260.21C23.52 260.26 23.52 260.31 23.52 260.36ZM20.84 258.69L20.84 258.6L20.81 258.67L20.84 258.69ZM20.84 288.74C20.83 288.73 20.82 288.73 20.81 288.72L20.84 288.84L20.84 288.74Z" />
											<path id="Path 4055" fill-rule="evenodd" class="shp0" d="M27.95 293.15L26.33 292.23L24.72 291.29L24.68 291.27L24.68 291.16L24.67 283.59L24.69 276.04L24.7 268.49L24.69 260.92L24.69 260.83L24.72 260.85L27.95 262.74L28 262.77L28 262.92C28.01 267.96 28.01 273.01 28 278.04C27.99 283.07 27.99 288.11 27.95 293.14L27.95 293.15ZM27.95 293.11C27.91 288.06 27.91 283.02 27.89 277.97C27.89 272.98 27.89 267.99 27.9 263.01L24.76 261.05L24.74 268.52L24.76 276.08L24.77 283.65L24.76 291.11L26.33 292.08L27.95 293.11ZM27.9 263.01L27.95 263.04L27.9 262.86C27.9 262.91 27.9 262.96 27.9 263.01ZM24.76 261.05L24.76 260.96L24.72 261.03L24.76 261.05ZM24.76 291.11L24.72 291.08L24.76 291.2L24.76 291.11Z" />
											<path id="Path 4056" fill-rule="evenodd" class="shp0" d="M31.64 295.37C30.71 294.86 29.79 294.33 28.87 293.79L28.84 293.76L28.84 293.66L28.82 286.09L28.84 278.54L28.85 271L28.84 263.42L28.84 263.34L28.87 263.35L31.64 264.96L31.69 265L31.69 265.14C31.7 270.19 31.7 275.23 31.69 280.27C31.67 285.29 31.67 290.34 31.64 295.36L31.64 295.37L31.64 295.37ZM31.63 295.33C31.6 290.28 31.6 285.24 31.58 280.2C31.57 275.2 31.58 270.21 31.59 265.22L28.9 263.55L28.89 271.02L28.91 278.58L28.92 286.16L28.91 293.61C29.82 294.16 30.72 294.74 31.63 295.33ZM31.59 265.22L31.64 265.26L31.59 265.08C31.59 265.13 31.59 265.18 31.59 265.22ZM28.9 263.55L28.9 263.46L28.87 263.53L28.9 263.55ZM28.91 293.61C28.89 293.6 28.88 293.59 28.87 293.58L28.91 293.71L28.91 293.61Z" />
											<path id="Path 4057" fill-rule="evenodd" class="shp0" d="M36.02 298.01L34.4 297.1L32.79 296.15L32.75 296.13L32.75 296.02L32.74 288.46L32.76 280.91L32.77 273.36L32.76 265.79L32.76 265.7L32.79 265.72L36.02 267.6L36.07 267.63L36.07 267.78C36.08 272.83 36.08 277.87 36.07 282.91C36.05 287.94 36.05 292.98 36.02 298L36.02 298.01ZM36.01 297.97C35.98 292.92 35.97 287.88 35.96 282.84C35.95 277.84 35.96 272.85 35.96 267.87L32.82 265.91L32.81 273.38L32.82 280.95L32.84 288.52L32.83 295.96L34.4 296.94L36.01 297.97ZM35.96 267.87L36.02 267.9L35.96 267.72C35.96 267.77 35.96 267.82 35.96 267.87ZM32.82 265.91L32.82 265.83L32.79 265.89L32.82 265.91ZM32.83 295.96L32.79 295.94L32.83 296.07L32.83 295.96Z" />
										</g>
										<g id="Group 855">
											<path id="Path 4058" fill-rule="evenodd" class="shp0" d="M23.57 322.24C22.65 321.73 21.72 321.2 20.8 320.66L20.77 320.64L20.77 320.53L20.75 312.96L20.77 305.41L20.79 297.86L20.77 290.29L20.77 290.21L20.81 290.23L23.57 291.84L23.62 291.87L23.62 292.02C23.63 297.06 23.63 302.1 23.63 307.14C23.61 312.17 23.61 317.2 23.57 322.23L23.57 322.24L23.57 322.24ZM23.57 322.21C23.53 317.15 23.53 312.11 23.51 307.07C23.51 302.07 23.51 297.08 23.52 292.09L20.83 290.42L20.82 297.89L20.84 305.46L20.85 313.03L20.84 320.48C21.75 321.03 22.66 321.61 23.57 322.21ZM23.52 292.09L23.57 292.13L23.52 291.95C23.52 292 23.52 292.04 23.52 292.09ZM20.83 290.42L20.83 290.34L20.81 290.4L20.83 290.42ZM20.84 320.48C20.83 320.47 20.82 320.46 20.8 320.45L20.84 320.58L20.84 320.48Z" />
											<path id="Path 4059" fill-rule="evenodd" class="shp0" d="M27.95 324.88L26.33 323.97L24.72 323.03L24.68 323L24.68 322.9L24.67 315.33L24.69 307.78L24.7 300.23L24.69 292.66L24.69 292.57L24.72 292.59L27.95 294.47L28 294.51L28 294.66C28.01 299.7 28.01 304.74 28 309.78C27.99 314.81 27.98 319.84 27.95 324.87L27.95 324.88ZM27.94 324.84C27.91 319.79 27.91 314.75 27.89 309.71C27.89 304.71 27.89 299.73 27.9 294.74L24.75 292.79L24.74 300.25L24.76 307.82L24.77 315.39L24.76 322.84L26.33 323.81L27.94 324.84ZM27.9 294.74L27.95 294.77L27.9 294.59C27.9 294.64 27.9 294.69 27.9 294.74ZM24.75 292.79L24.75 292.7L24.72 292.77L24.75 292.79ZM24.76 322.84L24.72 322.82L24.76 322.95L24.76 322.84Z" />
											<path id="Path 4060" fill-rule="evenodd" class="shp0" d="M31.63 327.1C30.71 326.59 29.79 326.07 28.87 325.52L28.84 325.5L28.84 325.4L28.81 317.83L28.84 310.28L28.85 302.73L28.84 295.16L28.84 295.07L28.87 295.09L31.64 296.7L31.69 296.73L31.69 296.88C31.7 301.92 31.7 306.96 31.69 312C31.67 317.03 31.67 322.07 31.64 327.09L31.64 327.11L31.63 327.1ZM31.63 327.07C31.6 322.01 31.6 316.98 31.58 311.93C31.57 306.94 31.58 301.94 31.58 296.96L28.9 295.29L28.89 302.75L28.91 310.32L28.92 317.89L28.91 325.34C29.81 325.9 30.72 326.47 31.63 327.07ZM31.58 296.96L31.64 296.99L31.59 296.82C31.59 296.86 31.59 296.91 31.58 296.96ZM28.9 295.29L28.9 295.2L28.87 295.27L28.9 295.29ZM28.91 325.34C28.89 325.34 28.88 325.33 28.87 325.32L28.91 325.44L28.91 325.34Z" />
											<path id="Path 4061" fill-rule="evenodd" class="shp0" d="M36.02 329.75L34.4 328.84L32.79 327.89L32.75 327.87L32.75 327.76L32.74 320.19L32.75 312.64L32.77 305.09L32.76 297.52L32.76 297.44L32.79 297.45L36.02 299.34L36.07 299.37L36.07 299.52C36.08 304.57 36.08 309.6 36.07 314.64C36.05 319.67 36.05 324.71 36.02 329.73L36.02 329.75ZM36.01 329.71C35.97 324.65 35.97 319.62 35.96 314.57C35.95 309.58 35.95 304.59 35.96 299.6L32.82 297.65L32.8 305.11L32.82 312.68L32.84 320.25L32.83 327.7L34.4 328.68L36.01 329.71ZM35.96 299.6L36.02 299.63L35.96 299.45C35.96 299.5 35.96 299.55 35.96 299.6ZM32.82 297.65L32.82 297.56L32.79 297.63L32.82 297.65ZM32.83 327.7L32.79 327.68L32.83 327.81L32.83 327.7Z" />
										</g>
									</g>
									<g id="Group 857">
										<path id="Path 4062" class="shp0" d="M9.12 91.87L1.52 87.29L1.52 84.82L9.12 89.4L9.12 91.87Z" />
									</g>
									<g id="Group 858">
										<path id="Path 4063" class="shp0" d="M57.19 120.54L49.6 115.97L49.6 114.11L57.19 118.69L57.19 120.54Z" />
									</g>
									<g id="Group 859">
										<path id="Path 4064" class="shp0" d="M10.38 192.87L1.1 187.27L1.1 181.24L10.38 186.84L10.38 192.87Z" />
									</g>
									<g id="Group 860">
										<path id="Path 4065" class="shp0" d="M56.76 220.63L49.17 216.05L49.17 210.01L56.76 214.59L56.76 220.63Z" />
									</g>
									<g id="Group 861">
										<path id="Path 4066" class="shp0" d="M10.37 289.11L1.1 283.51L1.1 277.48L10.37 283.07L10.37 289.11Z" />
									</g>
									<g id="Group 862">
										<path id="Path 4067" class="shp0" d="M56.75 316.87L49.17 312.29L49.17 306.25L56.75 310.83L56.75 316.87Z" />
									</g>
								</g>
								<g id="Group 889">
									<g id="Group 864">
										<path id="Path 4068" class="shp0" d="M113.8 62.47L113.81 330.09L58.53 363.42L58.52 83.98L60.99 82.49C60.83 82.49 60.68 82.5 60.5 82.5C60.34 82.49 60.18 82.47 60.02 82.46L58.02 83.66L58.03 364.34L114.31 330.41L114.3 62.35C114.14 62.39 113.96 62.43 113.8 62.47Z" />
									</g>
									<g id="Group 865">
										<path id="Path 4069" fill-rule="evenodd" class="shp0" d="M57.58 342.98L113.42 309.31L113.42 326.62L57.58 360.29L57.58 342.98ZM112.92 310.23L58.09 343.29L58.09 359.36L112.92 326.3L112.92 310.23Z" />
									</g>
									<g id="Group 866">
										<path id="Path 4070" fill-rule="evenodd" class="shp0" d="M100.42 317.14L107.17 313.07L107.17 329.15L100.42 333.22L100.42 317.14ZM106.67 314L100.92 317.46L100.92 332.29L106.67 328.84L106.67 314Z" />
									</g>
									<g id="Group 867">
										<path id="Path 4071" fill-rule="evenodd" class="shp0" d="M87.03 325.83L95.12 320.96L95.13 337.03L87.03 341.91L87.03 325.83ZM94.62 321.88L87.54 326.15L87.54 340.99L94.62 336.72L94.62 321.88Z" />
									</g>
									<g id="Group 868">
										<path id="Path 4072" fill-rule="evenodd" class="shp0" d="M78.11 331.22L84.41 327.42L84.42 343.49L78.11 347.29L78.11 331.22ZM83.91 328.34L78.61 331.53L78.61 346.37L83.91 343.18L83.91 328.34Z" />
									</g>
									<g id="Group 869">
										<path id="Path 4073" fill-rule="evenodd" class="shp0" d="M67.4 338.29L74.15 334.22L74.15 349.68L67.4 353.75L67.4 338.29ZM73.65 335.14L67.9 338.6L67.91 352.82L73.65 349.36L73.65 335.14Z" />
									</g>
									<g id="Group 870">
										<path id="Path 4074" fill-rule="evenodd" class="shp0" d="M59.81 341.63L63.89 339.17L63.89 356.49L59.81 358.94L59.81 341.63ZM63.38 340.09L60.32 341.94L60.32 358.02L63.39 356.17L63.38 340.09Z" />
									</g>
									<g id="Group 871">
										<path id="Path 4075" fill-rule="evenodd" class="shp0" d="M57.13 359.94L113.42 326L113.42 330.95L57.13 364.88L57.13 359.94ZM112.92 326.92L57.64 360.25L57.64 363.96L112.92 330.63L112.92 326.92Z" />
									</g>
									<g id="Group 872">
										<path id="Path 4076" class="shp0" d="M105.08 65.49C104.95 65.54 104.82 65.6 104.69 65.65L104.7 315.18L95.12 320.96L95.11 69.44C94.94 69.51 94.78 69.59 94.61 69.66L94.62 321.88L105.2 315.5L105.19 65.45C105.16 65.46 105.12 65.47 105.08 65.49Z" />
									</g>
									<g id="Group 873">
										<path id="Path 4077" class="shp0" d="M78.29 136.82C78.26 126.1 78.31 115.32 78.33 104.57L78.39 75.57C78.21 75.62 78.03 75.68 77.85 75.73L77.92 104.81C77.94 115.55 78 126.26 77.96 137.02C77.95 158.51 77.81 180.08 77.73 201.61L77.68 233.87L77.72 266.07L77.75 282.16L77.81 298.24C77.86 308.9 77.9 319.55 77.98 330.19L66.55 337.2L66.74 304.92L66.85 272.62C66.91 251.1 67.02 229.55 67.01 208.08L67.03 175.84L66.98 143.64L66.81 79.68L67.19 79.45C66.86 79.6 66.52 79.73 66.16 79.85L66 144.23L65.95 176.48L65.97 208.7C65.96 230.2 66.07 251.61 66.14 273.05L66.25 305.21L66.45 337.38L78.13 330.46L78.28 330.36L78.28 330.19C78.37 319.39 78.41 308.63 78.45 297.86L78.51 281.71L78.54 265.58L78.58 233.32L78.52 201.13C78.45 179.69 78.31 158.3 78.29 136.82Z" />
									</g>
									<g id="Group 882">
										<g id="Group 874">
											<path id="Path 4078" class="shp0" d="M94.27 75.24L94.28 69.8C94.26 69.81 94.24 69.82 94.23 69.83L94.24 75.26L94.22 82.83L94.2 90.41L94.22 97.86C93.31 98.41 92.41 98.99 91.49 99.58C91.53 94.53 91.53 89.49 91.55 84.45C91.55 79.95 91.55 75.45 91.54 70.96C91.51 70.97 91.47 70.98 91.43 70.99C91.43 75.51 91.43 80.02 91.43 84.52C91.45 89.55 91.45 94.58 91.48 99.61L91.48 99.62L91.49 99.61C92.41 99.11 93.33 98.58 94.26 98.03L94.29 98.01L94.29 97.91L94.31 90.34L94.27 75.24Z" />
											<path id="Path 4079" class="shp0" d="M90.35 77.61L90.36 71.42L90.31 71.44L90.32 77.63L90.29 92.77L90.3 100.21L88.73 101.19L87.12 102.22C87.15 97.17 87.15 92.13 87.17 87.09C87.17 82.25 87.17 77.42 87.16 72.6C87.13 72.61 87.09 72.62 87.06 72.64C87.05 77.48 87.05 82.32 87.05 87.16C87.07 92.19 87.07 97.22 87.1 102.25L87.1 102.26L88.73 101.35L90.34 100.4L90.38 100.38L90.38 100.27L90.39 92.71L90.37 85.15L90.35 77.61Z" />
											<path id="Path 4080" class="shp0" d="M86.21 80.11L86.22 72.95L86.16 72.97L86.17 80.13L86.15 87.7L86.14 95.27L86.15 102.72C85.24 103.28 84.34 103.85 83.43 104.45C83.46 99.39 83.46 94.36 83.48 89.31C83.48 84.31 83.48 79.33 83.47 74.34L84.93 73.43C84.56 73.57 84.19 73.71 83.82 73.85L83.42 74.08L83.37 74.11L83.37 74.26C83.36 79.3 83.36 84.34 83.36 89.38C83.39 94.41 83.39 99.45 83.42 104.47L83.42 104.49L83.43 104.48C84.35 103.97 85.27 103.44 86.19 102.9L86.22 102.88L86.22 102.78L86.24 95.21L86.22 87.66L86.21 80.11Z" />
											<path id="Path 4081" fill-rule="evenodd" class="shp0" d="M79.04 107.11C79.01 102.09 79 97.05 78.99 92.02C78.98 86.98 78.98 81.94 78.99 76.9L78.99 76.75L79.04 76.72L82.27 74.83L82.3 74.81L82.3 74.9L82.29 82.47L82.31 90.02L82.32 97.57L82.31 105.14L82.31 105.25L82.27 105.26L80.66 106.21L79.04 107.13L79.04 107.11ZM80.66 106.06L82.23 105.08L82.22 97.63L82.24 90.06L82.25 82.49L82.24 75.02L79.1 76.98C79.11 81.97 79.11 86.96 79.1 91.95C79.08 97 79.08 102.03 79.05 107.09L80.66 106.06ZM82.23 105.08L82.23 105.18L82.27 105.06L82.23 105.08ZM82.24 75.02L82.27 75.01L82.24 74.94L82.24 75.02ZM79.1 76.98C79.1 76.93 79.1 76.88 79.1 76.83L79.04 77.01L79.1 76.98Z" />
										</g>
										<g id="Group 875">
											<path id="Path 4082" fill-rule="evenodd" class="shp0" d="M91.48 131.36L91.48 131.34C91.45 126.32 91.45 121.28 91.43 116.25C91.43 111.21 91.43 106.17 91.43 101.13L91.43 100.98L91.49 100.95L94.26 99.34L94.29 99.32L94.29 99.41L94.27 106.98L94.29 114.53L94.31 122.08L94.29 129.65L94.29 129.74L94.26 129.77C93.33 130.32 92.42 130.84 91.49 131.35L91.48 131.36ZM94.22 129.59L94.22 129.69L94.26 129.57C94.25 129.58 94.23 129.58 94.22 129.59ZM94.2 122.14L94.22 114.57L94.24 107L94.22 99.54L91.54 101.21C91.55 106.19 91.55 111.19 91.55 116.18C91.53 121.23 91.53 126.26 91.5 131.32C92.41 130.72 93.31 130.15 94.22 129.59L94.2 122.14ZM94.22 99.54L94.26 99.52L94.22 99.44L94.22 99.54ZM91.54 101.21C91.54 101.16 91.54 101.11 91.54 101.06L91.49 101.24L91.54 101.21Z" />
											<path id="Path 4083" fill-rule="evenodd" class="shp0" d="M87.11 133.98C87.07 128.96 87.07 123.92 87.06 118.89C87.05 113.85 87.05 108.81 87.06 103.77L87.06 103.62L87.11 103.58L90.34 101.7L90.37 101.68L90.37 101.77L90.36 109.34L90.37 116.89L90.39 124.44L90.38 132.01L90.38 132.11L90.34 132.14L88.73 133.08L87.11 134L87.11 133.98ZM88.73 132.93L90.3 131.95L90.29 124.5L90.3 116.93L90.32 109.36L90.31 101.89L87.16 103.86C87.17 108.84 87.17 113.83 87.17 118.82C87.15 123.87 87.15 128.91 87.12 133.96L88.73 132.93ZM90.3 131.95L90.3 132.05L90.34 131.92L90.3 131.95ZM90.31 101.89L90.34 101.88L90.31 101.81L90.31 101.89ZM87.16 103.86C87.16 103.8 87.16 103.75 87.16 103.7L87.11 103.89L87.16 103.86Z" />
											<path id="Path 4084" fill-rule="evenodd" class="shp0" d="M83.42 136.22L83.42 136.2C83.39 131.18 83.39 126.14 83.37 121.11C83.36 116.08 83.36 111.03 83.37 105.99L83.37 105.84L83.43 105.81L86.19 104.2L86.22 104.18L86.22 104.27L86.21 111.84L86.24 126.94L86.22 134.51L86.22 134.61L86.19 134.63C85.27 135.18 84.35 135.71 83.43 136.21L83.42 136.22ZM86.15 134.46L86.15 134.55L86.19 134.43C86.18 134.44 86.17 134.45 86.15 134.46ZM86.14 127L86.15 119.44L86.17 111.87L86.16 104.4L83.47 106.08C83.48 111.06 83.49 116.05 83.48 121.04C83.46 126.09 83.46 131.13 83.43 136.18C84.34 135.59 85.25 135.01 86.15 134.46L86.14 127ZM86.16 104.4L86.19 104.38L86.16 104.31L86.16 104.4ZM83.47 106.08C83.47 106.03 83.47 105.98 83.47 105.93L83.43 106.11L83.47 106.08Z" />
											<path id="Path 4085" fill-rule="evenodd" class="shp0" d="M79.04 138.84C79.01 133.82 79.01 128.78 78.99 123.75C78.98 118.72 78.98 113.68 78.99 108.63L78.99 108.48L79.04 108.45L82.27 106.57L82.3 106.55L82.3 106.64L82.29 114.2L82.31 121.75L82.32 129.3L82.31 136.88L82.31 136.98L82.27 137L80.66 137.95L79.04 138.86L79.04 138.84ZM80.66 137.79L82.24 136.81L82.22 129.36L82.24 121.8L82.25 114.22L82.24 106.76L79.1 108.72C79.11 113.7 79.11 118.69 79.1 123.69C79.08 128.73 79.08 133.77 79.05 138.82L80.66 137.79ZM82.24 136.81L82.24 136.92L82.27 136.79L82.24 136.81ZM82.24 106.76L82.27 106.74L82.24 106.67L82.24 106.76ZM79.1 108.72C79.1 108.67 79.1 108.62 79.1 108.57L79.04 108.75L79.1 108.72Z" />
										</g>
										<g id="Group 876">
											<path id="Path 4086" fill-rule="evenodd" class="shp0" d="M91.49 163.09L91.49 163.08C91.45 158.05 91.45 153.01 91.43 147.99C91.43 142.95 91.43 137.91 91.44 132.86L91.44 132.71L91.49 132.69L94.26 131.07L94.29 131.06L94.29 131.14L94.28 138.71L94.29 146.26L94.31 153.81L94.29 161.38L94.29 161.48L94.26 161.5C93.34 162.05 92.42 162.58 91.49 163.09L91.49 163.09ZM94.22 161.33L94.22 161.42L94.26 161.31C94.25 161.31 94.23 161.32 94.22 161.33ZM94.21 153.88L94.22 146.3L94.24 138.73L94.23 131.27L91.54 132.95C91.55 137.93 91.55 142.92 91.55 147.91C91.53 152.96 91.53 158 91.5 163.05C92.41 162.46 93.31 161.88 94.22 161.33L94.21 153.88ZM94.23 131.27L94.26 131.25L94.23 131.18L94.23 131.27ZM91.54 132.95C91.54 132.9 91.54 132.85 91.54 132.8L91.49 132.98L91.54 132.95Z" />
											<path id="Path 4087" fill-rule="evenodd" class="shp0" d="M87.11 165.71C87.07 160.69 87.07 155.66 87.06 150.63C87.05 145.59 87.05 140.55 87.06 135.5L87.06 135.35L87.11 135.32L90.34 133.44L90.37 133.42L90.37 133.51L90.36 141.07L90.38 148.63L90.39 156.17L90.38 163.74L90.38 163.85L90.34 163.87L88.73 164.82L87.11 165.73L87.11 165.71ZM88.73 164.66L90.3 163.69L90.29 156.24L90.31 148.67L90.32 141.1L90.31 133.63L87.16 135.59C87.17 140.57 87.17 145.56 87.17 150.56C87.15 155.6 87.15 160.64 87.12 165.69L88.73 164.66ZM90.3 163.69L90.3 163.79L90.34 163.66L90.3 163.69ZM90.31 133.63L90.34 133.61L90.31 133.54L90.31 133.63ZM87.16 135.59C87.16 135.54 87.16 135.49 87.16 135.44L87.11 135.62L87.16 135.59Z" />
											<path id="Path 4088" fill-rule="evenodd" class="shp0" d="M83.42 167.95L83.42 167.94C83.39 162.92 83.39 157.88 83.37 152.85C83.36 147.81 83.36 142.77 83.37 137.73L83.37 137.58L83.43 137.55L86.19 135.94L86.22 135.92L86.22 136.01L86.21 143.57L86.22 151.12L86.24 158.68L86.22 166.25L86.22 166.35L86.19 166.37C85.27 166.92 84.35 167.44 83.43 167.95L83.42 167.95ZM86.16 166.19L86.16 166.29L86.19 166.17C86.18 166.18 86.17 166.18 86.16 166.19ZM86.14 158.74L86.15 151.17L86.17 143.6L86.16 136.13L83.47 137.81C83.49 142.8 83.49 147.79 83.48 152.78C83.47 157.82 83.46 162.86 83.43 167.91C84.34 167.32 85.25 166.74 86.16 166.19L86.14 158.74ZM86.16 136.13L86.19 136.11L86.16 136.05L86.16 136.13ZM83.47 137.81C83.47 137.76 83.47 137.71 83.47 137.66L83.43 137.84L83.47 137.81Z" />
											<path id="Path 4089" fill-rule="evenodd" class="shp0" d="M79.04 170.58C79.01 165.56 79.01 160.52 78.99 155.49C78.98 150.45 78.98 145.41 78.99 140.37L78.99 140.22L79.04 140.19L82.27 138.3L82.31 138.28L82.3 138.37L82.29 145.94L82.31 153.49L82.32 161.04L82.31 168.61L82.31 168.72L82.27 168.74L80.66 169.68L79.04 170.6L79.04 170.58ZM80.66 169.53L82.24 168.55L82.22 161.1L82.24 153.53L82.25 145.96L82.24 138.5L79.1 140.45C79.11 145.44 79.11 150.43 79.1 155.42C79.08 160.47 79.08 165.5 79.05 170.55L80.66 169.53ZM82.24 168.55L82.24 168.65L82.27 168.53L82.24 168.55ZM82.24 138.5L82.27 138.48L82.24 138.41L82.24 138.5ZM79.1 140.45C79.1 140.4 79.1 140.35 79.1 140.3L79.04 140.48L79.1 140.45Z" />
										</g>
										<g id="Group 877">
											<path id="Path 4090" fill-rule="evenodd" class="shp0" d="M91.49 194.83L91.49 194.81C91.45 189.79 91.45 184.75 91.43 179.72C91.43 174.68 91.43 169.64 91.44 164.6L91.44 164.45L91.49 164.42L94.26 162.81L94.29 162.79L94.29 162.88L94.28 170.45L94.29 178L94.31 185.55L94.29 193.12L94.29 193.22L94.26 193.24C93.34 193.79 92.42 194.32 91.49 194.82L91.49 194.83ZM94.22 193.06L94.22 193.16L94.26 193.04C94.25 193.05 94.24 193.06 94.22 193.06ZM94.21 185.61L94.22 178.04L94.24 170.47L94.23 163.01L91.55 164.68C91.55 169.67 91.55 174.65 91.55 179.65C91.53 184.7 91.53 189.73 91.5 194.79C92.41 194.19 93.31 193.62 94.22 193.06L94.21 185.61ZM94.23 163.01L94.26 162.99L94.23 162.92L94.23 163.01ZM91.55 164.68C91.55 164.63 91.55 164.58 91.55 164.53L91.49 164.71L91.55 164.68Z" />
											<path id="Path 4091" fill-rule="evenodd" class="shp0" d="M87.11 197.45C87.08 192.43 87.07 187.39 87.06 182.36C87.05 177.32 87.05 172.28 87.06 167.24L87.06 167.09L87.11 167.06L90.34 165.17L90.37 165.15L90.37 165.24L90.36 172.81L90.38 180.36L90.39 187.91L90.38 195.48L90.38 195.58L90.34 195.61L88.73 196.55L87.11 197.47L87.11 197.45ZM88.73 196.4L90.3 195.42L90.29 187.97L90.31 180.4L90.32 172.83L90.31 165.37L87.17 167.32C87.17 172.31 87.17 177.3 87.17 182.29C87.15 187.34 87.15 192.37 87.12 197.42L88.73 196.4ZM90.3 195.42L90.3 195.53L90.34 195.39L90.3 195.42ZM90.31 165.37L90.34 165.35L90.31 165.28L90.31 165.37ZM87.17 167.32C87.17 167.27 87.17 167.22 87.17 167.18L87.11 167.36L87.17 167.32Z" />
											<path id="Path 4092" fill-rule="evenodd" class="shp0" d="M83.42 199.69L83.42 199.67C83.39 194.65 83.39 189.61 83.37 184.58C83.36 179.55 83.36 174.51 83.37 169.46L83.37 169.32L83.43 169.29L86.19 167.67L86.22 167.65L86.22 167.75L86.21 175.31L86.22 182.86L86.24 190.41L86.23 197.98L86.22 198.08L86.19 198.1C85.27 198.65 84.35 199.18 83.43 199.69L83.42 199.69ZM86.16 197.92L86.16 198.02L86.19 197.9C86.18 197.91 86.17 197.92 86.16 197.92ZM86.14 190.48L86.16 182.9L86.17 175.33L86.16 167.87L83.48 169.54C83.49 174.53 83.49 179.52 83.48 184.52C83.47 189.56 83.47 194.6 83.43 199.65C84.34 199.06 85.25 198.48 86.16 197.92L86.14 190.48ZM86.16 167.87L86.19 167.85L86.16 167.78L86.16 167.87ZM83.48 169.54C83.48 169.5 83.48 169.45 83.48 169.4L83.43 169.58L83.48 169.54Z" />
											<path id="Path 4093" fill-rule="evenodd" class="shp0" d="M79.04 202.32C79.01 197.3 79.01 192.26 78.99 187.22C78.98 182.19 78.99 177.15 79 172.1L79 171.95L79.05 171.92L82.27 170.04L82.31 170.02L82.31 170.1L82.29 177.67L82.31 185.23L82.32 192.77L82.32 200.34L82.32 200.45L82.27 200.47L80.66 201.42L79.04 202.33L79.04 202.32ZM80.66 201.26L82.24 200.28L82.23 192.83L82.24 185.26L82.26 177.69L82.24 170.23L79.1 172.18C79.11 177.17 79.11 182.16 79.1 187.16C79.09 192.2 79.08 197.24 79.06 202.29L80.66 201.26ZM82.24 200.28L82.24 200.39L82.27 200.26L82.24 200.28ZM82.24 170.23L82.27 170.21L82.24 170.14L82.24 170.23ZM79.1 172.18C79.1 172.14 79.1 172.09 79.1 172.04L79.05 172.22L79.1 172.18Z" />
										</g>
										<g id="Group 878">
											<path id="Path 4094" fill-rule="evenodd" class="shp0" d="M91.49 226.56L91.49 226.55C91.46 221.52 91.45 216.49 91.43 211.46C91.43 206.42 91.43 201.38 91.44 196.33L91.44 196.18L91.49 196.16L94.26 194.54L94.29 194.52L94.29 194.61L94.28 202.18L94.29 209.73L94.31 217.28L94.3 224.85L94.3 224.95L94.26 224.97C93.34 225.52 92.42 226.05 91.49 226.55L91.49 226.56ZM94.23 224.79L94.23 224.9L94.26 224.78C94.25 224.78 94.24 224.79 94.23 224.79ZM94.21 217.34L94.23 209.78L94.24 202.2L94.23 194.74L91.55 196.41C91.55 201.4 91.56 206.39 91.55 211.39C91.53 216.43 91.53 221.47 91.5 226.52C92.41 225.93 93.32 225.35 94.23 224.79L94.21 217.34ZM94.23 194.74L94.26 194.72L94.23 194.65L94.23 194.74ZM91.55 196.41C91.55 196.37 91.55 196.32 91.55 196.27L91.49 196.45L91.55 196.41Z" />
											<path id="Path 4095" fill-rule="evenodd" class="shp0" d="M87.11 229.19C87.08 224.16 87.07 219.12 87.06 214.1C87.05 209.06 87.05 204.02 87.06 198.98L87.06 198.82L87.12 198.79L90.34 196.9L90.38 196.89L90.38 196.97L90.36 204.54L90.38 212.09L90.39 219.65L90.38 227.21L90.38 227.32L90.34 227.34L88.73 228.29L87.11 229.2L87.11 229.19ZM88.73 228.13L90.31 227.15L90.29 219.7L90.31 212.14L90.32 204.57L90.31 197.1L87.17 199.06C87.17 204.04 87.17 209.03 87.17 214.03C87.15 219.07 87.15 224.11 87.12 229.16L88.73 228.13ZM90.31 227.15L90.31 227.26L90.34 227.13L90.31 227.15ZM90.31 197.1L90.34 197.08L90.31 197.02L90.31 197.1ZM87.17 199.06C87.17 199.01 87.17 198.96 87.17 198.91L87.12 199.09L87.17 199.06Z" />
											<path id="Path 4096" fill-rule="evenodd" class="shp0" d="M83.42 231.42L83.42 231.41C83.39 226.39 83.39 221.35 83.37 216.32C83.36 211.28 83.37 206.24 83.38 201.19L83.38 201.05L83.43 201.02L86.19 199.41L86.22 199.39L86.22 199.47L86.21 207.05L86.23 214.6L86.24 222.15L86.23 229.72L86.23 229.82L86.19 229.84C85.27 230.39 84.35 230.91 83.43 231.42L83.42 231.42ZM86.16 229.66L86.16 229.76L86.19 229.64C86.18 229.64 86.17 229.65 86.16 229.66ZM86.14 222.21L86.16 214.64L86.18 207.07L86.16 199.6L83.48 201.28C83.49 206.26 83.49 211.25 83.48 216.25C83.47 221.3 83.47 226.33 83.43 231.39C84.34 230.79 85.25 230.22 86.16 229.66L86.14 222.21ZM86.16 199.6L86.19 199.58L86.16 199.52L86.16 199.6ZM83.48 201.28C83.48 201.23 83.48 201.18 83.48 201.13L83.43 201.31L83.48 201.28Z" />
											<path id="Path 4097" fill-rule="evenodd" class="shp0" d="M79.04 234.05C79.01 229.02 79.01 223.99 79 218.96C78.99 213.92 78.99 208.88 79 203.84L79 203.69L79.05 203.66L82.27 201.77L82.31 201.75L82.31 201.84L82.29 209.41L82.31 216.96L82.33 224.51L82.32 232.08L82.32 232.18L82.28 232.21L80.66 233.15L79.04 234.07L79.04 234.05ZM80.66 232.99L82.24 232.02L82.23 224.57L82.24 217L82.26 209.43L82.24 201.96L79.1 203.92C79.11 208.91 79.11 213.9 79.11 218.89C79.09 223.94 79.09 228.97 79.06 234.03L80.66 232.99ZM82.24 232.02L82.24 232.13L82.28 231.99L82.24 232.02ZM82.24 201.96L82.27 201.95L82.24 201.88L82.24 201.96ZM79.1 203.92C79.1 203.87 79.1 203.82 79.1 203.77L79.05 203.95L79.1 203.92Z" />
										</g>
										<g id="Group 879">
											<path id="Path 4098" fill-rule="evenodd" class="shp0" d="M91.49 258.3L91.49 258.28C91.46 253.26 91.46 248.22 91.43 243.19C91.43 238.15 91.43 233.11 91.44 228.07L91.44 227.92L91.49 227.89L94.26 226.28L94.29 226.26L94.29 226.35L94.28 233.92L94.3 241.47L94.31 249.02L94.3 256.59L94.3 256.69L94.26 256.71C93.34 257.26 92.42 257.78 91.5 258.29L91.49 258.3ZM94.23 256.53L94.23 256.63L94.26 256.51C94.25 256.52 94.24 256.52 94.23 256.53ZM94.21 249.08L94.23 241.51L94.24 233.94L94.23 226.47L91.55 228.15C91.55 233.13 91.56 238.12 91.55 243.12C91.54 248.17 91.53 253.2 91.5 258.26C92.41 257.66 93.32 257.09 94.23 256.53L94.21 249.08ZM94.23 226.47L94.26 226.45L94.23 226.39L94.23 226.47ZM91.55 228.15C91.55 228.1 91.55 228.05 91.55 228L91.49 228.18L91.55 228.15Z" />
											<path id="Path 4099" fill-rule="evenodd" class="shp0" d="M87.11 260.92C87.08 255.9 87.08 250.86 87.06 245.83C87.05 240.79 87.06 235.75 87.06 230.71L87.06 230.56L87.12 230.53L90.34 228.64L90.38 228.62L90.38 228.71L90.36 236.28L90.38 243.83L90.39 251.38L90.38 258.95L90.38 259.05L90.35 259.08L88.73 260.03L87.11 260.94L87.11 260.92ZM88.73 259.87L90.31 258.89L90.29 251.44L90.31 243.87L90.33 236.3L90.31 228.83L87.17 230.79C87.17 235.77 87.18 240.77 87.17 245.76C87.16 250.81 87.15 255.84 87.12 260.9L88.73 259.87ZM90.31 258.89L90.31 258.99L90.35 258.87L90.31 258.89ZM90.31 228.83L90.34 228.82L90.31 228.75L90.31 228.83ZM87.17 230.79C87.17 230.74 87.17 230.69 87.17 230.64L87.12 230.82L87.17 230.79Z" />
											<path id="Path 4100" fill-rule="evenodd" class="shp0" d="M83.43 263.16L83.43 263.14C83.39 258.12 83.39 253.08 83.37 248.05C83.37 243.02 83.37 237.97 83.38 232.93L83.38 232.78L83.43 232.76L86.19 231.14L86.22 231.13L86.22 231.21L86.21 238.78L86.23 246.33L86.25 253.88L86.23 261.45L86.23 261.55L86.19 261.57C85.27 262.12 84.35 262.65 83.43 263.16L83.43 263.16ZM86.16 261.39L86.16 261.49L86.19 261.37C86.18 261.38 86.17 261.39 86.16 261.39ZM86.14 253.94L86.16 246.38L86.18 238.8L86.17 231.34L83.48 233.01C83.49 237.99 83.49 242.99 83.49 247.99C83.47 253.03 83.47 258.07 83.44 263.12C84.35 262.52 85.25 261.95 86.16 261.39L86.14 253.94ZM86.17 231.34L86.19 231.32L86.17 231.25L86.17 231.34ZM83.48 233.01C83.48 232.96 83.48 232.91 83.48 232.87L83.43 233.04L83.48 233.01Z" />
											<path id="Path 4101" fill-rule="evenodd" class="shp0" d="M79.04 265.78C79.01 260.76 79.01 255.72 79 250.69C78.99 245.66 78.99 240.62 79 235.57L79 235.42L79.05 235.39L82.28 233.51L82.31 233.49L82.31 233.58L82.29 241.14L82.31 248.7L82.33 256.25L82.32 263.81L82.32 263.92L82.28 263.94L80.67 264.89L79.04 265.8L79.04 265.78ZM80.67 264.73L82.24 263.75L82.23 256.31L82.24 248.73L82.26 241.16L82.24 233.7L79.1 235.66C79.11 240.64 79.11 245.63 79.11 250.63C79.09 255.67 79.09 260.71 79.06 265.76L80.67 264.73ZM82.24 263.75L82.24 263.86L82.28 263.73L82.24 263.75ZM82.24 233.7L82.28 233.68L82.24 233.61L82.24 233.7ZM79.1 235.66C79.1 235.61 79.1 235.56 79.1 235.51L79.05 235.69L79.1 235.66Z" />
										</g>
										<g id="Group 880">
											<path id="Path 4102" fill-rule="evenodd" class="shp0" d="M91.49 290.03L91.49 290.01C91.46 285 91.46 279.95 91.44 274.92C91.43 269.89 91.43 264.85 91.44 259.8L91.45 259.65L91.5 259.62L94.26 258.01L94.29 258L94.29 258.08L94.28 265.65L94.3 273.2L94.31 280.76L94.3 288.32L94.3 288.42L94.26 288.44C93.34 288.99 92.42 289.52 91.5 290.02L91.49 290.03ZM94.23 288.27L94.23 288.37L94.26 288.25C94.25 288.25 94.24 288.26 94.23 288.27ZM94.21 280.82L94.23 273.25L94.24 265.67L94.23 258.21L91.55 259.88C91.56 264.87 91.56 269.86 91.55 274.86C91.54 279.9 91.54 284.94 91.5 289.99C92.41 289.4 93.32 288.82 94.23 288.27L94.21 280.82ZM94.23 258.21L94.26 258.19L94.23 258.12L94.23 258.21ZM91.55 259.88C91.55 259.84 91.55 259.79 91.55 259.74L91.5 259.92L91.55 259.88Z" />
											<path id="Path 4103" fill-rule="evenodd" class="shp0" d="M87.11 292.65C87.08 287.63 87.08 282.59 87.06 277.57C87.06 272.53 87.06 267.49 87.07 262.44L87.07 262.29L87.12 262.27L90.35 260.38L90.38 260.36L90.38 260.45L90.36 268.01L90.38 275.57L90.39 283.11L90.38 290.69L90.38 290.79L90.35 290.81L88.74 291.76L87.11 292.67L87.11 292.65ZM88.74 291.6L90.31 290.63L90.29 283.18L90.31 275.6L90.33 268.04L90.31 260.57L87.17 262.53C87.18 267.51 87.18 272.5 87.17 277.5C87.16 282.54 87.16 287.58 87.12 292.63L88.74 291.6ZM90.31 290.63L90.31 290.73L90.35 290.6L90.31 290.63ZM90.31 260.57L90.35 260.55L90.31 260.49L90.31 260.57ZM87.17 262.53C87.17 262.48 87.17 262.43 87.17 262.38L87.12 262.56L87.17 262.53Z" />
											<path id="Path 4104" fill-rule="evenodd" class="shp0" d="M83.43 294.89L83.43 294.88C83.39 289.86 83.39 284.82 83.37 279.79C83.37 274.75 83.37 269.72 83.38 264.66L83.38 264.52L83.43 264.49L86.19 262.88L86.22 262.86L86.22 262.95L86.21 270.52L86.23 278.07L86.25 285.62L86.23 293.19L86.23 293.29L86.19 293.31C85.28 293.85 84.35 294.38 83.43 294.89L83.43 294.89ZM86.16 293.13L86.16 293.23L86.19 293.11C86.18 293.11 86.17 293.12 86.16 293.13ZM86.14 285.68L86.16 278.11L86.18 270.54L86.17 263.07L83.48 264.75C83.49 269.73 83.49 274.72 83.49 279.72C83.47 284.76 83.47 289.8 83.44 294.86C84.35 294.26 85.25 293.68 86.16 293.13L86.14 285.68ZM86.17 263.07L86.19 263.06L86.17 262.99L86.17 263.07ZM83.48 264.75C83.48 264.7 83.48 264.65 83.48 264.6L83.43 264.78L83.48 264.75Z" />
											<path id="Path 4105" fill-rule="evenodd" class="shp0" d="M79.05 297.52C79.02 292.5 79.01 287.46 79 282.43C78.99 277.39 78.99 272.35 79 267.31L79 267.15L79.05 267.12L82.28 265.24L82.31 265.22L82.31 265.31L82.29 272.88L82.32 280.43L82.33 287.98L82.32 295.55L82.32 295.66L82.28 295.68L80.67 296.62L79.05 297.53L79.05 297.52ZM80.67 296.47L82.24 295.49L82.23 288.04L82.24 280.47L82.26 272.9L82.25 265.43L79.11 267.39C79.11 272.38 79.11 277.37 79.11 282.36C79.09 287.41 79.09 292.44 79.06 297.49L80.67 296.47ZM82.24 295.49L82.24 295.59L82.28 295.47L82.24 295.49ZM82.25 265.43L82.28 265.42L82.25 265.35L82.25 265.43ZM79.11 267.39C79.11 267.34 79.11 267.29 79.11 267.24L79.05 267.42L79.11 267.39Z" />
										</g>
										<g id="Group 881">
											<path id="Path 4106" fill-rule="evenodd" class="shp0" d="M91.49 321.77L91.49 321.75C91.46 316.73 91.46 311.69 91.44 306.66C91.43 301.62 91.43 296.58 91.45 291.54L91.45 291.39L91.5 291.36L94.26 289.75L94.29 289.73L94.29 289.82L94.28 297.39L94.32 312.49L94.3 320.06L94.3 320.16L94.26 320.18C93.34 320.73 92.42 321.26 91.5 321.76L91.49 321.77ZM94.23 320L94.23 320.1L94.26 319.98C94.25 319.99 94.24 319.99 94.23 320ZM94.21 312.55L94.23 304.98L94.25 297.41L94.23 289.95L91.55 291.62C91.56 296.6 91.56 301.6 91.55 306.59C91.54 311.64 91.54 316.67 91.51 321.73C92.41 321.13 93.32 320.56 94.23 320L94.21 312.55ZM94.23 289.95L94.26 289.93L94.23 289.86L94.23 289.95ZM91.55 291.62C91.55 291.57 91.55 291.52 91.55 291.47L91.5 291.65L91.55 291.62Z" />
											<path id="Path 4107" fill-rule="evenodd" class="shp0" d="M87.11 324.39C87.08 319.37 87.08 314.33 87.06 309.3C87.06 304.26 87.06 299.22 87.07 294.18L87.07 294.03L87.12 294L90.35 292.11L90.38 292.09L90.38 292.18L90.36 299.75L90.38 307.3L90.4 314.85L90.38 322.42L90.38 322.53L90.35 322.55L88.74 323.49L87.11 324.41L87.11 324.39ZM88.74 323.33L90.31 322.36L90.29 314.91L90.31 307.34L90.33 299.77L90.31 292.31L87.17 294.26C87.18 299.24 87.18 304.24 87.17 309.23C87.16 314.27 87.16 319.31 87.13 324.36L88.74 323.33ZM90.31 322.36L90.31 322.46L90.35 322.33L90.31 322.36ZM90.31 292.31L90.35 292.29L90.31 292.22L90.31 292.31ZM87.17 294.26C87.17 294.21 87.17 294.16 87.17 294.11L87.12 294.29L87.17 294.26Z" />
											<path id="Path 4108" fill-rule="evenodd" class="shp0" d="M83.43 326.63L83.43 326.61C83.39 321.59 83.39 316.56 83.38 311.52C83.37 306.48 83.37 301.45 83.38 296.4L83.38 296.25L83.43 296.22L86.19 294.61L86.23 294.6L86.22 294.68L86.22 302.25L86.23 309.8L86.25 317.35L86.24 324.92L86.23 325.02L86.19 325.04C85.28 325.59 84.35 326.12 83.43 326.63L83.43 326.63ZM86.17 324.86L86.17 324.96L86.19 324.84C86.19 324.85 86.18 324.85 86.17 324.86ZM86.15 317.41L86.17 309.84L86.18 302.27L86.17 294.81L83.48 296.48C83.49 301.47 83.49 306.46 83.49 311.45C83.47 316.5 83.47 321.54 83.44 326.59C84.35 326 85.26 325.42 86.17 324.86L86.15 317.41ZM86.17 294.81L86.19 294.79L86.17 294.72L86.17 294.81ZM83.48 296.48C83.48 296.43 83.48 296.39 83.48 296.34L83.43 296.51L83.48 296.48Z" />
											<path id="Path 4109" fill-rule="evenodd" class="shp0" d="M79.05 329.26C79.02 324.23 79.02 319.19 79 314.16C78.99 309.13 78.99 304.09 79 299.04L79 298.89L79.05 298.86L82.28 296.98L82.31 296.96L82.31 297.04L82.3 304.61L82.32 312.16L82.33 319.72L82.32 327.28L82.32 327.39L82.28 327.41L80.67 328.36L79.05 329.27L79.05 329.26ZM80.67 328.2L82.24 327.22L82.23 319.78L82.25 312.21L82.26 304.64L82.25 297.17L79.11 299.12C79.11 304.11 79.12 309.1 79.11 314.09C79.09 319.14 79.09 324.18 79.06 329.23L80.67 328.2ZM82.24 327.22L82.24 327.33L82.28 327.2L82.24 327.22ZM82.25 297.17L82.28 297.15L82.25 297.08L82.25 297.17ZM79.11 299.12C79.11 299.07 79.11 299.03 79.11 298.98L79.05 299.16L79.11 299.12Z" />
										</g>
									</g>
									<g id="Group 883">
										<path id="Path 4110" class="shp0" d="M105.95 91.39L113.54 86.82L113.54 84.34L105.95 88.92L105.95 91.39Z" />
									</g>
									<g id="Group 884">
										<path id="Path 4111" class="shp0" d="M57.88 120.07L65.47 115.49L65.47 113.63L57.88 118.21L57.88 120.07Z" />
									</g>
									<g id="Group 885">
										<path id="Path 4112" class="shp0" d="M104.69 192.38L113.97 186.79L113.97 180.76L104.69 186.36L104.69 192.38Z" />
									</g>
									<g id="Group 886">
										<path id="Path 4113" class="shp0" d="M58.31 220.15L65.9 215.58L65.9 209.54L58.31 214.11L58.31 220.15Z" />
									</g>
									<g id="Group 887">
										<path id="Path 4114" class="shp0" d="M104.69 288.63L113.97 283.03L113.97 277L104.69 282.6L104.69 288.63Z" />
									</g>
									<g id="Group 888">
										<path id="Path 4115" class="shp0" d="M58.31 316.39L65.9 311.82L65.9 305.78L58.31 310.35L58.31 316.39Z" />
									</g>
								</g>
							</g>
							<path id="Path 4116" class="shp0" d="M57.74 82.98L57.06 82.98C56.74 82.98 56 83.43 56.66 83.43L57.34 83.43C57.65 83.43 58.4 82.98 57.74 82.98L57.06 82.98C56.74 82.98 56 83.43 56.66 83.43L57.34 83.43C57.65 83.43 58.4 82.98 57.74 82.98L57.74 82.98Z" />
							<path id="Path 4117" class="shp0" d="M60.6 83.13C58.94 83.27 58.26 85.83 57.92 87.03C57.89 87.13 58.15 87.1 58.17 87.01C58.45 86 59.13 83.4 60.57 83.27C60.7 83.26 60.77 83.11 60.6 83.13L60.6 83.13Z" />
							<path id="Path 4118" class="shp0" d="M65.56 80.3C65.55 80.31 65.54 80.33 65.53 80.34C65.44 80.47 65.34 80.58 65.23 80.7C63.59 82.75 61.91 84.78 60.48 86.98C60.4 87.11 60.62 87.16 60.69 87.06C62.21 84.72 64.01 82.56 65.77 80.38C65.86 80.26 65.64 80.21 65.56 80.3Z" />
							<path id="Path 4119" class="shp0" d="M66.05 81.31C63.58 84.66 61.92 88.46 59.45 91.81C59.43 91.84 59.65 91.83 59.69 91.77C62.16 88.42 63.82 84.63 66.29 81.27C66.32 81.25 66.09 81.26 66.05 81.31L66.05 81.31Z" />
							<path id="Path 4120" class="shp0" d="M69.11 80.34C65.66 84.13 63.03 88.42 60.46 92.77C60.44 92.81 60.67 92.79 60.71 92.73C63.27 88.4 65.89 84.12 69.33 80.33C69.39 80.27 69.15 80.3 69.11 80.34L69.11 80.34Z" />
							<path id="Path 4121" class="shp0" d="M70.12 80.83C67.55 85.2 65.17 89.65 63.01 94.2C62.98 94.25 63.22 94.23 63.25 94.16C65.42 89.61 67.8 85.16 70.36 80.8C70.38 80.75 70.15 80.77 70.12 80.83L70.12 80.83Z" />
							<path id="Path 4122" class="shp0" d="M71.13 83.22C67.97 88.58 64.16 93.63 61.99 99.45C61.97 99.5 62.21 99.47 62.23 99.41C64.4 93.58 68.22 88.54 71.38 83.18C71.4 83.15 71.17 83.16 71.13 83.22L71.13 83.22Z" />
							<path id="Path 4123" class="shp0" d="M73.17 86.06C69.93 92.04 65.66 97.48 63 103.74C62.97 103.82 63.22 103.79 63.25 103.71C65.9 97.47 70.16 92.03 73.4 86.07C73.45 85.97 73.21 85.99 73.17 86.06L73.17 86.06Z" />
							<path id="Path 4124" class="shp0" d="M71.64 93.24C69.48 97.27 67.19 101.24 66.05 105.65C66.03 105.72 66.28 105.69 66.3 105.62C67.43 101.21 69.73 97.23 71.88 93.21C71.91 93.15 71.67 93.18 71.64 93.24L71.64 93.24Z" />
							<path id="Path 4125" class="shp0" d="M73.18 98.44C71.3 100.7 69.1 103.89 71.14 106.64C71.21 106.73 71.44 106.64 71.36 106.54C69.36 103.84 71.56 100.71 73.39 98.51C73.48 98.4 73.25 98.35 73.18 98.44L73.18 98.44Z" />
						</g>
						<path id="Path 4126" class="shp0" d="M79.23 74.85C73 77.5 66.79 80.18 60.59 82.87C55.66 80.95 50.72 79.04 45.83 77.06C43.63 76.17 41.44 75.26 39.26 74.34C37.79 73.98 36.34 73.54 34.92 73.04C38.52 74.43 42.13 75.83 45.71 77.26C50.65 79.24 55.57 81.29 60.48 83.33L60.6 83.39L60.73 83.33C68.66 80.09 76.57 76.82 84.43 73.49C82.72 74.01 80.99 74.47 79.23 74.85Z" />
						<path id="Path 4127" class="shp0" d="M24.94 68.42C24.45 68.22 23.96 68.02 23.47 67.82C22.68 67.76 21.88 67.68 21.09 67.57C24.31 68.88 27.53 70.18 30.78 71.44C31.13 71.58 31.48 71.72 31.83 71.85C29.47 70.86 27.17 69.7 24.94 68.42Z" />
						<path id="Path 4128" class="shp0" d="M26.75 69.42C26.58 69.33 26.4 69.24 26.23 69.15L22.34 67.71C21.85 67.65 21.37 67.6 20.89 67.53L26.75 69.42Z" />
						<path id="Path 4129" class="shp0" d="M50.06 77.18C47.38 76.71 44.78 75.99 42.24 75.09L54.44 79.61C54.22 79.33 54.04 79.03 53.9 78.73C52.58 78.28 51.29 77.78 50.06 77.18Z" />
						<path id="Path 4130" class="shp0" d="M60.9 80.35L59.9 80.76L57 79.63C54.57 79.05 52.24 78.24 50.06 77.18C49.58 77.1 49.1 76.99 48.62 76.89L59.77 81.25L59.9 81.3L62.08 80.41C61.69 80.4 61.3 80.39 60.9 80.35Z" />
						<path id="Path 4131" class="shp0" d="M56.92 81.37C57.57 82.13 58.38 82.8 59.03 83.56C59.14 83.7 59.71 83.54 59.57 83.38C58.92 82.61 58.11 81.95 57.46 81.18C57.34 81.05 56.78 81.21 56.92 81.37L56.92 81.37Z" />
						<path id="Path 4132" class="shp0" d="M54.81 80.64C55.76 81.44 56.47 82.4 57.22 83.32C57.27 83.25 57.32 83.18 57.37 83.12C57.19 83.18 56.96 82.88 56.76 82.84C56.56 82.81 56.07 83.06 56.41 83.12C56.62 83.15 56.69 83.39 56.91 83.42C57.17 83.45 57.37 83.41 57.61 83.33C57.7 83.3 57.83 83.22 57.76 83.13C57.01 82.21 56.31 81.25 55.35 80.45C55.2 80.32 54.65 80.5 54.81 80.64L54.81 80.64Z" />
						<path id="Path 4133" class="shp0" d="M55.11 82.1C55.87 82.73 56.9 83.77 56.6 84.72C56.54 84.89 57.13 84.82 57.18 84.66C57.5 83.67 56.45 82.58 55.65 81.92C55.51 81.8 54.95 81.97 55.11 82.1L55.11 82.1Z" />
						<path id="Path 4134" class="shp0" d="M53.01 80.65C54.13 81.8 55.08 83.04 56.02 84.31C56.15 84.48 56.71 84.31 56.55 84.1C55.62 82.84 54.67 81.6 53.54 80.44C53.38 80.28 52.83 80.46 53.01 80.65L53.01 80.65Z" />
						<path id="Path 4135" class="shp0" d="M52.1 80.64C53.26 81.57 54.55 82.4 55.72 83.32C55.88 83.45 56.43 83.27 56.25 83.13C55.09 82.2 53.8 81.38 52.64 80.45C52.48 80.32 51.92 80.5 52.1 80.64L52.1 80.64Z" />
						<path id="Path 4136" class="shp0" d="M19.9 69.19C23.37 70.25 26.89 71.33 30.16 72.76C30.41 72.87 30.65 72.98 30.88 73.11C31.1 73.24 31.6 73.11 31.08 72.96C29.9 72.64 28.76 72.14 27.64 71.7C27.49 71.63 27.01 71.83 27.09 71.86C28.29 72.34 29.51 72.87 30.79 73.2C30.96 73.24 31.78 73.21 31.47 72.98C30.64 72.36 29.29 72.01 28.29 71.63C25.7 70.66 23.05 69.82 20.38 69C20.25 68.96 19.72 69.13 19.9 69.19L19.9 69.19Z" />
					</g>
					<path id="Path 4137" class="shp0" d="M59.7 84.43C59.7 86.56 59.68 88.69 59.09 90.77C59.04 90.96 59.62 90.88 59.68 90.71C60.26 89.12 60.3 87.44 60.88 85.84C60.69 85.86 60.5 85.88 60.3 85.9C59.75 87.83 59.7 89.77 59.7 91.74C59.7 91.95 60.28 91.86 60.28 91.69C60.28 89.72 60.34 87.77 60.88 85.84C60.94 85.65 60.36 85.73 60.3 85.9C59.71 87.49 59.68 89.17 59.09 90.77C59.29 90.75 59.48 90.73 59.68 90.71C60.26 88.63 60.28 86.51 60.28 84.38C60.28 84.17 59.7 84.27 59.7 84.43L59.7 84.43Z" />
					<path id="Path 4138" class="shp0" d="M60.9 84.44C60.25 85.9 59.57 87.31 59.19 88.83C59.35 88.81 59.51 88.79 59.68 88.78L59.68 86.76C59.68 84.57 59.24 86.54 59.29 87.18C59.58 91.14 59.13 95.12 59.1 99.09C59.09 99.21 59.68 99.13 59.68 98.96C59.72 94.24 60.18 89.55 59.68 84.83C59.66 84.69 59.1 84.8 59.1 84.96L59.1 89.83C59.1 89.96 59.66 89.87 59.68 89.73C59.86 87.82 60.69 86.16 61.48 84.37C61.55 84.23 60.97 84.29 60.9 84.44L60.9 84.44Z" />
					<path id="Path 4139" class="shp0" d="M60.28 85.35C60.6 84.86 61.14 84.67 61.56 84.28C61.82 84.04 61.34 83.8 61.61 83.55C61.7 83.46 61.53 83.45 61.47 83.45C61.12 83.45 60.7 83.76 60.42 83.87C60.57 83.89 60.71 83.9 60.85 83.91C60.96 83.79 61.07 83.66 61.18 83.54C61.23 83.48 61.29 83.43 61.34 83.38C61.5 83.27 61.4 83.26 61.05 83.35C61.14 83.57 60.68 83.49 61.27 83.43L61.49 83.45C61.48 83.44 61.48 83.38 61.48 83.37C61.48 83.26 60.89 83.35 60.9 83.5C60.92 83.84 61.61 83.55 61.63 83.28C61.65 83.1 61.38 83.13 61.24 83.16C60.82 83.26 60.55 83.66 60.32 83.93C60.19 84.09 60.7 83.99 60.76 83.96C61.05 83.84 61.36 83.72 61.61 83.55C61.48 83.58 61.35 83.63 61.22 83.67L61.22 83.67C61.17 83.63 61.13 83.6 61.08 83.57C61 83.63 60.96 83.72 60.93 83.81C60.85 84.01 61.13 84.1 61.04 84.28C60.96 84.45 60.51 84.63 60.34 84.76C60.07 84.94 59.87 85.17 59.7 85.42C59.64 85.51 60.19 85.47 60.28 85.35L60.28 85.35Z" />
					<path id="Path 4140" class="shp0" d="M60.82 84.45C61.56 83.89 62.5 83.55 63.24 82.99C63.48 82.8 62.91 82.8 62.77 82.9C62.04 83.47 61.09 83.81 60.36 84.37C60.11 84.56 60.69 84.56 60.82 84.45L60.82 84.45Z" />
					<path id="Path 4141" class="shp0" d="M63.31 82.5C62.11 83.96 60.91 85.42 59.7 86.88C59.65 86.94 60.18 86.92 60.27 86.8C61.48 85.34 62.69 83.88 63.89 82.42C63.94 82.36 63.41 82.38 63.31 82.5L63.31 82.5Z" />
					<path id="Path 4142" class="shp0" d="M65.12 81.52C63.22 84.08 61.36 86.65 59.7 89.31C59.64 89.41 60.2 89.37 60.28 89.24C61.94 86.58 63.8 84.01 65.7 81.45C65.76 81.36 65.22 81.39 65.12 81.52L65.12 81.52Z" />
					<path id="Path 4143" class="shp0" d="M67.58 81.41C63.97 84.94 61.61 89.07 59.11 93.15C58.96 93.39 59.54 93.4 59.66 93.21C62.15 89.16 64.48 85.06 68.06 81.56C68.3 81.32 67.75 81.24 67.58 81.41L67.58 81.41Z" />
					<path id="Path 4144" class="shp0" d="M68.78 82.4C64.73 86.33 62.69 91.15 59.71 95.6C59.57 95.82 60.16 95.79 60.27 95.63C63.22 91.21 65.23 86.42 69.26 82.51C69.49 82.29 68.93 82.26 68.78 82.4L68.78 82.4Z" />
					<path id="Path 4145" class="shp0" d="M69.35 84.88C66.31 88.36 63.5 91.99 62.11 96.13C62.04 96.32 62.63 96.25 62.69 96.08C64.08 91.96 66.88 88.36 69.9 84.91C70.07 84.72 69.47 84.75 69.35 84.88L69.35 84.88Z" />
					<path id="Path 4146" class="shp0" d="M69.96 89.28C66.87 92.37 64.65 95.91 62.71 99.54C62.63 99.69 63.21 99.64 63.29 99.48C65.23 95.88 67.43 92.36 70.5 89.29C70.67 89.12 70.08 89.15 69.96 89.28L69.96 89.28Z" />
					<path id="Path 4147" class="shp0" d="M70.57 92.71C68.16 95.22 66.4 98.01 65.13 101.01C65.08 101.11 65.64 101.06 65.7 100.93C66.97 97.95 68.7 95.17 71.1 92.68C71.22 92.55 70.65 92.61 70.57 92.71L70.57 92.71Z" />
					<path id="Path 4148" class="shp0" d="M70.56 98.05C69.36 99.7 67.14 102.68 70 104.01C70.16 104.09 70.69 103.9 70.46 103.79C67.75 102.53 69.99 99.58 71.1 98.05C71.24 97.87 70.65 97.92 70.56 98.05L70.56 98.05Z" />
					<path id="Path 4149" class="shp0" d="M71.14 103.94C70.54 105.89 69.94 107.84 69.34 109.79C69.3 109.9 69.88 109.83 69.91 109.7C70.52 107.75 71.12 105.81 71.72 103.86C71.76 103.75 71.19 103.81 71.14 103.94L71.14 103.94Z" />
					<path id="Path 4150" class="shp0" d="M94.53 69.7C92.9 71.76 91.12 73.72 89.23 75.63C89.07 75.8 89.66 75.76 89.78 75.64C91.78 73.6 93.69 71.52 95.4 69.31C95.11 69.44 94.82 69.57 94.53 69.7Z" />
					<path id="Path 4151" class="shp0" d="M98.91 68.28C95.9 71.25 93.47 74.56 90.47 77.53C90.24 77.76 90.8 77.78 90.95 77.64C93.95 74.67 96.38 71.36 99.38 68.38C99.61 68.16 99.05 68.13 98.91 68.28L98.91 68.28Z" />
					<path id="Path 4152" class="shp0" d="M103.94 65.95C99.98 70.43 95.8 74.8 92.24 79.51C92.07 79.73 92.66 79.74 92.8 79.56C96.47 74.7 100.81 70.2 104.9 65.56C104.58 65.69 104.27 65.82 103.94 65.95Z" />
					<path id="Path 4153" class="shp0" d="M109.1 63.99C103.68 69.44 99.18 75.42 94.04 81.04C94.01 81.07 94.51 81.06 94.61 80.95C99.75 75.34 104.26 69.35 109.67 63.9C109.7 63.88 109.2 63.88 109.1 63.99L109.1 63.99Z" />
					<path id="Path 4154" class="shp0" d="M111.52 63.94C106.86 69.17 102.55 74.58 98.27 80.02C98.13 80.2 98.71 80.15 98.81 80.02C103.09 74.59 107.4 69.17 112.06 63.94C112.22 63.77 111.63 63.82 111.52 63.94L111.52 63.94Z" />
					<path id="Path 4155" class="shp0" d="M108.51 70.26C106.05 74.58 102.6 78.43 99.47 82.44C99.31 82.65 99.89 82.64 100.02 82.48C103.16 78.47 106.6 74.63 109.06 70.3C109.19 70.06 108.61 70.08 108.51 70.26L108.51 70.26Z" />
					<path id="Path 4156" class="shp0" d="M107.91 75.64C106 78.2 103.9 80.7 102.47 83.46C102.4 83.6 102.97 83.55 103.05 83.4C104.47 80.66 106.55 78.18 108.45 75.64C108.59 75.46 108.01 75.51 107.91 75.64L107.91 75.64Z" />
					<path id="Path 4157" class="shp0" d="M106.69 81.53C105.53 83.92 104.91 86.28 104.88 88.85C104.88 88.94 105.46 88.87 105.46 88.73C105.49 86.17 106.11 83.82 107.26 81.44C107.31 81.35 106.75 81.4 106.69 81.53L106.69 81.53Z" />
					<path id="Path 4158" class="shp0" d="M110.39 63.83C109.55 64.28 108.68 64.68 107.8 65.07C108.48 64.56 109.19 64.08 109.93 63.63C109.95 63.62 109.97 63.61 109.99 63.61C110.09 63.6 110.17 63.59 110.23 63.54C110.29 63.48 110.34 63.44 110.35 63.37L110.34 63.36C110.42 63.32 110.48 63.27 110.55 63.23L110.48 63.25C108.88 63.95 107.26 64.6 105.63 65.26C105.29 65.41 105.6 65.68 105.9 65.55C106.39 65.35 106.86 65.12 107.34 64.89C106.93 65.2 106.52 65.5 106.12 65.82C105.89 66 106.33 66.12 106.51 66.04C107.36 65.7 108.19 65.33 109.02 64.94C108.86 65.07 108.7 65.2 108.53 65.33C108.27 65.54 108.83 65.64 109.03 65.48C109.63 65 110.23 64.51 110.84 64.02C111.1 63.81 110.57 63.73 110.39 63.83Z" />
					<path id="Path 4159" class="shp0" d="M107.6 64.45C106.35 65.28 105.08 66.1 103.73 66.84C103.47 66.99 104.06 66.97 104.19 66.89C105.88 65.96 107.46 64.92 109.02 63.86C108.55 64.06 108.07 64.25 107.6 64.45Z" />
					<path id="Path 4160" class="shp0" d="M112.1 62.87L112.1 69.33C112.1 69.54 112.69 69.45 112.69 69.28L112.69 62.73C112.49 62.78 112.3 62.83 112.1 62.87Z" />
					<path id="Path 4161" class="shp0" d="M112.71 63.52L112.71 70.34C112.71 70.44 113.29 70.36 113.29 70.21L113.29 63.39C113.29 63.3 112.71 63.37 112.71 63.52L112.71 63.52Z" />
				</g>
				<g id="Group 896">
					<g id="Group 894">
						<path id="Path 4162" class="shp0" d="M57.05 85.57L1.81 58.3L1.81 53.75L57.05 81.01L57.05 85.57Z" />
						<path id="Path 4163" fill-rule="evenodd" class="shp0" d="M56.6 81.97C47.49 77.64 38.39 73.24 29.28 68.76C24.72 66.54 20.17 64.29 15.62 62.02L1.95 55.16L1.73 55.04L1.73 54.85L1.79 48.42C1.8 46.28 1.83 44.14 1.82 41.98C1.81 37.67 1.77 33.35 1.71 29.01L1.71 28.81L1.95 28.93L15.62 35.56L29.28 42.24C33.83 44.46 38.39 46.71 42.94 48.97C47.49 51.23 52.05 53.46 56.6 55.76L57.01 55.97L57.01 56.31L56.87 69.15C56.83 73.44 56.74 77.69 56.64 81.96L56.64 81.99L56.6 81.97ZM56.56 81.87C56.46 77.53 56.37 73.19 56.34 68.89L56.2 56.26C51.78 54.13 47.36 51.92 42.94 49.76C38.39 47.52 33.83 45.27 29.28 43L15.62 36.19L2.19 29.47C2.14 33.67 2.1 37.89 2.09 42.12C2.07 44.26 2.11 46.43 2.11 48.59L2.18 54.87L15.62 61.38C20.17 63.61 24.72 65.85 29.28 68.13C38.37 72.64 47.46 77.22 56.56 81.87ZM56.2 56.26C56.33 56.33 56.47 56.39 56.6 56.46L56.19 55.9L56.2 56.26ZM2.19 29.47C2.19 29.39 2.2 29.32 2.2 29.25L1.95 29.34L2.19 29.47ZM2.18 54.87L1.95 54.76L2.18 55.07L2.18 54.87Z" />
						<path id="Path 4164" fill-rule="evenodd" class="shp0" d="M14.84 59.06C12.02 57.74 9.21 56.39 6.4 55.02L6.23 54.94L6.23 54.79C6.22 53.07 6.18 51.33 6.2 49.62C6.2 47.9 6.24 46.2 6.28 44.5C6.36 41.1 6.31 37.64 6.28 34.18L6.27 34.07L6.4 34.14L14.84 38.22L15.05 38.33L15.05 38.51C15.08 41.97 15.08 45.4 15.05 48.83C14.99 52.24 14.98 55.67 14.86 59.06L14.86 59.07L14.84 59.06ZM14.81 59.01C14.7 55.52 14.69 52.09 14.63 48.62C14.6 45.23 14.6 41.85 14.63 38.48L6.52 34.4C6.48 37.79 6.43 41.17 6.52 44.62C6.55 46.35 6.59 48.09 6.59 49.81C6.61 51.49 6.58 53.15 6.57 54.81C9.32 56.19 12.06 57.59 14.81 59.01ZM14.63 38.48L14.84 38.59L14.63 38.3C14.63 38.36 14.63 38.42 14.63 38.48ZM6.52 34.4C6.52 34.37 6.52 34.33 6.52 34.3L6.4 34.34L6.52 34.4ZM6.57 54.81C6.51 54.79 6.45 54.76 6.4 54.73L6.57 54.96C6.57 54.91 6.57 54.86 6.57 54.81Z" />
						<path id="Path 4165" fill-rule="evenodd" class="shp0" d="M32.61 67.83C29.8 66.51 26.98 65.16 24.17 63.79L23.99 63.71L23.99 63.56C23.99 61.84 23.96 60.1 23.97 58.39C23.97 56.67 24.01 54.97 24.05 53.27C24.13 49.87 24.08 46.41 24.05 42.95L24.05 42.85L24.17 42.91L32.61 47L32.82 47.1L32.82 47.28C32.85 50.73 32.85 54.17 32.82 57.6C32.76 61.01 32.75 64.44 32.63 67.82L32.63 67.84L32.61 67.83ZM32.59 67.78C32.47 64.29 32.46 60.85 32.4 57.39C32.37 53.99 32.37 50.62 32.4 47.25L24.29 43.18C24.25 46.56 24.2 49.94 24.29 53.39C24.32 55.12 24.36 56.86 24.36 58.58C24.38 60.26 24.35 61.92 24.34 63.59C27.09 64.96 29.84 66.36 32.59 67.78ZM32.4 47.25L32.61 47.36L32.4 47.07C32.4 47.13 32.4 47.19 32.4 47.25ZM24.29 43.18C24.29 43.14 24.29 43.11 24.29 43.07L24.17 43.11L24.29 43.18ZM24.34 63.59C24.28 63.56 24.22 63.53 24.17 63.5L24.34 63.73C24.34 63.68 24.34 63.63 24.34 63.59Z" />
						<path id="Path 4166" fill-rule="evenodd" class="shp0" d="M50.53 76.68C47.72 75.35 44.9 74.01 42.09 72.64L41.91 72.55L41.91 72.4C41.91 70.68 41.87 68.95 41.89 67.24C41.89 65.52 41.93 63.82 41.97 62.11C42.05 58.72 42.01 55.25 41.97 51.79L41.96 51.69L42.09 51.75L50.53 55.84L50.74 55.94L50.74 56.12C50.77 59.58 50.77 63.02 50.74 66.44C50.68 69.85 50.67 73.29 50.55 76.67L50.55 76.69L50.53 76.68ZM50.51 76.63C50.39 73.13 50.38 69.7 50.32 66.24C50.29 62.84 50.29 59.46 50.32 56.1L42.21 52.02C42.17 55.4 42.12 58.79 42.21 62.23C42.24 63.96 42.28 65.7 42.28 67.43C42.3 69.11 42.27 70.76 42.26 72.43C45.01 73.8 47.76 75.21 50.51 76.63ZM50.32 56.1L50.53 56.2L50.32 55.92C50.32 55.98 50.32 56.04 50.32 56.1ZM42.21 52.02C42.21 51.99 42.21 51.95 42.21 51.92L42.09 51.96L42.21 52.02ZM42.26 72.43C42.2 72.4 42.14 72.37 42.09 72.34L42.26 72.57C42.26 72.53 42.26 72.48 42.26 72.43Z" />
					</g>
					<g id="Group 895">
						<path id="Path 4167" class="shp0" d="M57.24 85.95L112.48 58.69L112.48 54.13L57.24 81.39L57.24 85.95Z" />
						<path id="Path 4168" fill-rule="evenodd" class="shp0" d="M57.65 82.37L57.64 82.33C57.55 78.08 57.46 73.81 57.42 69.52L57.28 56.69L57.28 56.34L57.69 56.14C62.24 53.83 66.8 51.61 71.35 49.35C75.9 47.09 80.45 44.84 85.01 42.62L98.67 35.94L112.34 29.31L112.58 29.19L112.58 29.39C112.52 33.73 112.48 38.05 112.47 42.36C112.46 44.52 112.49 46.65 112.49 48.8L112.56 55.23L112.56 55.42L112.34 55.53L98.67 62.4C94.12 64.67 89.57 66.92 85.01 69.14C75.9 73.62 66.8 78.02 57.69 82.35L57.65 82.37ZM85.01 68.51C89.57 66.23 94.12 63.99 98.67 61.76L112.11 55.26L112.17 48.96C112.18 46.81 112.21 44.64 112.19 42.5C112.19 38.26 112.15 34.05 112.09 29.84L98.67 36.57L85.01 43.38C80.45 45.65 75.9 47.9 71.35 50.13C66.93 52.3 62.51 54.5 58.09 56.64L57.95 69.27C57.92 73.57 57.83 77.91 57.73 82.25C66.83 77.6 75.92 73.02 85.01 68.51ZM112.11 55.26L112.11 55.45L112.34 55.15L112.11 55.26ZM112.09 29.84L112.34 29.72L112.09 29.63C112.09 29.7 112.09 29.77 112.09 29.84ZM58.09 56.64L58.1 56.29L57.69 56.83C57.82 56.77 57.96 56.7 58.09 56.64Z" />
						<path id="Path 4169" fill-rule="evenodd" class="shp0" d="M99.43 59.45L99.43 59.43C99.31 56.05 99.3 52.62 99.24 49.21C99.21 45.78 99.21 42.34 99.24 38.89L99.24 38.71L99.45 38.61L107.89 34.51L108.01 34.45L108.01 34.56C107.97 38.02 107.93 41.48 108.01 44.88C108.04 46.58 108.08 48.28 108.08 50C108.1 51.71 108.07 53.45 108.06 55.17L108.06 55.32L107.89 55.4C105.08 56.77 102.26 58.12 99.45 59.44L99.43 59.45ZM107.72 55.19C107.72 55.24 107.72 55.29 107.72 55.34L107.89 55.11C107.83 55.13 107.78 55.16 107.72 55.19ZM107.7 50.19C107.7 48.47 107.74 46.73 107.77 45C107.86 41.55 107.81 38.17 107.77 34.78L99.66 38.86C99.69 42.22 99.69 45.61 99.66 49C99.6 52.46 99.59 55.9 99.48 59.39C102.22 57.97 104.97 56.57 107.72 55.19C107.71 53.53 107.68 51.87 107.7 50.19ZM107.77 34.78L107.89 34.72L107.77 34.68C107.77 34.71 107.77 34.75 107.77 34.78ZM99.66 38.86C99.66 38.8 99.66 38.74 99.66 38.68L99.45 38.97L99.66 38.86Z" />
						<path id="Path 4170" fill-rule="evenodd" class="shp0" d="M81.66 68.22L81.65 68.2C81.54 64.82 81.53 61.38 81.47 57.98C81.44 54.55 81.44 51.11 81.47 47.66L81.47 47.48L81.68 47.38L90.12 43.29L90.24 43.23L90.24 43.33C90.2 46.79 90.15 50.25 90.24 53.65C90.27 55.35 90.31 57.05 90.31 58.77C90.33 60.48 90.3 62.22 90.29 63.94L90.29 64.09L90.12 64.17C87.31 65.54 84.49 66.89 81.68 68.21L81.66 68.22ZM89.95 63.97C89.95 64.01 89.95 64.06 89.95 64.11L90.12 63.88C90.06 63.91 90 63.94 89.95 63.97ZM89.93 58.96C89.93 57.24 89.97 55.5 90 53.77C90.08 50.32 90.04 46.94 90 43.55L81.89 47.63C81.92 51 81.92 54.38 81.89 57.77C81.83 61.24 81.82 64.67 81.7 68.16C84.45 66.74 87.2 65.34 89.95 63.97C89.94 62.3 89.91 60.64 89.93 58.96ZM90 43.55L90.12 43.49L90 43.45C90 43.48 90 43.52 90 43.55ZM81.89 47.63C81.89 47.57 81.89 47.51 81.89 47.45L81.68 47.74L81.89 47.63Z" />
						<path id="Path 4171" fill-rule="evenodd" class="shp0" d="M63.74 77.06L63.73 77.05C63.62 73.67 63.61 70.23 63.55 66.83C63.52 63.4 63.52 59.96 63.55 56.5L63.55 56.32L63.76 56.22L72.2 52.13L72.32 52.07L72.32 52.17C72.28 55.63 72.23 59.1 72.32 62.49C72.35 64.2 72.39 65.9 72.39 67.61C72.41 69.32 72.38 71.06 72.37 72.79L72.37 72.93L72.2 73.02C69.39 74.39 66.57 75.73 63.76 77.06L63.74 77.06ZM72.03 72.81C72.03 72.86 72.03 72.91 72.03 72.96L72.2 72.72C72.14 72.75 72.09 72.78 72.03 72.81ZM72.01 67.81C72.01 66.09 72.05 64.35 72.08 62.61C72.17 59.17 72.12 55.78 72.08 52.4L63.97 56.47C64 59.84 64 63.22 63.97 66.61C63.91 70.08 63.9 73.52 63.78 77C66.53 75.58 69.28 74.19 72.03 72.81C72.02 71.14 71.99 69.49 72.01 67.81ZM72.08 52.4L72.2 52.34L72.08 52.29C72.08 52.33 72.08 52.36 72.08 52.4ZM63.97 56.47C63.97 56.41 63.97 56.36 63.97 56.3L63.76 56.58L63.97 56.47Z" />
					</g>
				</g>
				<path id="Path 4172" class="shp0" d="M3.92 27.08C8.5 28.92 12.93 31 17.23 33.25C19.37 34.4 21.44 35.64 23.6 36.76C25.76 37.87 27.97 38.91 30.21 39.92C39.16 43.92 47.91 48.24 56.21 53.2L56.14 53.29C47.01 49.54 38.33 45.15 29.85 40.45C27.72 39.28 25.58 38.14 23.38 37.08C21.18 36.03 18.9 35.08 16.68 34.06C12.27 31.95 7.98 29.68 3.85 27.17L3.92 27.08Z" />
				<path id="Path 4173" class="shp0" d="M56.8 0.45C61.63 2.51 66.31 4.8 70.86 7.26C73.11 8.52 75.3 9.87 77.59 11.07C79.86 12.31 82.21 13.44 84.57 14.55C94.01 18.98 103.25 23.71 112.03 29.08L111.96 29.18C102.33 25.01 93.15 20.19 84.19 15.09C81.94 13.81 79.69 12.55 77.35 11.41C75.04 10.23 72.63 9.19 70.29 8.06C65.63 5.75 61.1 3.26 56.73 0.55L56.8 0.45Z" />
				<path id="Path 4174" class="shp0" d="M56.8 0.55C52.47 3.18 47.98 5.58 43.38 7.81C41.06 8.9 38.67 9.89 36.39 11.03C34.08 12.13 31.85 13.35 29.63 14.58C20.76 19.53 11.68 24.17 2.16 28.18L2.09 28.08C10.78 22.87 19.91 18.31 29.26 14.05C31.59 12.98 33.92 11.9 36.15 10.69C38.42 9.53 40.59 8.22 42.82 7.01C47.33 4.63 51.95 2.43 56.73 0.45L56.8 0.55Z" />
				<path id="Path 4175" class="shp0" d="M32.21 20.42C33.62 18.72 35.7 18.03 37.92 17.39C38.45 17.24 39.58 16.85 39.37 16.19C39.17 15.56 37.94 15.61 37.41 15.76C34.13 16.7 31.08 17.77 29.02 20.27C28.53 20.86 29.43 21.22 29.98 21.24C30.8 21.28 31.73 21 32.21 20.42L32.21 20.42Z" />
			</g>
		</g>
	</g>
</svg>