<svg xmlns="http://www.w3.org/2000/svg" width="227.104" height="729.813" viewBox="0 0 227.104 729.813">
  <g id="Group_897" data-name="Group 897" transform="translate(-368.589 -25.089)">
    <g id="Group_893" data-name="Group 893" transform="translate(368.589 142.044)">
      <g id="Group_892" data-name="Group 892">
        <g id="Group_837" data-name="Group 837" transform="translate(117.591 361.951)">
          <path id="Path_3968" data-name="Path 3968" d="M399.6,130.835a104.173,104.173,0,0,1-4.351,9.81c-.127.241.395.159.486-.009a106.252,106.252,0,0,0,4.392-9.9c.068-.177-.445-.113-.526.1Z" transform="translate(-391.939 -130.636)" fill="#fff"/>
          <path id="Path_3969" data-name="Path 3969" d="M403.133,130.8a92.311,92.311,0,0,0-7.659,18.3c-.045.136.463.068.517-.113a92.99,92.99,0,0,1,7.655-18.3c.045-.073-.427-.05-.513.113Z" transform="translate(-391.087 -130.597)" fill="#fff"/>
          <path id="Path_3970" data-name="Path 3970" d="M404.964,131.718a140.1,140.1,0,0,0-8.766,18.345c-.055.127.445.073.522-.113a138.757,138.757,0,0,1,8.73-18.272c.1-.191-.413-.091-.485.041Z" transform="translate(-388.531 -127.327)" fill="#fff"/>
          <path id="Path_3971" data-name="Path 3971" d="M406.183,132.34a83.53,83.53,0,0,0-7.9,16.153c-.944,2.609-3.026,8.213-.858,10.695.114.118.581-.136.5-.241-2.382-2.713.313-8.989,1.339-11.843a77.6,77.6,0,0,1,7.4-14.814c.109-.172-.4-.086-.477.05Z" transform="translate(-387.558 -125.127)" fill="#fff"/>
          <path id="Path_3972" data-name="Path 3972" d="M406.755,133.607a136.781,136.781,0,0,0-9.837,26.748c-.032.141.476.064.526-.118a136.525,136.525,0,0,1,9.837-26.752c.041-.086-.436-.05-.526.122Z" transform="translate(-385.975 -120.722)" fill="#fff"/>
          <path id="Path_3973" data-name="Path 3973" d="M407.021,135.449a115.949,115.949,0,0,0-9.86,26.807c-.054.236.477.132.522-.086a115.636,115.636,0,0,1,9.833-26.712c.132-.259-.4-.191-.495-.009Z" transform="translate(-385.124 -114.183)" fill="#fff"/>
          <path id="Path_3974" data-name="Path 3974" d="M409.671,136.081a112.939,112.939,0,0,0-12.029,33.8c-.036.168.486.059.517-.113a112.981,112.981,0,0,1,12.029-33.8c.045-.086-.427-.05-.517.113Z" transform="translate(-383.414 -111.939)" fill="#fff"/>
          <path id="Path_3975" data-name="Path 3975" d="M413.212,136.992c-7.237,12.328-11.838,26.181-15.327,40.886-.059.245.467.154.526-.086,3.476-14.633,8.081-28.513,15.286-40.786.145-.245-.386-.191-.485-.014Z" transform="translate(-382.567 -108.69)" fill="#fff"/>
          <path id="Path_3976" data-name="Path 3976" d="M415.636,138.239c-7.618,14.333-12.886,30.269-17.51,46.517-.068.236.463.145.526-.077,4.614-16.212,9.878-32.125,17.482-46.422.132-.259-.4-.2-.5-.018Z" transform="translate(-381.716 -104.301)" fill="#fff"/>
          <path id="Path_3977" data-name="Path 3977" d="M423.525,137.312a428.82,428.82,0,0,0-25.146,61.962c-.118.358.417.345.5.073a428.311,428.311,0,0,1,25.146-61.962c.154-.313-.386-.313-.5-.073Z" transform="translate(-380.861 -107.63)" fill="#fff"/>
          <path id="Path_3978" data-name="Path 3978" d="M434.356,136.986c-16.525,25.9-27.029,56.8-37.193,87.353-.059.15.449.077.513-.109,10.164-30.532,20.654-61.4,37.156-87.272.123-.191-.395-.1-.476.027Z" transform="translate(-385.118 -108.665)" fill="#fff"/>
          <path id="Path_3979" data-name="Path 3979" d="M434.327,140.423c-13.939,28.976-28.281,57.82-37.166,90.13-.036.1.472.032.508-.123,8.9-32.315,23.245-61.155,37.184-90.13.023-.064-.445-.036-.526.122Z" transform="translate(-385.115 -96.562)" fill="#fff"/>
          <path id="Path_3980" data-name="Path 3980" d="M431.8,142.886c-13.862,24.928-25.019,51.921-33.912,80.325-.068.209.454.127.526-.086,8.884-28.381,20.032-55.338,33.876-80.225.141-.25-.39-.177-.49-.014Z" transform="translate(-382.568 -87.831)" fill="#fff"/>
          <path id="Path_3981" data-name="Path 3981" d="M425.852,146.268C414.1,165.819,406,187.907,399.581,211.111c-.1.377.427.381.5.082C406.5,188.034,414.554,166,426.3,146.481c.209-.349-.286-.463-.445-.213Z" transform="translate(-376.599 -75.817)" fill="#fff"/>
          <path id="Path_3982" data-name="Path 3982" d="M419.412,150.3c-9.624,14.211-14.379,31.657-18.635,49.407-.073.3.467.222.531-.054,4.247-17.7,8.939-34.988,18.54-49.171.222-.318-.281-.4-.436-.181Z" transform="translate(-372.342 -61.524)" fill="#fff"/>
          <path id="Path_3983" data-name="Path 3983" d="M409.033,155.94c-3.172,6.906-6.343,14.406-6.575,22.605-.018.363.526.281.54-.05.231-8.145,3.39-15.6,6.543-22.46.154-.336-.381-.368-.508-.1Z" transform="translate(-366.373 -41.776)" fill="#fff"/>
          <path id="Path_3984" data-name="Path 3984" d="M406.13,159.383c-1.888,6.443-3.208,12.868-2.192,19.756.027.159.368,0,.418-.041.93-.6,2.314-1.438,3.2-2.142,2.391-1.928,1.466.785,1.2,3.172-.527,4.841-.735,9.674-1.534,14.461-.027.182.49.068.522-.113,1.085-6.5,1.28-13.167,2.192-19.715.027-.2-.413-.027-.472.032-8.957,9.388-4.419-10.041-2.813-15.518.05-.154-.467-.077-.522.109Z" transform="translate(-362.382 -29.625)" fill="#fff"/>
          <path id="Path_3985" data-name="Path 3985" d="M399.245,172.086q-1.64,4.22-3.276,8.444c-.113.3.408.231.485.027q1.647-4.22,3.29-8.449c.113-.3-.418-.231-.5-.023Z" transform="translate(-389.382 15.346)" fill="#fff"/>
          <path id="Path_3986" data-name="Path 3986" d="M400.1,172.07a74.663,74.663,0,0,0-3.122,6.987,15.3,15.3,0,0,0-1.271,4.342c-.018.322.513.222.531-.068a17.174,17.174,0,0,1,1.47-4.819,68.8,68.8,0,0,1,2.89-6.384c.154-.295-.386-.286-.5-.059Z" transform="translate(-390.24 15.34)" fill="#fff"/>
          <path id="Path_3987" data-name="Path 3987" d="M402.931,171.406a94.179,94.179,0,0,0-7.686,18.367c-.113.368.413.372.5.091a92.785,92.785,0,0,1,7.632-18.245c.2-.354-.295-.458-.445-.213Z" transform="translate(-391.946 13.109)" fill="#fff"/>
          <path id="Path_3988" data-name="Path 3988" d="M401.591,174.542a66.44,66.44,0,0,1-6.552,9.86c.154.046.308.1.472.141,1.2-4.374,3.172-8.3,4.365-12.673.109-.372-.422-.368-.5-.077-1.2,4.374-3.172,8.294-4.374,12.668-.1.377.427.368.508.082,1.2-4.374,3.172-8.3,4.365-12.673.109-.372-.422-.368-.5-.077-1.2,4.374-3.172,8.294-4.374,12.668-.1.381.345.309.467.15a66.3,66.3,0,0,0,6.566-9.864c.191-.363-.3-.458-.445-.2Z" transform="translate(-392.799 14.202)" fill="#fff"/>
          <path id="Path_3989" data-name="Path 3989" d="M400.958,172.072a65.146,65.146,0,0,0-5.481,12.723c-.077.236.454.154.531-.082a64.428,64.428,0,0,1,5.449-12.618c.145-.268-.386-.218-.5-.023Z" transform="translate(-391.094 15.361)" fill="#fff"/>
          <path id="Path_3990" data-name="Path 3990" d="M409.025,170.48c-6.293,9.715-10.772,20.727-14.274,32.492-.068.263.467.181.535-.064,3.476-11.7,7.913-22.623,14.166-32.283.2-.322-.3-.349-.427-.145Z" transform="translate(-393.658 9.847)" fill="#fff"/>
          <path id="Path_3991" data-name="Path 3991" d="M416.392,168.943c-10.336,13.73-17.133,31.385-21.879,49.33-.059.182.467.1.513-.1,4.755-17.927,11.529-35.541,21.852-49.244.141-.182-.386-.1-.485.018Z" transform="translate(-394.495 4.424)" fill="#fff"/>
          <path id="Path_3992" data-name="Path 3992" d="M418.614,169.236c-10.5,16.752-19.311,35.727-24.1,56.454-.068.29.467.2.522-.068,4.782-20.627,13.567-39.543,24.016-56.213.209-.331-.295-.395-.435-.172Z" transform="translate(-394.503 5.442)" fill="#fff"/>
          <path id="Path_3993" data-name="Path 3993" d="M417.5,171.746c-10.173,16.362-17.133,35.55-22.982,54.975-.082.254.458.172.522-.073,5.853-19.388,12.8-38.54,22.95-54.861.163-.259-.377-.227-.49-.041Z" transform="translate(-394.505 14.266)" fill="#fff"/>
          <path id="Path_3994" data-name="Path 3994" d="M416.878,173.633c-7.46,16.312-16.058,31.825-21.875,49.289-.113.349.417.327.508.068,5.812-17.46,14.411-32.978,21.87-49.289.136-.327-.395-.318-.5-.068Z" transform="translate(-392.799 20.814)" fill="#fff"/>
          <path id="Path_3995" data-name="Path 3995" d="M413.955,174.851c-7.736,11.7-13.054,25.309-17.519,39.475-.045.172.463.091.526-.109,4.447-14.116,9.764-27.714,17.473-39.38.141-.209-.386-.127-.481.014Z" transform="translate(-387.684 25.272)" fill="#fff"/>
          <path id="Path_3996" data-name="Path 3996" d="M407.4,177.3c-1.765,2.89-13.177,21.63-7.577,24.3.24.118.617-.331.3-.486-4.873-2.314,6.062-20.863,7.727-23.585.209-.34-.29-.486-.449-.227Z" transform="translate(-381.112 33.963)" fill="#fff"/>
          <path id="Path_3997" data-name="Path 3997" d="M404.708,178.539c-2.3,3.167-2.995,7.5-4.406,11.321a.176.176,0,0,0,.159.249H409.2c.231,0,.554-.449.19-.449h-8.108c-.635,0-.127-.767-.014-1.112,1.107-3.394,1.874-7.1,3.866-9.851.227-.3-.281-.358-.431-.159Z" transform="translate(-374.041 38.396)" fill="#fff"/>
          <path id="Path_3998" data-name="Path 3998" d="M416.682,162.125c-4.628,7.437-9.51,14.919-12.051,23.989-.059.25.467.159.535-.073,2.532-9.043,7.4-16.489,12.006-23.889.15-.245-.376-.2-.49-.027Z" transform="translate(-358.704 -19.762)" fill="#fff"/>
          <path id="Path_3999" data-name="Path 3999" d="M436.9,159.59c-13.589,16.335-23.93,36.376-33.93,56.395-.164.309.381.318.5.082,9.982-19.983,20.3-39.983,33.867-56.272.24-.29-.268-.408-.44-.2Z" transform="translate(-364.677 -28.579)" fill="#fff"/>
          <path id="Path_4000" data-name="Path 4000" d="M441.882,160.539c-16.017,19.406-29.062,42.769-39.416,67.684-.077.163.436.1.517-.1,10.327-24.842,23.349-48.164,39.316-67.507.222-.263-.3-.218-.417-.082Z" transform="translate(-366.372 -25.245)" fill="#fff"/>
          <path id="Path_4001" data-name="Path 4001" d="M439.533,162.433c-14.383,18.794-25.3,41.14-36.108,63.4-.032.068.44.041.513-.122,10.808-22.247,21.7-44.561,36.068-63.337.109-.136-.39-.054-.472.059Z" transform="translate(-362.957 -18.618)" fill="#fff"/>
          <path id="Path_4002" data-name="Path 4002" d="M432.965,164.266c-10.572,16.584-18.658,35.273-27.337,53.509a.251.251,0,1,0,.445.227c8.68-18.236,16.774-36.925,27.347-53.509.213-.34-.286-.485-.454-.227Z" transform="translate(-355.286 -12.143)" fill="#fff"/>
          <path id="Path_4003" data-name="Path 4003" d="M417.473,168.061c-3.145,7.913-8.372,16.212-8.748,25.382,0,.122.522.032.526-.186.381-9.129,5.608-17.437,8.744-25.309.054-.118-.445-.064-.522.113Z" transform="translate(-344.204 1.127)" fill="#fff"/>
          <path id="Path_4004" data-name="Path 4004" d="M412.933,169.872c-1.974,3.929-3.285,8.185-2.228,12.863a.207.207,0,0,0,.241.168c3.793-.2,6.987-3.108,10.041-5.726.295-.259-.141-.517-.349-.327-2.773,2.378-5.635,4.987-9.034,5.5-1.193.19-.74-4.424-.635-5.277a21.524,21.524,0,0,1,2.409-7c.177-.358-.308-.485-.445-.2Z" transform="translate(-338.53 7.611)" fill="#fff"/>
          <path id="Path_4005" data-name="Path 4005" d="M413.559,162.408c-2.083,11.139-3.276,22.442-4.379,33.8-.018.2.508.073.526-.109a98.118,98.118,0,0,0-1.094-29.611c-.041-.2-.517,0-.531.177-.422,7.3-.3,14.569-.163,21.875q.116,5.472.059,10.935-.068,4.084-.377,8.163c-.372,5.277-.1,1.9-.113-.132-.136-16.049-1.2-32.066-2.151-48.06-.018-.168-.531-.023-.531.181.018,11.529.213,23.05.023,34.579-.186,11.434-2.255,23.925-2.673,34.348.985-24.42-.068-48.9-.1-73.333,0-.154-.513-.027-.526.141-2.078,28.127-1.248,56.49-4.365,84.495-.036.2.5.077.513-.1,2.827-25.3,2.432-50.9,3.834-76.35.472-8.73.018-5.885.032-2.568.018,3.621.059,7.242.1,10.867.073,6.334.186,12.673.268,19.007.168,13.585.163,27.17-.381,40.741-.009.15.49.023.522-.15,3.367-19.284,3.494-38.881,3.358-58.555-.027-2.659-.041-5.318-.063-7.977-.027-4.928-.354-1.96-.209.318q.483,8,.912,16.012c.571,10.672.912,21.353.944,32.043,0,.154.508.023.531-.15a160.15,160.15,0,0,0,.98-21.893c-.055-4.565-.182-9.116-.213-13.671-.009-1.525-.458-12.927.781-5.381a82.984,82.984,0,0,1,.817,13.444c-.05,2.682-.186,5.359-.431,8.027-.032.327.957-4.546,1.021-5.218.885-8.748,2-17.423,3.6-26,.036-.186-.481-.082-.517.114Z" transform="translate(-385.115 -43.916)" fill="#fff"/>
          <path id="Path_4006" data-name="Path 4006" d="M395.48,204.3c-.1-.236-.191-.485-.286-.73s-.576-.032-.5.245a43.068,43.068,0,0,1,1.375,4.946c.05.3.531.154.531-.113,0-4.066-.073-8.09-.4-12.137-.24-2.945-.88-3.3.091-.073.667,2.237,1.348,4.442,1.969,6.7.073.268.531.159.531-.122a77.766,77.766,0,0,0-1.534-17.478c1.225,5.4,3.471,12.868,5.372,19.007.086.259.544.163.536-.113a92.041,92.041,0,0,0-1.779-15.668c-.513-2.636-1.193-5.218-1.856-7.8-.458-1.738-.935-3.48-1.429-5.2.159-1.951-.281-2.827-1.3-2.6a257.934,257.934,0,0,0,11.321,30.033c.1.213.517.077.508-.177-.263-11.979-3.607-22.982-6.847-34.071-.136-.445-1.838-4.837-1.674-4.347,1.053,3.185,2.042,6.4,3.031,9.619,2.087,6.788,4.066,13.626,6.058,20.473.073.272.5.159.526-.127.59-7.822-.93-14.951-3.076-22.238-.508-1.652-1.026-3.294-1.575-4.932-.635-1.937,2.228,4.356,1.956,3.834,2.319,4.442,4.424,9.07,6.561,13.662.127.259.631,0,.485-.3-3.122-6.706-6.262-13.394-9.842-19.715-.118-.213-.6-.041-.5.245,1.348,4.065,2.654,8.135,3.78,12.319a71.315,71.315,0,0,1,1.484,7.391c.1.672.74,9.705-.023,7.074-2.918-9.987-5.853-19.964-9.088-29.788-.1-.29-.6-.122-.531.182,2.954,11.089,6.693,21.788,8.285,33.39.218,1.633,1.284,7.972-.9,2.9-1.592-3.707-3.081-7.5-4.533-11.3-2.073-5.458-3.92-11.053-5.6-16.72-.091-.309-.613-.118-.531.181,2.482,8.517,4.859,17,6.084,25.995a29.152,29.152,0,0,1,.281,5.272q-1.1-3.526-2.191-7.047-1.817-5.867-3.643-11.734c-.1-.3-.608-.118-.531.182a59.659,59.659,0,0,1,2.164,15.137c.159,5.917-2.341-5.468-2.727-6.87-.077-.3-.581-.127-.531.186a91.47,91.47,0,0,1,1.089,14.415c.027,2.877.2.585-.241-.839-.163-.54-1.438-2.432-.817-.844.1.268.6.014.476-.3Z" transform="translate(-393.875 -19.826)" fill="#fff"/>
          <path id="Path_4007" data-name="Path 4007" d="M420.136,155.56c-1.806,2.3-4.061,4.433-5.413,7.237-1.044,2.169,1.515,1.742,2.4,1.529a.228.228,0,1,0-.091-.445c-.581.141-2.4.662-1.888-.812a8.9,8.9,0,0,1,1.37-2.228c1.3-1.779,2.722-3.38,4.061-5.091.24-.3-.277-.39-.435-.191Z" transform="translate(-323.858 -42.853)" fill="#fff"/>
          <path id="Path_4008" data-name="Path 4008" d="M422.905,154.683a126.824,126.824,0,0,0-7.659,16.9c-.113.318.413.259.5.041a126,126,0,0,1,7.659-16.9c.154-.272-.376-.236-.5-.041Z" transform="translate(-321.192 -46.123)" fill="#fff"/>
          <path id="Path_4009" data-name="Path 4009" d="M427.049,153.767c-4.474,10.014-9.4,19.924-12.056,31.031-.059.245.477.15.536-.077,2.641-11.076,7.559-20.958,12-30.936.127-.286-.39-.213-.481-.018Z" transform="translate(-322.046 -49.423)" fill="#fff"/>
          <path id="Path_4010" data-name="Path 4010" d="M430.956,154.647a156.963,156.963,0,0,0-16.43,33.853c-.118.322.417.254.495.032a156.343,156.343,0,0,1,16.366-33.744c.2-.318-.3-.331-.431-.141Z" transform="translate(-323.743 -46.142)" fill="#fff"/>
          <path id="Path_4011" data-name="Path 4011" d="M427.9,156.244c-5.626,10.427-9.66,22.011-13.145,33.849-.068.231.467.154.522-.082,3.485-11.8,7.5-23.34,13.1-33.749.15-.268-.39-.213-.481-.018Z" transform="translate(-322.896 -40.634)" fill="#fff"/>
          <path id="Path_4012" data-name="Path 4012" d="M428.371,156.865a210.3,210.3,0,0,0-13.136,36.662c-.054.222.467.132.531-.091a208.829,208.829,0,0,1,13.1-36.562c.123-.263-.4-.191-.495-.009Z" transform="translate(-321.19 -38.432)" fill="#fff"/>
          <path id="Path_4013" data-name="Path 4013" d="M426.7,159c-5.345,8.63-10.613,21.212-10.985,32.506,0,.331.526.213.535-.064.368-11.162,5.586-23.7,10.89-32.27.2-.336-.3-.395-.44-.172Z" transform="translate(-319.485 -30.785)" fill="#fff"/>
          <path id="Path_4014" data-name="Path 4014" d="M418.411,162.2c-.953,3.771-2.373,8.816-1.1,12.714.082.241.6.027.531-.177-1.27-3.852.141-8.88,1.1-12.627.05-.227-.476-.136-.536.091Z" transform="translate(-315.618 -19.776)" fill="#fff"/>
          <path id="Path_4015" data-name="Path 4015" d="M413.861,167.5c-2.142,1.016-3.621,3.126-4.51,5.781-.118.358.409.313.5.068q.953-2.471,1.915-4.923c.785-2.024-1.819,2.614-2.223,3.176a63.85,63.85,0,0,0,3.344-5.849c-.014.014,1.946-3.911,1.134-2.3a58.1,58.1,0,0,0-5.776,18.345c-.059.331.395.177.485.064,4.478-6.057,7.432-13.5,9.878-21.18.113-.381-.4-.281-.508-.068a116.168,116.168,0,0,0-9.855,26.816c-.073.309.467.227.531-.059a115.083,115.083,0,0,1,5.363-17.11c.885-2.192,1.874-4.31,2.868-6.411,2.051-4.315-.5,1.552-.894,2.627a63.7,63.7,0,0,1-6.965,14.039,3.547,3.547,0,0,1,.263-2.287,66.195,66.195,0,0,1,1.81-6.811,49.306,49.306,0,0,1,4.061-9.274c.2-.354-.281-.381-.431-.177a46.693,46.693,0,0,0-5.5,9.919c-.136.34.363.263.477.118a10.808,10.808,0,0,0,2.237-4.347c.054-.318-.445-.2-.526,0-.631,1.643-1.266,3.281-1.91,4.928-.912,2.364,2.527-3.562,1.82-2.509a6.833,6.833,0,0,1,2.641-2.2c.354-.163.041-.5-.227-.372Z" transform="translate(-345.915 -25.3)" fill="#fff"/>
          <path id="Path_4016" data-name="Path 4016" d="M422.747,159.59c-8.617,10.318-11.756,25.228-14.261,39.548-.054.309.49.213.54-.059,2.473-14.252,5.576-29.044,14.161-39.316.241-.277-.281-.354-.44-.172Z" transform="translate(-345.063 -28.565)" fill="#fff"/>
          <path id="Path_4017" data-name="Path 4017" d="M419.926,161.835c-5.154,10.976-8.489,22.891-10.958,35.273-.063.345.477.277.545-.041,2.446-12.342,5.776-24.207,10.926-35.133.145-.336-.386-.372-.513-.1Z" transform="translate(-343.363 -20.915)" fill="#fff"/>
          <path id="Path_4018" data-name="Path 4018" d="M420.163,162.769c-4.311,11.021-8.716,21.77-10.953,33.849-.05.259.481.163.526-.077,2.237-12.029,6.634-22.782,10.917-33.749.118-.295-.413-.222-.49-.023Z" transform="translate(-342.502 -17.588)" fill="#fff"/>
          <path id="Path_4019" data-name="Path 4019" d="M419.538,174.432c-3.476,11.679-7.6,22.991-9.846,35.2-.05.263.476.141.526-.082a127.043,127.043,0,0,1,3.807-12.31c.032-.077,1.134-5.758,1.125-3.376a48.809,48.809,0,0,1-1.089,10.141c-.041.245.481.141.535-.091,2.645-12.1,3.3-24.583,4.733-36.966.259-2.241.172-4.882-.3-.558-.354,3.212-.685,6.429-1.016,9.642q-.864,8.358-1.76,16.711c-.032.286.463.1.522-.091,3.172-10.427,3.276-21.4,3.285-32.442,0-.209-.508-.064-.526.136-1.933,14.932-1.18,30.173-3.281,45.061-.041.259.485.145.522-.077,1.216-8.612,1.461-17.31,1.792-26.031q.245-6.806.839-13.576.538-5.363.109-.181c-.014,2.573-.082,5.15-.177,7.723a94.623,94.623,0,0,1-1.3,12.441c-.93,5.558-1.107,5.59-.5-.068.853-7.99,1.652-15.985,2.527-23.966.027-.268-.5-.141-.526.082-1.28,8.748-1.924,17.6-2.877,26.408-.481,4.451-1.18,8.843-2.015,13.195a59.75,59.75,0,0,0,1.039-10.114c0-.29-.477-.122-.526.086a97.609,97.609,0,0,1-3.095,10.209c-.7,2.033-1.343,4.084-1.937,6.175.476-1.679,1.207-3.716,1.638-5.613,2.2-9.5,5.554-18.513,8.3-27.751.063-.222-.467-.141-.526.082Z" transform="translate(-340.797 -26.379)" fill="#fff"/>
        </g>
        <g id="Group_891" data-name="Group 891">
          <g id="Group_890" data-name="Group 890">
            <g id="Group_863" data-name="Group 863">
              <g id="Group_838" data-name="Group 838">
                <path id="Path_4020" data-name="Path 4020" d="M471.533,95.463c-1.239-.295-2.464-.626-3.671-.966l12.3,7.41-.018,558.9L369.6,594.142l.023-542.655-1.012-.622-.018,543.9,112.558,67.874.036-561.358Z" transform="translate(-368.589 -50.865)" fill="#fff"/>
              </g>
              <g id="Group_839" data-name="Group 839" transform="translate(1.779 501.701)">
                <path id="Path_4021" data-name="Path 4021" d="M480.659,263.4,368.981,196.065V161.436L480.664,228.78ZM370,195.434l109.65,66.114V229.4L370,163.278Z" transform="translate(-368.981 -161.436)" fill="#fff"/>
              </g>
              <g id="Group_840" data-name="Group 840" transform="translate(14.275 509.237)">
                <path id="Path_4022" data-name="Path 4022" d="M385.243,203.389l-13.508-8.14V163.1l13.508,8.145Zm-12.491-8.775,11.479,6.924v-29.67l-11.479-6.929Z" transform="translate(-371.735 -163.097)" fill="#fff"/>
              </g>
              <g id="Group_841" data-name="Group 841" transform="translate(38.368 524.996)">
                <path id="Path_4023" data-name="Path 4023" d="M393.23,208.482l-16.185-9.76,0-32.152,16.185,9.764ZM378.061,198.1l14.157,8.539,0-29.674-14.161-8.539Z" transform="translate(-377.045 -166.57)" fill="#fff"/>
              </g>
              <g id="Group_842" data-name="Group 842" transform="translate(59.789 537.918)">
                <path id="Path_4024" data-name="Path 4024" d="M394.38,209.165l-12.614-7.6V169.418l12.614,7.6Zm-11.6-8.226,10.59,6.384v-29.67l-10.59-6.389Z" transform="translate(-381.766 -169.418)" fill="#fff"/>
              </g>
              <g id="Group_843" data-name="Group 843" transform="translate(80.32 551.53)">
                <path id="Path_4025" data-name="Path 4025" d="M399.8,211.471l-13.508-8.145V172.418l13.508,8.149ZM387.294,202.7l11.484,6.933,0-28.44L387.3,174.269Z" transform="translate(-386.291 -172.418)" fill="#fff"/>
              </g>
              <g id="Group_844" data-name="Group 844" transform="translate(100.843 561.435)">
                <path id="Path_4026" data-name="Path 4026" d="M398.968,214.135l-8.154-4.909V174.6l8.154,4.918Zm-7.146-5.536,6.135,3.689V180.146l-6.135-3.7Z" transform="translate(-390.814 -174.601)" fill="#fff"/>
              </g>
              <g id="Group_845" data-name="Group 845" transform="translate(1.779 535.087)">
                <path id="Path_4027" data-name="Path 4027" d="M481.553,246.564,368.981,178.69v-9.9l112.572,67.879ZM370,178.064l110.544,66.649V237.29L370,170.636Z" transform="translate(-368.981 -168.794)" fill="#fff"/>
              </g>
              <g id="Group_846" data-name="Group 846" transform="translate(18.208 10.767)">
                <path id="Path_4028" data-name="Path 4028" d="M392.766,567.467l-19.152-11.534.022-502.191c-.345-.154-.667-.34-1.007-.5L372.6,556.554l21.176,12.764L393.8,61.954c-.345-.163-.681-.322-1.012-.486Z" transform="translate(-372.602 -53.238)" fill="#fff"/>
              </g>
              <g id="Group_847" data-name="Group 847" transform="translate(71.459 35.732)">
                <path id="Path_4029" data-name="Path 4029" d="M409.176,65.75c-.386-.127-.781-.254-1.166-.386a1.967,1.967,0,0,1-.236.032l.1.068-.34,127.913-.091,64.4.036,64.476c-.032,42.946.2,86.051.322,129.093l.213,64.589L408.4,580.5l-22.873-14.03q.245-31.9.331-63.886l.131-32.152.059-32.2.091-64.394-.109-64.526c-.154-43.055-.431-86.192-.449-129.17-.077-21.53.036-42.951.073-64.408l.132-56.558c-.354-.141-.712-.286-1.071-.436l.127,56.5c.032,21.5.141,43.055.063,64.49-.014,42.951-.3,85.756-.458,128.63l-.113,64.385.091,64.5.05,32.256.123,32.311q.122,32.295.34,64.648v.367l.286.168,23.385,13.871.381-64.349.227-64.317c.127-42.9.358-85.724.331-128.707l.045-64.431-.086-64.5Z" transform="translate(-384.338 -58.74)" fill="#fff"/>
              </g>
              <g id="Group_856" data-name="Group 856" transform="translate(39.992 19.783)">
                <g id="Group_848" data-name="Group 848" transform="translate(0.014)">
                  <path id="Path_4030" data-name="Path 4030" d="M382.937,57.594q-.02,14.905-.009,29.833c.036,10.087.036,20.159.1,30.273q-2.722-1.79-5.449-3.462l.036-14.9L377.578,84.2l-.032-15.146.027-13.771-.127-.059.032,13.789-.045,15.1-.027,15.1.027,15.137v.2l.073.041q2.77,1.647,5.536,3.167l.009.009v-.032c.068-10.037.073-20.123.1-30.183q.027-14.926-.009-29.879C383.078,57.652,383.014,57.621,382.937,57.594Z" transform="translate(-377.406 -55.225)" fill="#fff"/>
                  <path id="Path_4031" data-name="Path 4031" d="M382.5,57.983l3.081,1.915q-.027,14.966,0,29.938c.023,10.091.032,20.173.091,30.273l-3.217-2.069-3.144-1.951.027-14.9L379.3,86.055l-.027-15.137.027-14.81-.127-.073.032,14.837-.041,15.1-.027,15.1.023,15.137v.209l.082.05,3.217,1.888,3.244,1.824v-.027c.063-10.046.068-20.119.1-30.178q.014-15.069,0-30.16C384.692,59.208,383.585,58.6,382.5,57.983Z" transform="translate(-371.293 -52.356)" fill="#fff"/>
                  <path id="Path_4032" data-name="Path 4032" d="M386.7,60.206l-.109-.059L384.111,58.7c-1.034-.544-2.078-1.075-3.108-1.629L381.03,72.2l-.036,15.1-.032,15.1.032,15.141v.2l.064.045q2.77,1.64,5.536,3.167l.014,0v-.032c.063-10.041.063-20.119.1-30.174q.013-15.116-.009-30.251Zm-5.567,57.225.032-14.905-.032-15.137L381.1,72.248l.032-14.928,5.359,3.34q-.02,14.966-.013,29.951c.045,10.091.045,20.159.109,30.269C384.764,119.691,382.954,118.543,381.134,117.431Z" transform="translate(-364.827 -48.681)" fill="#fff"/>
                  <path id="Path_4033" data-name="Path 4033" d="M389.232,122.619c-.059-10.1-.064-20.169-.1-30.269q-.014-15.123.018-30.232l.1.363-6.452-4.016.063-.141-.027,15.1.032,15.141.032,15.141-.032,15.109-.068-.259,3.226,2Zm.018.082-3.23-1.824-3.226-1.892-.082-.045v-.209l-.023-15.137.032-15.1.032-15.1-.023-15.141v-.172l.064.036,6.452,3.771.113.064v.3q.014,15.13,0,30.246c-.036,10.055-.036,20.132-.1,30.178Z" transform="translate(-358.718 -45.144)" fill="#fff"/>
                </g>
                <g id="Group_849" data-name="Group 849" transform="translate(0.014 61.949)">
                  <path id="Path_4034" data-name="Path 4034" d="M383.023,132.868c-.059-10.114-.059-20.178-.1-30.264q-.014-15.137.014-30.241l.1.349-5.536-3.448.068-.136-.036,15.1.036,15.146.041,15.132-.041,15.1-.068-.245C379.343,130.5,381.19,131.666,383.023,132.868Zm.009.073c-1.842-1.012-3.68-2.074-5.526-3.167l-.073-.045v-.2l-.027-15.146.027-15.1.036-15.1-.023-15.141v-.172l.059.036,5.536,3.222.1.054v.3q.027,15.137.009,30.246c-.032,10.059-.036,20.137-.1,30.183v.027Z" transform="translate(-377.406 -68.878)" fill="#fff"/>
                  <path id="Path_4035" data-name="Path 4035" d="M385.676,134.469c-.068-10.109-.068-20.182-.1-30.273s-.018-20.169.009-30.237l.1.358-6.448-4.007.059-.141-.027,15.1.027,15.146.032,15.141-.018,15.1-.073-.254,3.217,2Zm.018.073-3.235-1.829-3.217-1.888-.082-.045v-.209l-.027-15.141.032-15.1.036-15.1-.036-15.141V69.92l.077.036,6.448,3.771.109.059v.3q.02,15.137,0,30.242c-.036,10.064-.036,20.141-.109,30.183Z" transform="translate(-371.297 -65.192)" fill="#fff"/>
                  <path id="Path_4036" data-name="Path 4036" d="M386.579,135c-.064-10.1-.068-20.173-.1-30.264q-.014-15.13.009-30.237l.109.358L381.057,71.4l.073-.136-.032,15.1.036,15.141.032,15.141-.032,15.1-.077-.25C382.895,132.645,384.742,133.8,386.579,135Zm.009.073q-2.756-1.518-5.531-3.163l-.073-.045v-.2l-.023-15.141.032-15.1.032-15.1L381,71.2v-.172l.055.032,5.536,3.222.1.059v.295q.02,15.13.014,30.246c-.041,10.055-.041,20.137-.1,30.178v.032Z" transform="translate(-364.827 -61.29)" fill="#fff"/>
                  <path id="Path_4037" data-name="Path 4037" d="M389.232,136.6c-.064-10.1-.073-20.169-.1-30.264q-.014-15.13.018-30.237l.1.363-6.447-4.016.059-.141-.027,15.109.032,15.141.036,15.137-.032,15.1-.077-.259,3.235,2Zm.014.082-3.226-1.824-3.235-1.892-.073-.041v-.213l-.023-15.141.032-15.1.032-15.1-.023-15.137-.009-.168.073.027,6.447,3.775.109.064v.295q.027,15.137.009,30.246c-.036,10.055-.036,20.137-.109,30.173Z" transform="translate(-358.718 -57.604)" fill="#fff"/>
                </g>
                <g id="Group_850" data-name="Group 850" transform="translate(0.014 125.422)">
                  <path id="Path_4038" data-name="Path 4038" d="M383.023,146.857c-.059-10.1-.059-20.182-.1-30.273q-.014-15.13.014-30.228l.1.345-5.526-3.448.068-.141-.036,15.109.036,15.146.032,15.137-.032,15.1-.068-.245C379.343,144.484,381.19,145.65,383.023,146.857Zm.009.068q-2.763-1.525-5.526-3.167l-.073-.045v-.2l-.027-15.137.027-15.1.036-15.1-.027-15.137v-.177l.064.032,5.526,3.217.109.068v.29q.027,15.143.009,30.246c-.036,10.064-.041,20.141-.1,30.183v.027Z" transform="translate(-377.406 -82.867)" fill="#fff"/>
                  <path id="Path_4039" data-name="Path 4039" d="M385.679,148.452c-.068-10.1-.068-20.178-.1-30.264s-.018-20.173.009-30.246l.1.368L379.245,84.3l.055-.141-.032,15.109L379.3,114.4l.032,15.141-.027,15.1-.073-.259,3.226,2Zm.018.077-3.235-1.824-3.226-1.888-.077-.05v-.213l-.027-15.137.036-15.091.036-15.109-.036-15.132v-.177l.077.036,6.438,3.766.118.064v.3q.02,15.137,0,30.246c-.032,10.064-.036,20.141-.1,30.183Z" transform="translate(-371.301 -79.185)" fill="#fff"/>
                  <path id="Path_4040" data-name="Path 4040" d="M386.583,149.008c-.068-10.109-.068-20.187-.1-30.273q-.014-15.13.009-30.232l.1.349L381.061,85.4l.063-.136-.032,15.1.041,15.137.036,15.146-.036,15.1-.073-.236Q383.817,147.2,386.583,149.008Zm.009.073c-1.847-1.012-3.684-2.074-5.531-3.167l-.073-.041v-.2l-.027-15.146.027-15.1.041-15.1L381,85.2v-.186l.064.045,5.531,3.212.1.068v.286q.027,15.15.009,30.255c-.032,10.055-.041,20.137-.1,30.169v.041Z" transform="translate(-364.831 -75.29)" fill="#fff"/>
                  <path id="Path_4041" data-name="Path 4041" d="M389.235,150.6c-.073-10.114-.073-20.182-.1-30.273q-.014-15.123.009-30.237l.1.368-6.452-4.011.068-.15-.027,15.109.027,15.141.041,15.137-.032,15.1-.081-.254,3.231,2Zm.014.073-3.235-1.824-3.231-1.892-.068-.041V146.7l-.027-15.128.027-15.114.041-15.1-.032-15.128v-.181l.063.032,6.452,3.775.113.064v.295q.027,15.137,0,30.246c-.027,10.059-.032,20.137-.1,30.183Z" transform="translate(-358.722 -71.6)" fill="#fff"/>
                </g>
                <g id="Group_851" data-name="Group 851" transform="translate(0.004 188.886)">
                  <path id="Path_4042" data-name="Path 4042" d="M383.026,160.854c-.055-10.114-.059-20.182-.1-30.282q-.007-15.116.014-30.228l.1.345-5.526-3.444.063-.136-.032,15.1.036,15.146.032,15.137-.032,15.1-.077-.24Q380.274,159.036,383.026,160.854Zm.009.068q-2.756-1.525-5.531-3.176l-.064-.036v-.2l-.036-15.137.036-15.1.032-15.1-.023-15.141-.009-.177.073.045,5.526,3.212.109.059v.3q.013,15.123.009,30.246c-.041,10.064-.045,20.137-.109,30.178v.032Z" transform="translate(-377.404 -96.854)" fill="#fff"/>
                  <path id="Path_4043" data-name="Path 4043" d="M385.675,162.44c-.064-10.1-.068-20.178-.1-30.264s-.018-20.169.009-30.242l.091.363-6.443-4.016.064-.136-.036,15.1.041,15.141.032,15.137-.032,15.114-.068-.263,3.226,2Zm.023.082-3.235-1.829-3.226-1.892-.077-.036v-.222l-.027-15.128.032-15.109.032-15.1-.027-15.141V97.9l.068.041,6.443,3.766.113.059v.3q.034,15.137.009,30.246c-.036,10.059-.036,20.132-.1,30.183Z" transform="translate(-371.291 -93.168)" fill="#fff"/>
                  <path id="Path_4044" data-name="Path 4044" d="M386.574,162.985c-.059-10.1-.068-20.178-.1-30.269q-.014-15.137.009-30.237l.1.358-5.531-3.453.059-.132-.027,15.1.041,15.141.036,15.15-.036,15.1-.077-.245Q383.82,161.186,386.574,162.985Zm.018.077q-2.77-1.525-5.536-3.172l-.068-.045v-.191l-.027-15.146.027-15.1.041-15.1L381,99.171V99l.064.036,5.531,3.222.1.059v.29q.027,15.137.009,30.251c-.041,10.055-.041,20.132-.109,30.173v.036Z" transform="translate(-364.822 -89.266)" fill="#fff"/>
                  <path id="Path_4045" data-name="Path 4045" d="M389.226,164.585c-.064-10.114-.068-20.178-.1-30.269q-.014-15.137.009-30.246l.109.368-6.457-4.011.068-.141-.023,15.1.027,15.141.032,15.141-.027,15.1-.077-.259,3.231,2.006Zm.023.073-3.235-1.819-3.231-1.9-.073-.036v-.209l-.023-15.137.027-15.1.041-15.1-.032-15.132v-.172l.059.032,6.457,3.775.113.059v.3q.027,15.13,0,30.246c-.032,10.059-.045,20.132-.1,30.178Z" transform="translate(-358.713 -85.58)" fill="#fff"/>
                </g>
                <g id="Group_852" data-name="Group 852" transform="translate(0.004 252.355)">
                  <path id="Path_4046" data-name="Path 4046" d="M383.026,174.837c-.059-10.109-.068-20.178-.1-30.273q-.007-15.13.014-30.232l.1.354-5.531-3.448.064-.141-.027,15.109.041,15.141.032,15.141-.032,15.1-.077-.25C379.351,172.468,381.188,173.639,383.026,174.837Zm.009.073q-2.756-1.525-5.531-3.167l-.068-.041v-.2l-.032-15.137.032-15.1.036-15.1-.032-15.137v-.182l.064.041,5.531,3.222.114.059v.295q.013,15.13,0,30.246c-.036,10.059-.036,20.137-.1,30.187v.018Z" transform="translate(-377.404 -110.842)" fill="#fff"/>
                  <path id="Path_4047" data-name="Path 4047" d="M385.675,176.421c-.064-10.1-.073-20.178-.1-30.26q-.013-15.143.009-30.242l.1.363-6.443-4.02.059-.132-.032,15.1.036,15.141.027,15.146-.023,15.1-.068-.259,3.226,2Zm.018.082-3.231-1.824-3.226-1.9-.082-.041v-.209l-.023-15.141.032-15.1.032-15.1-.027-15.137v-.168l.068.032,6.443,3.766.113.068v.295q.02,15.137.009,30.242c-.036,10.064-.045,20.146-.109,30.183Z" transform="translate(-371.291 -107.149)" fill="#fff"/>
                  <path id="Path_4048" data-name="Path 4048" d="M386.581,176.982c-.068-10.114-.068-20.182-.1-30.278s-.009-20.16,0-30.232l.113.354-5.536-3.453.064-.136-.027,15.1.036,15.141.032,15.141-.036,15.1-.068-.241Q383.827,175.165,386.581,176.982Zm.014.064q-2.763-1.518-5.531-3.163l-.068-.045,0-.2-.032-15.137L381,143.4l.032-15.1L381,113.168v-.182l.059.036,5.536,3.226.1.054v.295q.027,15.137.009,30.246c-.041,10.055-.041,20.137-.109,30.183v.032Z" transform="translate(-364.829 -103.254)" fill="#fff"/>
                  <path id="Path_4049" data-name="Path 4049" d="M389.226,178.573c-.068-10.1-.068-20.182-.1-30.269q-.014-15.137.009-30.242l.109.368-6.461-4.016.063-.141-.023,15.109.032,15.137.036,15.141-.027,15.1-.082-.254,3.235,1.987Zm.018.077-3.23-1.829-3.235-1.892-.073-.036v-.213l-.018-15.141.027-15.1.032-15.1-.023-15.132v-.177l.054.027,6.461,3.775.1.068v.29q.027,15.15.009,30.251c-.045,10.055-.045,20.132-.109,30.178Z" transform="translate(-358.713 -99.568)" fill="#fff"/>
                </g>
                <g id="Group_853" data-name="Group 853" transform="translate(0.004 315.828)">
                  <path id="Path_4050" data-name="Path 4050" d="M383.026,188.821c-.068-10.1-.068-20.178-.1-30.273q-.014-15.116.014-30.232l.1.358-5.531-3.457.064-.136-.027,15.109.036,15.141.027,15.141-.027,15.1-.073-.241Q380.26,187.006,383.026,188.821Zm0,.073c-1.833-1.012-3.68-2.074-5.527-3.167l-.073-.041v-.2l-.027-15.141.032-15.1.036-15.1-.032-15.132v-.177l.064.036,5.531,3.217.1.064.009.3q.013,15.123,0,30.242c-.036,10.064-.041,20.137-.109,30.178v.032Z" transform="translate(-377.404 -124.831)" fill="#fff"/>
                  <path id="Path_4051" data-name="Path 4051" d="M385.674,190.424c-.064-10.109-.068-20.178-.109-30.269q-.014-15.137.018-30.237l.1.363-6.443-4.016.054-.136-.027,15.1.032,15.141.032,15.141-.023,15.1-.077-.25,3.226,2Zm.018.082-3.235-1.829-3.226-1.892-.073-.045v-.209l-.027-15.141.032-15.1.027-15.1-.023-15.141v-.182l.073.05,6.443,3.761.1.064v.3q.034,15.13.009,30.237c-.036,10.068-.041,20.141-.1,30.183Z" transform="translate(-371.295 -121.152)" fill="#fff"/>
                  <path id="Path_4052" data-name="Path 4052" d="M386.581,190.965c-.068-10.109-.068-20.178-.1-30.269q-.013-15.123.009-30.242l.109.358-5.531-3.448.064-.136-.032,15.1.032,15.146.041,15.141-.041,15.091-.068-.236C382.9,188.6,384.738,189.768,386.581,190.965Zm.014.077c-1.851-1.021-3.689-2.074-5.536-3.172l-.068-.041,0-.2-.027-15.141.032-15.1.036-15.1L381,127.147v-.172l.068.036,5.531,3.222.109.059v.295q.014,15.137,0,30.251c-.036,10.055-.045,20.132-.109,30.173v.032Z" transform="translate(-364.829 -117.247)" fill="#fff"/>
                  <path id="Path_4053" data-name="Path 4053" d="M389.23,192.565c-.068-10.114-.073-20.178-.1-30.273q-.014-15.13.009-30.232l.109.358-6.461-4.016.063-.136-.027,15.1.036,15.141.036,15.141-.032,15.1-.077-.259,3.226,2.006Zm.014.082-3.235-1.833-3.226-1.888-.073-.045v-.218l-.023-15.132.032-15.1.032-15.1-.032-15.132v-.177l.064.036,6.461,3.766.1.064v.3q.041,15.13.009,30.241c-.036,10.059-.036,20.137-.1,30.183Z" transform="translate(-358.716 -113.561)" fill="#fff"/>
                </g>
                <g id="Group_854" data-name="Group 854" transform="translate(0 379.296)">
                  <path id="Path_4054" data-name="Path 4054" d="M383.025,202.809c-.063-10.1-.068-20.182-.1-30.269q-.014-15.13.009-30.237l.1.358-5.527-3.448.064-.141-.027,15.109.032,15.132.032,15.146-.036,15.1-.064-.245Q380.257,201,383.025,202.809Zm.009.077c-1.842-1.021-3.689-2.069-5.527-3.176l-.073-.036v-.2l-.032-15.137.032-15.1.041-15.1L377.444,139v-.177l.064.041,5.527,3.221.109.055v.295q.027,15.137.009,30.251c-.041,10.059-.041,20.141-.109,30.183v.027Z" transform="translate(-377.403 -138.819)" fill="#fff"/>
                  <path id="Path_4055" data-name="Path 4055" d="M385.674,204.418c-.068-10.114-.077-20.187-.109-30.278q-.014-15.13.009-30.237l.109.368-6.452-4.016.063-.136-.027,15.1.027,15.137.036,15.141-.027,15.1-.082-.25,3.226,1.992Zm.014.068-3.24-1.824-3.226-1.888-.073-.045v-.213l-.018-15.137.032-15.1.027-15.1-.023-15.137v-.181l.063.041,6.452,3.766.1.068v.3q.034,15.13,0,30.242c-.032,10.059-.032,20.141-.1,30.187Z" transform="translate(-371.29 -135.137)" fill="#fff"/>
                  <path id="Path_4056" data-name="Path 4056" d="M386.58,204.95c-.063-10.1-.068-20.173-.1-30.269q-.02-15.123.009-30.233l.109.354-5.536-3.448.063-.141-.027,15.1.032,15.137.032,15.146-.032,15.1-.073-.245Q383.821,203.151,386.58,204.95Zm.014.077q-2.77-1.524-5.536-3.167l-.068-.045v-.2l-.032-15.141.032-15.1.032-15.1L381,141.136v-.172l.063.032,5.536,3.222.1.064v.286q.027,15.15.009,30.251c-.041,10.059-.041,20.141-.1,30.187v.023Z" transform="translate(-364.828 -131.231)" fill="#fff"/>
                  <path id="Path_4057" data-name="Path 4057" d="M389.232,206.553c-.063-10.114-.073-20.182-.1-30.273s-.009-20.164,0-30.237l.113.363-6.457-4.016.059-.136-.023,15.109.027,15.132.036,15.146-.027,15.1-.077-.259,3.23,2Zm.018.077-3.235-1.829-3.23-1.892-.068-.041v-.218l-.032-15.132.036-15.1.027-15.1-.023-15.137v-.177l.064.041,6.457,3.766.1.059v.3q.041,15.137.009,30.246c-.036,10.059-.036,20.141-.1,30.187Z" transform="translate(-358.719 -127.549)" fill="#fff"/>
                </g>
                <g id="Group_855" data-name="Group 855" transform="translate(0 442.77)">
                  <path id="Path_4058" data-name="Path 4058" d="M383.025,216.8c-.068-10.109-.068-20.187-.1-30.282q-.02-15.116,0-30.232l.109.354-5.527-3.444.054-.136-.027,15.1.036,15.146.027,15.137-.027,15.1-.068-.245Q380.259,214.988,383.025,216.8Zm0,.068c-1.838-1.012-3.689-2.074-5.527-3.167l-.068-.041v-.209l-.032-15.137.032-15.1.041-15.1-.032-15.137,0-.172.068.041,5.527,3.217.1.059v.3q.027,15.13.018,30.242c-.041,10.059-.041,20.132-.114,30.183v.023Z" transform="translate(-377.403 -152.808)" fill="#fff"/>
                  <path id="Path_4059" data-name="Path 4059" d="M385.665,218.394c-.059-10.1-.068-20.182-.1-30.269q-.014-15.137.009-30.242l.109.363-6.461-4.011.064-.136-.027,15.1.036,15.141.027,15.137L379.3,214.6l-.082-.259,3.226,1.987Zm.018.077-3.235-1.829-3.226-1.888-.073-.05V214.5l-.018-15.137.032-15.1.027-15.1-.023-15.137v-.172l.054.032,6.461,3.771.1.063v.3q.034,15.137,0,30.241c-.032,10.064-.041,20.132-.1,30.183Z" transform="translate(-371.29 -149.122)" fill="#fff"/>
                  <path id="Path_4060" data-name="Path 4060" d="M386.587,218.947c-.068-10.118-.068-20.182-.1-30.278q-.02-15.13.009-30.232l.1.349-5.536-3.444.068-.136-.036,15.1.041,15.146.032,15.137-.032,15.1-.073-.24C382.907,216.574,384.74,217.736,386.587,218.947Zm0,.068c-1.838-1.021-3.684-2.069-5.526-3.167l-.068-.041v-.2l-.041-15.141.041-15.1.032-15.091-.023-15.141v-.172l.059.036,5.536,3.217.1.059v.3q.027,15.13.009,30.246c-.041,10.059-.041,20.141-.1,30.178v.032Z" transform="translate(-364.835 -145.224)" fill="#fff"/>
                  <path id="Path_4061" data-name="Path 4061" d="M389.232,220.538c-.073-10.109-.073-20.173-.109-30.273q-.014-15.13.009-30.237l.113.358-6.461-4.007.063-.136-.032,15.1.036,15.141.036,15.137-.027,15.114-.077-.263,3.221,2Zm.018.077-3.244-1.824-3.221-1.892-.077-.041v-.218l-.023-15.132.032-15.1.032-15.1-.023-15.141v-.168l.059.036,6.461,3.766.1.059v.309q.027,15.13,0,30.242c-.027,10.055-.032,20.132-.1,30.173Z" transform="translate(-358.719 -141.538)" fill="#fff"/>
                </g>
              </g>
              <g id="Group_857" data-name="Group 857" transform="translate(1.533 51.774)">
                <path id="Path_4062" data-name="Path 4062" d="M384.112,76.374,368.927,67.22V62.276l15.185,9.15Z" transform="translate(-368.927 -62.276)" fill="#fff"/>
              </g>
              <g id="Group_858" data-name="Group 858" transform="translate(97.675 110.357)">
                <path id="Path_4063" data-name="Path 4063" d="M405.294,88.051,390.116,78.9V75.187l15.178,9.154Z" transform="translate(-390.116 -75.187)" fill="#fff"/>
              </g>
              <g id="Group_859" data-name="Group 859" transform="translate(0.684 244.616)">
                <path id="Path_4064" data-name="Path 4064" d="M387.292,128.029,368.74,116.838V104.776l18.552,11.191Z" transform="translate(-368.74 -104.776)" fill="#fff"/>
              </g>
              <g id="Group_860" data-name="Group 860" transform="translate(96.822 302.165)">
                <path id="Path_4065" data-name="Path 4065" d="M405.1,138.688l-15.174-9.15V117.46l15.179,9.15Z" transform="translate(-389.928 -117.46)" fill="#fff"/>
              </g>
              <g id="Group_861" data-name="Group 861" transform="translate(0.676 437.097)">
                <path id="Path_4066" data-name="Path 4066" d="M387.286,170.446l-18.548-11.2V147.2l18.552,11.187Z" transform="translate(-368.738 -147.198)" fill="#fff"/>
              </g>
              <g id="Group_862" data-name="Group 862" transform="translate(96.814 494.638)">
                <path id="Path_4067" data-name="Path 4067" d="M405.1,181.112l-15.176-9.15V159.88l15.176,9.158Z" transform="translate(-389.926 -159.88)" fill="#fff"/>
              </g>
            </g>
            <g id="Group_889" data-name="Group 889" transform="translate(112.754 6.838)">
              <g id="Group_864" data-name="Group 864" transform="translate(1.765)">
                <path id="Path_4068" data-name="Path 4068" d="M505.384,52.617l.023,535.237L394.863,654.508,394.84,95.622l4.941-2.976c-.331,0-.635.032-.985.018-.322-.018-.64-.059-.962-.082l-4.007,2.409.018,561.367L506.414,588.48,506.4,52.372C506.064,52.458,505.719,52.535,505.384,52.617Z" transform="translate(-393.828 -52.372)" fill="#fff"/>
              </g>
              <g id="Group_865" data-name="Group 865" transform="translate(0.898 493.91)">
                <path id="Path_4069" data-name="Path 4069" d="M393.637,228.565l111.674-67.339v34.625L393.637,263.19Zm110.662-65.5L394.64,229.191l0,32.147L504.3,195.22Z" transform="translate(-393.637 -161.226)" fill="#fff"/>
              </g>
              <g id="Group_866" data-name="Group 866" transform="translate(86.568 501.447)">
                <path id="Path_4070" data-name="Path 4070" d="M412.518,171.027l13.508-8.14v32.147l-13.508,8.14Zm12.5-6.3-11.489,6.929v29.67l11.489-6.919Z" transform="translate(-412.518 -162.887)" fill="#fff"/>
              </g>
              <g id="Group_867" data-name="Group 867" transform="translate(59.793 517.214)">
                <path id="Path_4071" data-name="Path 4071" d="M406.617,176.113l16.185-9.751,0,32.143-16.189,9.76ZM421.79,168.2l-14.166,8.539v29.674l14.166-8.539Z" transform="translate(-406.617 -166.362)" fill="#fff"/>
              </g>
              <g id="Group_868" data-name="Group 868" transform="translate(41.948 530.127)">
                <path id="Path_4072" data-name="Path 4072" d="M402.684,176.813l12.609-7.6.009,32.152-12.614,7.6Zm11.6-5.753-10.595,6.38v29.67l10.595-6.375Z" transform="translate(-402.684 -169.208)" fill="#fff"/>
              </g>
              <g id="Group_869" data-name="Group 869" transform="translate(20.532 543.744)">
                <path id="Path_4073" data-name="Path 4073" d="M397.964,180.344l13.5-8.135v30.9l-13.5,8.149Zm12.491-6.293-11.484,6.919.009,28.44,11.475-6.92Z" transform="translate(-397.964 -172.209)" fill="#fff"/>
              </g>
              <g id="Group_870" data-name="Group 870" transform="translate(5.359 553.645)">
                <path id="Path_4074" data-name="Path 4074" d="M394.62,179.3l8.149-4.914v34.625l-8.149,4.909Zm7.137-3.072-6.126,3.7v32.147l6.13-3.7Z" transform="translate(-394.62 -174.391)" fill="#fff"/>
              </g>
              <g id="Group_871" data-name="Group 871" transform="translate(0 527.296)">
                <path id="Path_4075" data-name="Path 4075" d="M393.439,236.463l112.572-67.879v9.891L393.439,246.354ZM505,170.431,394.451,237.089V244.5L505,177.849Z" transform="translate(-393.439 -168.584)" fill="#fff"/>
              </g>
              <g id="Group_872" data-name="Group 872" transform="translate(74.948 6.189)">
                <path id="Path_4076" data-name="Path 4076" d="M430.9,53.818c-.268.1-.526.222-.79.327l.023,499.065-19.148,11.552-.023-503.039c-.336.15-.672.295-1.007.445l.018,504.437,21.171-12.768-.018-500.1C431.056,53.763,430.974,53.79,430.9,53.818Z" transform="translate(-409.957 -53.736)" fill="#fff"/>
              </g>
              <g id="Group_873" data-name="Group 873" transform="translate(17.637 26.439)">
                <path id="Path_4077" data-name="Path 4077" d="M422,180.69c-.073-21.435.036-42.982.068-64.494l.132-58c-.363.1-.717.213-1.075.313l.136,58.174c.036,21.466.145,42.883.068,64.412-.018,42.978-.295,86.119-.445,129.179l-.113,64.521.091,64.394.059,32.193.122,32.152q.136,31.968.34,63.9l-22.877,14.02.39-64.557.213-64.589c.123-43.041.354-86.146.322-129.093l.036-64.48-.086-64.394-.345-127.917.762-.467a19,19,0,0,1-2.06.8l-.327,128.766-.091,64.508.041,64.431c-.023,42.992.2,85.815.336,128.7l.213,64.317.395,64.349,23.377-13.857.3-.182v-.354q.252-32.39.336-64.662l.122-32.3.05-32.256.091-64.508-.118-64.385C422.313,266.446,422.032,223.649,422,180.69Z" transform="translate(-397.326 -58.199)" fill="#fff"/>
              </g>
              <g id="Group_882" data-name="Group 882" transform="translate(43.698 14.901)">
                <g id="Group_874" data-name="Group 874">
                  <path id="Path_4078" data-name="Path 4078" d="M414.239,66.537l.018-10.881a.543.543,0,0,0-.1.05l.018,10.872-.036,15.141L414.1,96.864l.032,14.9q-2.716,1.667-5.449,3.453c.068-10.114.068-20.182.1-30.273q.007-13.5-.009-26.979a2.036,2.036,0,0,1-.218.077q-.014,13.544,0,27.043c.036,10.059.036,20.137.1,30.178v.036l.018-.018c1.833-1.012,3.684-2.06,5.531-3.163l.064-.045v-.2l.032-15.141Z" transform="translate(-383.665 -55.656)" fill="#fff"/>
                  <path id="Path_4079" data-name="Path 4079" d="M413.232,68.746l.023-12.378-.118.045.023,12.373-.054,30.278.018,14.9-3.144,1.956-3.222,2.06c.064-10.1.068-20.178.1-30.269q.02-14.5-.009-28.98c-.063.027-.145.054-.209.077q-.027,14.531-.009,29.044c.041,10.059.041,20.132.1,30.178v.032l3.249-1.824,3.217-1.9.082-.041v-.213l.023-15.137-.041-15.1Z" transform="translate(-390.495 -53.137)" fill="#fff"/>
                  <path id="Path_4080" data-name="Path 4080" d="M410.692,71.362l.023-14.32-.123.045.023,14.315-.032,15.146-.036,15.141.036,14.905q-2.729,1.661-5.454,3.448c.073-10.109.073-20.182.109-30.273q.007-14.987-.018-29.947l2.908-1.81c-.735.277-1.47.563-2.214.83l-.794.467-.1.054v.295Q404.986,74.8,405,89.911c.045,10.059.045,20.132.109,30.178v.036l.018-.014c1.838-1.012,3.684-2.074,5.522-3.172l.073-.036v-.2l.032-15.141-.032-15.1Z" transform="translate(-396.244 -50.753)" fill="#fff"/>
                  <path id="Path_4081" data-name="Path 4081" d="M406.415,120.349l3.226-2-.077.25-.023-15.1.032-15.141.032-15.141-.023-15.109.059.141-6.452,4.016.1-.368q.034,15.116.009,30.246c-.036,10.087-.036,20.16-.1,30.264Zm-3.24,2.11c-.059-10.046-.068-20.119-.1-30.183s-.014-20.155,0-30.246v-.295l.109-.064,6.452-3.771.063-.036v.172l-.027,15.137.036,15.1.032,15.109-.023,15.137v.209l-.082.036-3.226,1.9-3.24,1.824Z" transform="translate(-403.07 -47.842)" fill="#fff"/>
                </g>
                <g id="Group_875" data-name="Group 875" transform="translate(0 59.04)">
                  <path id="Path_4082" data-name="Path 4082" d="M414.211,129.16l-.068.245-.041-15.1.032-15.137.041-15.146-.032-15.1.068.145L408.68,72.5l.1-.354q.014,15.109,0,30.242c-.036,10.087-.036,20.164-.1,30.269Q411.453,130.848,414.211,129.16Zm-5.549,3.575V132.7c-.063-10.041-.063-20.119-.1-30.178q-.014-15.116,0-30.251v-.29l.118-.059,5.531-3.226.064-.032v.177l-.032,15.132.032,15.1.036,15.1-.027,15.141v.2l-.073.05c-1.847,1.1-3.684,2.146-5.531,3.163Z" transform="translate(-383.665 -68.668)" fill="#fff"/>
                  <path id="Path_4083" data-name="Path 4083" d="M409.978,132.2l3.226-2.006-.077.263-.023-15.1.023-15.146.036-15.137-.027-15.1.059.136-6.443,4.02.1-.363q.034,15.1,0,30.237c-.032,10.091-.036,20.164-.1,30.269Zm-3.24,2.11c-.068-10.041-.068-20.119-.1-30.183s-.018-20.15,0-30.242v-.3l.109-.068,6.443-3.766.064-.041v.182l-.018,15.132.027,15.1.032,15.1-.014,15.137-.009.209-.073.045-3.226,1.892-3.24,1.829Z" transform="translate(-390.493 -64.989)" fill="#fff"/>
                  <path id="Path_4084" data-name="Path 4084" d="M410.654,131.312l-.073.24-.032-15.1.032-15.132.036-15.141-.027-15.109.059.141-5.522,3.448.1-.354q.027,15.1.018,30.232c-.041,10.091-.041,20.164-.109,30.273C406.969,133.6,408.816,132.428,410.654,131.312Zm-5.545,3.571v-.032c-.059-10.041-.063-20.119-.1-30.178q-.014-15.109.014-30.246v-.295l.109-.059,5.522-3.222.063-.041v.182l-.023,15.137.032,15.1.032,15.1-.032,15.132v.2l-.068.05c-1.842,1.089-3.684,2.151-5.526,3.158Z" transform="translate(-396.242 -61.087)" fill="#fff"/>
                  <path id="Path_4085" data-name="Path 4085" d="M406.419,134.334l3.222-2-.068.25-.027-15.1.036-15.137L409.6,87.2l-.023-15.1.059.136-6.452,4.016.1-.363q.034,15.1.009,30.246c-.032,10.082-.036,20.16-.1,30.264Zm-3.235,2.105c-.068-10.041-.068-20.119-.1-30.178q-.02-15.1,0-30.246v-.3l.1-.059,6.452-3.771.063-.032v.172l-.023,15.137.032,15.1.032,15.1-.022,15.141v.2l-.082.05-3.222,1.9-3.235,1.819Z" transform="translate(-403.07 -57.398)" fill="#fff"/>
                </g>
                <g id="Group_876" data-name="Group 876" transform="translate(0.001 122.509)">
                  <path id="Path_4086" data-name="Path 4086" d="M414.209,143.157l-.068.236-.036-15.1.036-15.146.032-15.141-.023-15.1.059.132L408.678,86.5l.1-.358q.014,15.109.009,30.232c-.027,10.1-.036,20.169-.1,30.278C410.529,145.444,412.367,144.273,414.209,143.157Zm-5.54,3.566V146.7c-.068-10.046-.073-20.123-.109-30.178q-.014-15.116.009-30.251v-.3l.109-.054,5.531-3.226.064-.032v.172l-.027,15.141.036,15.1.027,15.1-.027,15.141v.2l-.073.041q-2.763,1.64-5.526,3.167Z" transform="translate(-383.663 -82.656)" fill="#fff"/>
                  <path id="Path_4087" data-name="Path 4087" d="M409.975,146.181l3.226-2-.077.254-.023-15.1.032-15.137.032-15.141-.032-15.114.068.145L406.749,88.1l.1-.363q.034,15.1.009,30.232c-.036,10.1-.036,20.169-.1,30.269Zm-3.231,2.11c-.077-10.041-.077-20.119-.109-30.173q-.027-15.116,0-30.251v-.3l.109-.059,6.452-3.771.054-.036v.182l-.018,15.132.036,15.1.032,15.1-.023,15.137v.213l-.081.045-3.226,1.9-3.231,1.824Z" transform="translate(-390.492 -78.974)" fill="#fff"/>
                  <path id="Path_4088" data-name="Path 4088" d="M410.651,145.3l-.064.236-.036-15.091.027-15.141.041-15.146-.032-15.1.064.132-5.526,3.453.1-.349q.041,15.1.018,30.232c-.036,10.087-.041,20.16-.1,30.264C406.971,147.588,408.813,146.417,410.651,145.3Zm-5.536,3.571v-.032c-.068-10.046-.068-20.119-.109-30.178q-.014-15.1.009-30.246v-.295l.109-.064,5.526-3.217.068-.036v.172l-.032,15.137.032,15.1.036,15.1-.036,15.137v.2l-.068.041q-2.763,1.647-5.526,3.172Z" transform="translate(-396.24 -75.072)" fill="#fff"/>
                  <path id="Path_4089" data-name="Path 4089" d="M406.428,148.333l3.217-2-.073.254-.023-15.1.032-15.146.027-15.137-.027-15.109.059.141-6.452,4.011.109-.363q.027,15.116.009,30.242c-.036,10.087-.036,20.159-.1,30.264Zm-3.244,2.105c-.059-10.046-.068-20.119-.1-30.178s-.018-20.155,0-30.246v-.3l.1-.059,6.452-3.775.073-.041-.009.181-.018,15.137.036,15.1.023,15.109-.023,15.128v.218l-.077.041-3.217,1.892-3.244,1.829Z" transform="translate(-403.07 -71.393)" fill="#fff"/>
                </g>
                <g id="Group_877" data-name="Group 877" transform="translate(0.005 185.977)">
                  <path id="Path_4090" data-name="Path 4090" d="M414.213,157.145l-.073.236-.032-15.1.032-15.137L414.173,112l-.023-15.109.059.145-5.526,3.444.1-.354q.02,15.109,0,30.237c-.027,10.091-.027,20.159-.1,30.269Q411.448,158.824,414.213,157.145Zm-5.545,3.571v-.032c-.068-10.041-.068-20.123-.109-30.178q-.014-15.116.009-30.251v-.29l.113-.064,5.526-3.226.064-.032v.182l-.027,15.132.036,15.1.032,15.1-.032,15.141v.2l-.068.045c-1.847,1.1-3.684,2.155-5.531,3.167Z" transform="translate(-383.667 -96.644)" fill="#fff"/>
                  <path id="Path_4091" data-name="Path 4091" d="M409.976,160.17l3.222-2.006-.077.263-.018-15.109.027-15.137.032-15.141-.023-15.1.059.132-6.452,4.016.1-.358q.027,15.1,0,30.237c-.036,10.087-.036,20.16-.1,30.26Zm-3.235,2.105c-.068-10.041-.077-20.114-.1-30.183s-.014-20.15,0-30.242v-.295l.1-.068,6.452-3.766.063-.036v.172L413.234,113l.036,15.1.032,15.1-.023,15.137v.213l-.081.045-3.222,1.892-3.235,1.824Z" transform="translate(-390.492 -92.958)" fill="#fff"/>
                  <path id="Path_4092" data-name="Path 4092" d="M410.651,159.285l-.064.24-.036-15.1.036-15.146.032-15.141L410.6,99.033l.054.145-5.526,3.453.1-.358q.034,15.1.014,30.242c-.036,10.087-.036,20.164-.1,30.264C406.976,161.576,408.813,160.405,410.651,159.285Zm-5.536,3.575v-.032c-.068-10.041-.068-20.123-.109-30.183q-.014-15.1.009-30.251v-.286l.109-.059,5.526-3.226.068-.036v.182L410.7,114.1l.023,15.1.036,15.1-.027,15.137-.009.2-.068.05q-2.756,1.64-5.526,3.167Z" transform="translate(-396.244 -89.06)" fill="#fff"/>
                  <path id="Path_4093" data-name="Path 4093" d="M406.425,162.313l3.217-2-.063.254-.027-15.1.027-15.141.032-15.141-.023-15.1.055.145-6.448,4.007.1-.358q.027,15.1.009,30.237c-.036,10.087-.041,20.164-.1,30.273Zm-3.244,2.114c-.059-10.037-.059-20.119-.1-30.187q-.027-15.1.009-30.242v-.3l.1-.064,6.448-3.766.068-.041V100l-.023,15.141.032,15.1.027,15.091-.018,15.146v.2l-.086.045-3.217,1.9-3.24,1.815Z" transform="translate(-403.071 -85.377)" fill="#fff"/>
                </g>
                <g id="Group_878" data-name="Group 878" transform="translate(0.012 249.446)">
                  <path id="Path_4094" data-name="Path 4094" d="M414.211,171.133l-.064.245-.041-15.109.041-15.132.023-15.146-.023-15.1.064.141-5.531,3.444.1-.354q.02,15.1,0,30.232c-.027,10.091-.027,20.164-.1,30.273C410.526,173.425,412.373,172.249,414.211,171.133Zm-5.536,3.575v-.032c-.068-10.046-.077-20.123-.118-30.183q0-15.109.018-30.246v-.3l.1-.054,5.531-3.226.059-.036v.177l-.018,15.137.027,15.1.036,15.109-.027,15.137v.2l-.077.041c-1.847,1.1-3.684,2.155-5.531,3.163Z" transform="translate(-383.671 -110.632)" fill="#fff"/>
                  <path id="Path_4095" data-name="Path 4095" d="M409.976,174.154l3.226-2-.073.259L413.1,157.3l.036-15.132.023-15.141-.023-15.1.059.136-6.448,4.011.1-.358q.02,15.1.009,30.232c-.036,10.091-.045,20.164-.1,30.269Zm-3.235,2.114c-.064-10.041-.077-20.123-.1-30.173q-.02-15.123,0-30.246v-.309l.109-.059,6.448-3.775.073-.032v.172l-.027,15.137.027,15.1.032,15.1-.023,15.132v.218l-.077.041-3.226,1.888-3.235,1.829Z" transform="translate(-390.499 -106.946)" fill="#fff"/>
                  <path id="Path_4096" data-name="Path 4096" d="M410.657,173.269l-.073.241-.036-15.091.036-15.146.036-15.141-.027-15.1.054.136-5.526,3.448.1-.354q.027,15.109.009,30.237c-.027,10.091-.036,20.169-.1,30.273Q407.892,174.957,410.657,173.269Zm-5.545,3.571v-.027c-.059-10.037-.068-20.114-.1-30.178s-.014-20.16.009-30.251v-.295l.1-.054,5.526-3.222.068-.036v.168l-.023,15.141.032,15.1.032,15.1-.032,15.146v.2l-.068.041q-2.77,1.647-5.536,3.172Z" transform="translate(-396.248 -103.044)" fill="#fff"/>
                  <path id="Path_4097" data-name="Path 4097" d="M406.419,176.3l3.226-2-.073.263-.027-15.118.027-15.137.032-15.132-.023-15.114.055.145-6.448,4.011.1-.363q.027,15.109.014,30.242c-.041,10.087-.041,20.16-.1,30.269Zm-3.24,2.114c-.063-10.05-.063-20.119-.1-30.183s-.014-20.155,0-30.242v-.3l.1-.064,6.448-3.771.077-.036v.168l-.032,15.146.032,15.1.032,15.1-.023,15.137v.213l-.077.045-3.226,1.888-3.24,1.833Z" transform="translate(-403.072 -99.362)" fill="#fff"/>
                </g>
                <g id="Group_879" data-name="Group 879" transform="translate(0.014 312.919)">
                  <path id="Path_4098" data-name="Path 4098" d="M414.211,185.122l-.064.24-.036-15.109.036-15.141.032-15.141-.032-15.1.064.132-5.531,3.453.1-.349q.02,15.1.014,30.232c-.032,10.1-.036,20.164-.109,30.273Q411.459,186.808,414.211,185.122Zm-5.536,3.566v-.032c-.068-10.041-.068-20.119-.118-30.173q0-15.116.018-30.251v-.295l.1-.059,5.531-3.222.068-.036v.177l-.027,15.132.036,15.1.027,15.1-.027,15.137v.2l-.077.041q-2.77,1.647-5.527,3.167Z" transform="translate(-383.673 -124.621)" fill="#fff"/>
                  <path id="Path_4099" data-name="Path 4099" d="M409.973,188.146l3.235-2-.082.254-.023-15.1.032-15.137.032-15.146-.023-15.1.054.136-6.452,4.011.1-.358q.02,15.1.014,30.237c-.036,10.091-.05,20.16-.1,30.264Zm-3.23,2.11c-.068-10.046-.073-20.119-.1-30.178s-.009-20.155,0-30.246v-.3l.109-.064L413.2,125.7l.068-.041v.172l-.027,15.141.036,15.1.027,15.1-.027,15.137v.209l-.068.05-3.235,1.9-3.23,1.82Z" transform="translate(-390.498 -120.939)" fill="#fff"/>
                  <path id="Path_4100" data-name="Path 4100" d="M410.655,187.262l-.063.24-.046-15.1.036-15.137.041-15.146-.023-15.1.055.141-5.536,3.444.113-.349q.027,15.1.009,30.237c-.036,10.086-.036,20.164-.1,30.269Q407.9,188.945,410.655,187.262Zm-5.536,3.571V190.8c-.068-10.037-.077-20.114-.109-30.178q-.02-15.1.009-30.242v-.295l.1-.054,5.536-3.226.059-.036v.172l-.023,15.141.032,15.1.036,15.1-.036,15.137v.2l-.068.045c-1.847,1.1-3.689,2.151-5.531,3.167Z" transform="translate(-396.247 -117.037)" fill="#fff"/>
                  <path id="Path_4101" data-name="Path 4101" d="M406.422,190.286l3.222-2-.073.254-.023-15.1.032-15.141.032-15.141-.032-15.1.064.132-6.457,4.02.109-.363q.02,15.1.009,30.237c-.032,10.091-.041,20.164-.1,30.269Zm-3.244,2.11c-.059-10.041-.063-20.119-.1-30.183q-.02-15.1,0-30.246v-.3l.1-.059,6.457-3.771.068-.032v.172l-.032,15.137.032,15.1.032,15.1-.023,15.128v.218l-.077.045-3.222,1.888-3.244,1.824Z" transform="translate(-403.073 -113.351)" fill="#fff"/>
                </g>
                <g id="Group_880" data-name="Group 880" transform="translate(0.014 376.388)">
                  <path id="Path_4102" data-name="Path 4102" d="M414.217,199.11l-.073.241-.032-15.1.032-15.141.032-15.146-.023-15.1.055.136-5.527,3.453.1-.354q.027,15.1.009,30.237c-.027,10.087-.032,20.16-.1,30.264C410.533,201.392,412.379,200.235,414.217,199.11Zm-5.544,3.571v-.036c-.068-10.032-.068-20.119-.109-30.178q-.013-15.1.009-30.251l.009-.29.1-.059,5.527-3.222.068-.036v.177l-.027,15.132.036,15.1.027,15.109-.027,15.132v.2l-.068.036q-2.77,1.654-5.531,3.167Z" transform="translate(-383.671 -138.609)" fill="#fff"/>
                  <path id="Path_4103" data-name="Path 4103" d="M409.983,202.13l3.221-2-.082.254-.023-15.1.041-15.146.032-15.132-.032-15.1.063.132-6.457,4.016.1-.358q.034,15.1.014,30.232c-.036,10.087-.036,20.164-.1,30.269Zm-3.244,2.11c-.059-10.041-.068-20.119-.1-30.173q-.014-15.116.009-30.255v-.295l.1-.055,6.457-3.775.059-.036v.172l-.027,15.132.036,15.109.027,15.1-.027,15.141v.2l-.068.05-3.221,1.9-3.244,1.824Z" transform="translate(-390.494 -134.923)" fill="#fff"/>
                  <path id="Path_4104" data-name="Path 4104" d="M410.655,201.253l-.063.245-.036-15.1.036-15.137.032-15.146-.023-15.1.055.136-5.531,3.448.109-.349q.027,15.109.009,30.232c-.032,10.087-.032,20.164-.1,30.269C406.979,203.549,408.817,202.378,410.655,201.253Zm-5.536,3.566v-.027c-.068-10.037-.068-20.119-.109-30.178q-.02-15.109.009-30.251v-.29l.1-.059,5.531-3.222.059-.041v.177l-.023,15.141.032,15.1.036,15.1-.032,15.146v.2l-.073.041q-2.756,1.64-5.531,3.167Z" transform="translate(-396.248 -131.028)" fill="#fff"/>
                  <path id="Path_4105" data-name="Path 4105" d="M406.431,204.282l3.222-2-.082.254-.023-15.1.032-15.141.032-15.141-.027-15.109.059.141-6.452,4.016.113-.368q.021,15.116,0,30.246c-.032,10.086-.032,20.159-.1,30.26Zm-3.244,2.105c-.059-10.037-.068-20.119-.1-30.178q-.02-15.109,0-30.246v-.3l.1-.059,6.452-3.766.068-.041v.177L409.68,157.1l.041,15.1.027,15.1-.023,15.141v.218l-.073.041-3.222,1.892-3.244,1.819Z" transform="translate(-403.073 -127.342)" fill="#fff"/>
                </g>
                <g id="Group_881" data-name="Group 881" transform="translate(0.017 439.857)">
                  <path id="Path_4106" data-name="Path 4106" d="M414.217,213.094l-.073.241-.032-15.1.032-15.146.036-15.141-.023-15.1.059.136-5.531,3.444.1-.349q.027,15.1.009,30.228c-.027,10.1-.027,20.169-.1,30.273C410.533,215.385,412.379,214.219,414.217,213.094Zm-5.54,3.58v-.041c-.063-10.037-.073-20.114-.113-30.169q-.013-15.123.018-30.255v-.29l.1-.063,5.531-3.217.059-.041v.172l-.027,15.141.036,15.1.036,15.1-.036,15.146v.191l-.068.045q-2.77,1.647-5.531,3.172Z" transform="translate(-383.674 -152.597)" fill="#fff"/>
                  <path id="Path_4107" data-name="Path 4107" d="M409.983,216.118l3.221-2-.073.263-.032-15.1.041-15.141.032-15.146-.032-15.1.063.136-6.457,4.011.109-.363q.02,15.1,0,30.237c-.032,10.087-.036,20.164-.091,30.264Zm-3.244,2.105c-.059-10.041-.068-20.11-.1-30.169q-.014-15.116.009-30.241V157.5l.1-.059,6.457-3.766.068-.041v.172l-.036,15.141.036,15.1.036,15.1-.027,15.137-.009.213-.068.045-3.221,1.888-3.244,1.829Z" transform="translate(-390.498 -148.911)" fill="#fff"/>
                  <path id="Path_4108" data-name="Path 4108" d="M410.649,215.23l-.055.245-.041-15.1.041-15.146.027-15.141-.027-15.1.055.136-5.531,3.448.109-.349q.027,15.1.018,30.233c-.041,10.1-.041,20.164-.109,30.269Q407.906,216.931,410.649,215.23Zm-5.536,3.585v-.036c-.068-10.041-.068-20.114-.1-30.183s-.009-20.15.009-30.246v-.295l.1-.059,5.531-3.222.068-.032-.009.168-.018,15.141.032,15.1.041,15.1-.032,15.141-.009.2-.073.041c-1.838,1.093-3.684,2.151-5.522,3.167Z" transform="translate(-396.246 -145.009)" fill="#fff"/>
                  <path id="Path_4109" data-name="Path 4109" d="M406.428,218.267l3.222-2-.073.254-.032-15.1.036-15.137.032-15.146-.032-15.1.068.136-6.461,4.011.113-.358q.021,15.109,0,30.232c-.036,10.1-.036,20.173-.1,30.273Zm-3.244,2.11c-.059-10.046-.059-20.123-.1-30.183q-.014-15.1,0-30.242v-.3l.1-.064,6.461-3.771.059-.036v.172l-.027,15.137.036,15.1.027,15.1-.023,15.137v.213l-.073.041-3.222,1.892-3.244,1.829Z" transform="translate(-403.074 -141.327)" fill="#fff"/>
                </g>
              </g>
              <g id="Group_883" data-name="Group 883" transform="translate(97.639 43.978)">
                <path id="Path_4110" data-name="Path 4110" d="M414.958,76.162l15.178-9.148v-4.95l-15.178,9.154Z" transform="translate(-414.958 -62.064)" fill="#fff"/>
              </g>
              <g id="Group_884" data-name="Group 884" transform="translate(1.496 102.567)">
                <path id="Path_4111" data-name="Path 4111" d="M393.769,87.843l15.182-9.158V74.977l-15.182,9.152Z" transform="translate(-393.769 -74.977)" fill="#fff"/>
              </g>
              <g id="Group_885" data-name="Group 885" transform="translate(95.118 236.821)">
                <path id="Path_4112" data-name="Path 4112" d="M414.4,127.81l18.543-11.183V104.566L414.4,115.757Z" transform="translate(-414.402 -104.566)" fill="#fff"/>
              </g>
              <g id="Group_886" data-name="Group 886" transform="translate(2.35 294.374)">
                <path id="Path_4113" data-name="Path 4113" d="M393.957,138.479l15.183-9.154,0-12.075-15.18,9.151Z" transform="translate(-393.957 -117.25)" fill="#fff"/>
              </g>
              <g id="Group_887" data-name="Group 887" transform="translate(95.118 429.303)">
                <path id="Path_4114" data-name="Path 4114" d="M414.4,170.233l18.552-11.185V146.987L414.4,158.174Z" transform="translate(-414.402 -146.987)" fill="#fff"/>
              </g>
              <g id="Group_888" data-name="Group 888" transform="translate(2.354 486.851)">
                <path id="Path_4115" data-name="Path 4115" d="M393.962,180.9l15.179-9.152V159.67l-15.183,9.15Z" transform="translate(-393.958 -159.67)" fill="#fff"/>
              </g>
            </g>
          </g>
          <path id="Path_4116" data-name="Path 4116" d="M395.8,61.464h-1.357c-.64,0-2.124.9-.8.9H395c.635,0,2.123-.9.807-.9h-1.357c-.64,0-2.124.9-.8.9H395c.635,0,2.123-.9.807-.9Z" transform="translate(-281.838 -13.372)" fill="#fff"/>
          <path id="Path_4117" data-name="Path 4117" d="M399.147,61.533c-3.326.286-4.687,5.4-5.359,7.809-.054.186.454.123.5-.054.558-2.024,1.924-7.214,4.805-7.473.258-.023.39-.318.054-.281Z" transform="translate(-279.464 -13.138)" fill="#fff"/>
          <path id="Path_4118" data-name="Path 4118" d="M405.1,60.354a.625.625,0,0,1-.064.086,7.226,7.226,0,0,1-.585.717c-3.294,4.106-6.643,8.163-9.506,12.559-.168.259.286.354.417.159a166.527,166.527,0,0,1,10.154-13.363C405.705,60.272,405.252,60.177,405.1,60.354Z" transform="translate(-275.497 -17.621)" fill="#fff"/>
          <path id="Path_4119" data-name="Path 4119" d="M407.662,60.813c-4.941,6.7-8.262,14.3-13.2,21-.045.059.395.036.477-.082,4.941-6.7,8.267-14.293,13.208-20.994.045-.054-.4-.036-.486.077Z" transform="translate(-277.076 -16.052)" fill="#fff"/>
          <path id="Path_4120" data-name="Path 4120" d="M412.2,60.377c-6.9,7.577-12.156,16.153-17.292,24.842-.05.086.422.05.485-.068,5.136-8.671,10.363-17.233,17.247-24.8.118-.118-.358-.064-.44.027Z" transform="translate(-275.499 -17.553)" fill="#fff"/>
          <path id="Path_4121" data-name="Path 4121" d="M410.25,60.615q-7.7,13.088-14.22,26.73c-.055.1.422.054.486-.077q6.5-13.639,14.22-26.725c.05-.091-.417-.054-.485.073Z" transform="translate(-271.534 -16.811)" fill="#fff"/>
          <path id="Path_4122" data-name="Path 4122" d="M413.868,61.667c-6.316,10.722-13.948,20.808-18.29,32.456-.027.091.449.036.486-.082,4.342-11.652,11.979-21.734,18.295-32.46.045-.068-.417-.036-.49.086Z" transform="translate(-273.123 -13.085)" fill="#fff"/>
          <path id="Path_4123" data-name="Path 4123" d="M416.362,62.92c-6.484,11.947-15.023,22.837-20.332,35.351-.068.154.431.1.495-.054,5.3-12.491,13.821-23.354,20.3-35.287.113-.2-.381-.15-.458-.009Z" transform="translate(-271.543 -8.658)" fill="#fff"/>
          <path id="Path_4124" data-name="Path 4124" d="M408.546,66.089c-4.315,8.049-8.9,16-11.176,24.819-.041.145.449.082.495-.068,2.273-8.816,6.861-16.766,11.167-24.819.063-.109-.413-.064-.486.068Z" transform="translate(-266.785 2.53)" fill="#fff"/>
          <path id="Path_4125" data-name="Path 4125" d="M404.971,68.35c-3.757,4.519-8.172,10.9-4.084,16.407.132.177.6,0,.449-.209-4.007-5.4.395-11.661,4.047-16.049.186-.236-.272-.322-.413-.15Z" transform="translate(-260.124 10.664)" fill="#fff"/>
        </g>
        <path id="Path_4126" data-name="Path 4126" d="M472.261,60.706q-18.683,7.943-37.27,16.035c-9.86-3.834-19.733-7.668-29.52-11.629q-6.6-2.675-13.149-5.431-4.4-1.089-8.675-2.6c7.21,2.781,14.415,5.567,21.575,8.43,9.9,3.961,19.72,8.058,29.543,12.151l.245.1.263-.109q23.781-9.719,47.4-19.692C479.253,59.009,475.791,59.939,472.261,60.706Z" transform="translate(-315.327 -28.863)" fill="#fff"/>
        <path id="Path_4127" data-name="Path 4127" d="M385.255,56.372c-.98-.395-1.956-.8-2.936-1.189-1.592-.136-3.194-.295-4.769-.513,6.438,2.618,12.886,5.222,19.379,7.754l2.1.817A124.479,124.479,0,0,1,385.255,56.372Z" transform="translate(-336.887 -37.402)" fill="#fff"/>
        <path id="Path_4128" data-name="Path 4128" d="M389.186,58.431c-.345-.181-.7-.363-1.044-.549L380.374,55c-.98-.109-1.946-.209-2.913-.345Z" transform="translate(-337.205 -37.455)" fill="#fff"/>
        <path id="Path_4129" data-name="Path 4129" d="M402.506,62.179a95.874,95.874,0,0,1-15.631-4.193l24.4,9.052a8.542,8.542,0,0,1-1.089-1.765A69.951,69.951,0,0,1,402.506,62.179Z" transform="translate(-303.905 -25.675)" fill="#fff"/>
        <path id="Path_4130" data-name="Path 4130" d="M414.247,65.688l-2.005.826-5.794-2.264a67.942,67.942,0,0,1-13.884-4.887c-.957-.172-1.919-.381-2.877-.581l22.3,8.716.268.1,4.356-1.788C415.826,65.792,415.054,65.783,414.247,65.688Z" transform="translate(-293.961 -22.86)" fill="#fff"/>
        <path id="Path_4131" data-name="Path 4131" d="M393.379,61.125c1.3,1.529,2.922,2.859,4.215,4.383.231.277,1.366-.036,1.08-.372-1.293-1.529-2.917-2.854-4.211-4.383-.24-.272-1.366.045-1.084.372Z" transform="translate(-281.057 -16.251)" fill="#fff"/>
        <path id="Path_4132" data-name="Path 4132" d="M392.461,60.8a37.67,37.67,0,0,1,4.828,5.35c.1-.132.2-.268.295-.4-.363.113-.821-.481-1.221-.549s-1.379.44-.7.549c.408.068.549.54,1,.594a2.982,2.982,0,0,0,1.4-.163c.186-.059.449-.222.3-.4a36.612,36.612,0,0,0-4.814-5.363c-.309-.254-1.411.1-1.084.386Z" transform="translate(-284.358 -17.381)" fill="#fff"/>
        <path id="Path_4133" data-name="Path 4133" d="M392.588,61.425c1.52,1.266,3.589,3.335,2.981,5.232-.118.354,1.057.213,1.157-.113.64-1.987-1.461-4.161-3.054-5.481-.29-.245-1.393.1-1.084.363Z" transform="translate(-283.887 -15.09)" fill="#fff"/>
        <path id="Path_4134" data-name="Path 4134" d="M391.673,60.854a68.674,68.674,0,0,1,6.021,7.314c.263.345,1.379,0,1.075-.408a70.253,70.253,0,0,0-6.026-7.319c-.322-.318-1.425.045-1.071.413Z" transform="translate(-287.177 -17.422)" fill="#fff"/>
        <path id="Path_4135" data-name="Path 4135" d="M391.272,60.808c2.332,1.856,4.9,3.5,7.237,5.354.322.263,1.429-.1,1.066-.381-2.323-1.86-4.9-3.507-7.219-5.363-.331-.259-1.434.1-1.084.39Z" transform="translate(-288.591 -17.386)" fill="#fff"/>
        <path id="Path_4136" data-name="Path 4136" d="M377.086,55.687a189.613,189.613,0,0,1,20.527,7.151,14.771,14.771,0,0,1,1.425.694c.436.259,1.452-.009.4-.3a66.648,66.648,0,0,1-6.865-2.532c-.308-.127-1.261.259-1.1.322a60.222,60.222,0,0,0,7.391,2.686c.349.082,1.992.023,1.361-.44-1.665-1.234-4.365-1.942-6.366-2.7-5.168-1.937-10.481-3.634-15.813-5.259-.268-.086-1.32.263-.957.372Z" transform="translate(-338.799 -35.173)" fill="#fff"/>
      </g>
      <path id="Path_4137" data-name="Path 4137" d="M395.515,62.379c0,4.247-.032,8.5-1.207,12.673-.109.386,1.053.213,1.175-.113,1.161-3.19,1.234-6.556,2.4-9.746-.386.041-.776.073-1.166.109A42.437,42.437,0,0,0,395.515,77c0,.417,1.166.222,1.166-.109a42.933,42.933,0,0,1,1.207-11.7c.109-.386-1.053-.213-1.166.109-1.175,3.194-1.239,6.556-2.414,9.751.395-.041.781-.077,1.175-.113,1.161-4.161,1.2-8.412,1.2-12.668,0-.422-1.166-.227-1.166.109Z" transform="translate(-277.638 -11.374)" fill="#fff"/>
      <path id="Path_4138" data-name="Path 4138" d="M397.916,62.339a54.41,54.41,0,0,0-3.43,8.775c.327-.036.649-.073.985-.1V66.967c0-4.374-.871-.422-.771.839.576,7.931-.331,15.894-.395,23.821-.009.254,1.157.091,1.166-.245.073-9.447.994-18.835,0-28.263-.032-.281-1.166-.068-1.166.259v9.737c0,.259,1.134.082,1.157-.191.363-3.82,2.024-7.151,3.616-10.722.127-.281-1.03-.159-1.161.136Z" transform="translate(-277.626 -11.321)" fill="#fff"/>
      <path id="Path_4139" data-name="Path 4139" d="M395.734,65.947c.649-.971,1.72-1.361,2.568-2.142.508-.476-.449-.957.091-1.461.181-.163-.154-.2-.286-.2a6.352,6.352,0,0,0-2.092.853c.29.027.581.05.867.068.222-.245.436-.5.662-.744.1-.109.209-.209.313-.313.313-.218.113-.24-.581-.054.177.44-.749.281.445.159l.44.041c-.023-.018-.018-.145-.018-.163,0-.222-1.18-.05-1.161.25.027.694,1.42.118,1.456-.44.027-.345-.5-.281-.776-.222-.853.191-1.379.985-1.838,1.529-.277.327.744.127.876.073a8.291,8.291,0,0,0,1.693-.839c-.254.077-.517.163-.771.24h0l-.295-.2a1.054,1.054,0,0,0-.295.481c-.15.4.395.59.227.944s-1.066.708-1.4.957a4.789,4.789,0,0,0-1.279,1.325c-.123.182.975.1,1.157-.145Z" transform="translate(-276.692 -13.119)" fill="#fff"/>
      <path id="Path_4140" data-name="Path 4140" d="M395.887,64.629c1.466-1.116,3.353-1.8,4.828-2.922.49-.377-.658-.377-.944-.163-1.461,1.125-3.348,1.806-4.819,2.927-.49.381.658.377.935.159Z" transform="translate(-275.756 -13.601)" fill="#fff"/>
      <path id="Path_4141" data-name="Path 4141" d="M401.8,61.431q-3.614,4.376-7.228,8.762c-.1.113.962.077,1.148-.159q3.621-4.383,7.228-8.771c.1-.113-.953-.068-1.148.168Z" transform="translate(-276.69 -14.293)" fill="#fff"/>
      <path id="Path_4142" data-name="Path 4142" d="M405.417,61.012c-3.793,5.114-7.518,10.259-10.84,15.586-.123.2.994.113,1.157-.145,3.326-5.327,7.042-10.468,10.835-15.59.127-.168-.962-.1-1.153.15Z" transform="translate(-276.692 -15.833)" fill="#fff"/>
      <path id="Path_4143" data-name="Path 4143" d="M411.283,60.915c-7.214,7.056-11.933,15.323-16.938,23.472-.295.49.876.5,1.116.118,4.964-8.086,9.637-16.3,16.793-23.3.476-.463-.622-.626-.971-.286Z" transform="translate(-277.648 -15.955)" fill="#fff"/>
      <path id="Path_4144" data-name="Path 4144" d="M412.755,61.347c-8.108,7.859-12.192,17.482-18.145,26.389-.291.436.889.381,1.107.068,5.9-8.848,9.937-18.431,18-26.24.454-.445-.658-.5-.957-.218Z" transform="translate(-276.703 -14.404)" fill="#fff"/>
      <path id="Path_4145" data-name="Path 4145" d="M410.134,62.475c-6.08,6.951-11.7,14.206-14.5,22.487-.127.381,1.048.24,1.166-.1,2.777-8.235,8.381-15.432,14.424-22.337.336-.372-.853-.318-1.093-.045Z" transform="translate(-272.942 -10.572)" fill="#fff"/>
      <path id="Path_4146" data-name="Path 4146" d="M410.413,64.4c-6.184,6.18-10.613,13.267-14.506,20.532-.163.3,1,.2,1.166-.113,3.875-7.219,8.281-14.252,14.424-20.4.331-.331-.848-.263-1.084-.018Z" transform="translate(-272.01 -3.714)" fill="#fff"/>
      <path id="Path_4147" data-name="Path 4147" d="M407.849,65.909A54.307,54.307,0,0,0,396.964,82.52c-.082.2,1.039.1,1.144-.159a53.959,53.959,0,0,1,10.8-16.511c.236-.254-.889-.127-1.062.059Z" transform="translate(-268.23 1.639)" fill="#fff"/>
      <path id="Path_4148" data-name="Path 4148" d="M402.417,68.29c-2.409,3.3-6.847,9.265-1.13,11.92.322.154,1.4-.227.935-.445-5.418-2.518-.939-8.421,1.275-11.466.272-.372-.894-.272-1.08-.009Z" transform="translate(-262.811 9.943)" fill="#fff"/>
      <path id="Path_4149" data-name="Path 4149" d="M402.426,70.911c-1.2,3.9-2.414,7.8-3.6,11.7-.077.222,1.071.082,1.139-.163q1.81-5.846,3.621-11.688c.068-.222-1.075-.091-1.157.154Z" transform="translate(-261.654 19.097)" fill="#fff"/>
      <path id="Path_4150" data-name="Path 4150" d="M418.226,56.21a145.871,145.871,0,0,1-10.595,11.879c-.322.322.853.245,1.084.009a141.24,141.24,0,0,0,11.239-12.659C419.379,55.7,418.8,55.956,418.226,56.21Z" transform="translate(-230.678 -34.685)" fill="#fff"/>
      <path id="Path_4151" data-name="Path 4151" d="M425.089,55.121c-6.008,5.948-10.867,12.564-16.875,18.517-.449.445.667.5.953.213,6.008-5.944,10.872-12.564,16.874-18.517.458-.445-.667-.5-.953-.213Z" transform="translate(-228.793 -36.436)" fill="#fff"/>
      <path id="Path_4152" data-name="Path 4152" d="M432.372,54.563c-7.936,8.957-16.294,17.7-23.413,27.115-.34.449.844.472,1.116.113,7.351-9.733,16.035-18.721,24.207-28C433.652,54.041,433.016,54.309,432.372,54.563Z" transform="translate(-225.999 -40.529)" fill="#fff"/>
      <path id="Path_4153" data-name="Path 4153" d="M439.822,53.252c-10.835,10.9-19.833,22.864-30.115,34.107a1.864,1.864,0,0,0,1.139-.177c10.291-11.239,19.293-23.2,30.124-34.112a2.065,2.065,0,0,0-1.148.181Z" transform="translate(-223.145 -43.138)" fill="#fff"/>
      <path id="Path_4154" data-name="Path 4154" d="M438.113,53.243c-9.329,10.45-17.954,21.276-26.507,32.156-.286.363.885.259,1.084.009,8.562-10.872,17.169-21.7,26.5-32.161.313-.34-.858-.25-1.075,0Z" transform="translate(-216.581 -43.225)" fill="#fff"/>
      <path id="Path_4155" data-name="Path 4155" d="M430.218,56.067c-4.923,8.644-11.811,16.339-18.072,24.361-.331.422.844.4,1.1.077,6.266-8.013,13.149-15.7,18.072-24.357.268-.476-.9-.431-1.1-.082Z" transform="translate(-214.72 -33.416)" fill="#fff"/>
      <path id="Path_4156" data-name="Path 4156" d="M424.315,58.408c-3.825,5.123-8.026,10.123-10.885,15.654-.141.281,1.007.177,1.162-.122,2.84-5.49,7.01-10.454,10.8-15.527.281-.368-.885-.254-1.075,0Z" transform="translate(-210.011 -24.999)" fill="#fff"/>
      <path id="Path_4157" data-name="Path 4157" d="M418.1,61.026a33.8,33.8,0,0,0-3.612,14.656c-.009.163,1.157.032,1.161-.245a33.671,33.671,0,0,1,3.6-14.579c.091-.177-1.025-.082-1.153.168Z" transform="translate(-206.242 -15.838)" fill="#fff"/>
      <path id="Path_4158" data-name="Path 4158" d="M424.568,53.945c-1.679.9-3.421,1.711-5.177,2.486,1.357-1.021,2.768-1.978,4.247-2.886a.543.543,0,0,1,.122-.032.883.883,0,0,0,.49-.15.543.543,0,0,0,.227-.336l0-.009c.15-.082.268-.182.417-.259l-.14.032c-3.208,1.4-6.448,2.709-9.7,4.016-.681.295-.063.839.544.594.976-.4,1.919-.862,2.863-1.329-.8.613-1.633,1.211-2.423,1.851-.463.372.413.6.767.454,1.706-.694,3.371-1.434,5.018-2.21-.322.259-.644.522-.966.776-.522.427.59.635.994.313q1.8-1.456,3.612-2.918C425.974,53.909,424.926,53.75,424.568,53.945Z" transform="translate(-205.299 -44.158)" fill="#fff"/>
      <path id="Path_4159" data-name="Path 4159" d="M421.806,54.215c-2.5,1.674-5.036,3.3-7.723,4.787-.526.295.653.254.912.109,3.385-1.86,6.547-3.943,9.656-6.076C423.707,53.434,422.759,53.82,421.806,54.215Z" transform="translate(-208.132 -43.189)" fill="#fff"/>
      <path id="Path_4160" data-name="Path 4160" d="M417.667,52.813V65.731c0,.427,1.175.24,1.175-.1V52.541Z" transform="translate(-194.982 -44.936)" fill="#fff"/>
      <path id="Path_4161" data-name="Path 4161" d="M417.936,53.154V66.8c0,.191,1.166.045,1.166-.254V52.9c0-.2-1.166-.045-1.166.254Z" transform="translate(-194.031 -43.979)" fill="#fff"/>
    </g>
    <g id="Group_896" data-name="Group 896" transform="translate(370.49 81.792)">
      <g id="Group_894" data-name="Group 894">
        <path id="Path_4162" data-name="Path 4162" d="M479.531,112.218,369.051,57.692V48.58l110.48,54.526Z" transform="translate(-368.856 1.304)" fill="#fff"/>
        <path id="Path_4163" data-name="Path 4163" d="M478.789,143.91q-27.326-12.986-54.648-26.417-13.667-6.656-27.315-13.48l-27.333-13.73-.449-.231v-.386l.132-12.845c0-4.3.081-8.571.045-12.891q-.027-12.925-.213-25.931v-.413l.485.24L396.826,51.1l27.315,13.349q13.673,6.677,27.329,13.467c9.1,4.519,18.213,8.97,27.319,13.571l.826.417,0,.69-.29,25.672c-.064,8.58-.245,17.1-.44,25.622l0,.064Zm-.082-.191c-.2-8.68-.377-17.36-.445-25.967l-.286-25.972.812,1.1c-9.107-4.392-18.218-8.93-27.319-13.4s-18.213-8.975-27.329-13.512L396.826,52.355,369.493,38.661l.49-.182q-.177,12.829-.209,25.727c-.036,4.283.036,8.621.045,12.936l.131,12.977-.458-.617,27.333,13.24q13.646,6.67,27.315,13.49Q451.427,129.756,478.708,143.719Z" transform="translate(-369.008 -37.586)" fill="#fff"/>
        <path id="Path_4164" data-name="Path 4164" d="M388.268,89.878q-8.44-3.968-16.884-8.077l-.34-.163v-.3C371.03,77.89,370.958,74.424,371,71c0-3.439.081-6.838.145-10.245.172-6.8.073-13.716,0-20.64l0-.209.245.123,16.884,8.176.417.209v.368q.1,10.359,0,20.631c-.123,6.815-.141,13.68-.377,20.454V89.9Zm-.05-.1C388,82.8,387.973,75.93,387.85,69q-.1-10.359,0-20.636l.417.572-16.884-8.489.245-.091c-.073,6.847-.172,13.676,0,20.64.059,3.467.141,6.947.141,10.391.041,3.453-.032,6.86-.041,10.3l-.345-.463Q379.8,85.422,388.218,89.778Z" transform="translate(-362.01 -29.372)" fill="#fff"/>
        <path id="Path_4165" data-name="Path 4165" d="M396.1,93.74q-8.446-3.968-16.888-8.076l-.345-.163v-.295c-.009-3.448-.077-6.919-.041-10.341,0-3.439.082-6.838.145-10.25.177-6.792.077-13.721,0-20.636v-.2l.24.122L396.1,52.074l.417.2v.363q.088,10.366,0,20.64c-.123,6.815-.145,13.685-.377,20.45l0,.036Zm-.05-.1c-.232-6.983-.245-13.857-.372-20.781q-.088-10.372,0-20.636l.422.567-16.888-8.489.249-.086c-.086,6.842-.182,13.671,0,20.636.055,3.467.136,6.951.136,10.386.041,3.462-.027,6.865-.041,10.3l-.345-.463Q387.635,89.292,396.054,93.645Z" transform="translate(-334.3 -15.693)" fill="#fff"/>
        <path id="Path_4166" data-name="Path 4166" d="M404,97.643q-8.44-3.968-16.883-8.077l-.345-.168v-.3c0-3.444-.082-6.915-.041-10.336,0-3.435.082-6.833.145-10.245.168-6.792.077-13.721,0-20.64l-.009-.2.249.123L404,55.972l.422.2v.363q.089,10.366,0,20.64c-.127,6.811-.145,13.685-.376,20.445v.036Zm-.045-.1c-.227-6.983-.254-13.853-.377-20.781q-.088-10.366,0-20.636L404,56.7l-16.883-8.489.249-.086c-.086,6.838-.181,13.671,0,20.631.054,3.467.136,6.947.136,10.391.041,3.462-.027,6.86-.045,10.3l-.34-.463Q395.535,93.183,403.954,97.543Z" transform="translate(-306.36 -1.905)" fill="#fff"/>
      </g>
      <g id="Group_895" data-name="Group 895" transform="translate(111.069 0.762)">
        <path id="Path_4167" data-name="Path 4167" d="M393.487,112.386,503.963,57.864V48.748L393.487,103.272Z" transform="translate(-393.487 1.134)" fill="#fff"/>
        <path id="Path_4168" data-name="Path 4168" d="M394.241,144.119l0-.073c-.19-8.517-.372-17.038-.44-25.618l-.286-25.677-.009-.685.821-.417c9.106-4.6,18.217-9.048,27.324-13.571s18.213-9.011,27.324-13.458l27.324-13.358L503.623,37.99l.485-.236,0,.413q-.177,12.993-.209,25.926c-.032,4.324.032,8.594.041,12.891l.141,12.85v.381l-.454.227-27.329,13.739Q462.628,111,448.97,117.657q-27.326,13.428-54.648,26.421ZM448.97,116.4q13.667-6.84,27.324-13.494l27.329-13.235-.458.613.132-12.977c.009-4.311.082-8.653.041-12.936q-.014-12.9-.2-25.727l.49.177-27.329,13.7L448.97,66.135Q435.3,72.948,421.646,79.647c-9.107,4.465-18.218,9.007-27.324,13.4l.821-1.1-.286,25.963c-.077,8.616-.254,17.292-.445,25.967Q421.7,129.926,448.97,116.4Z" transform="translate(-393.436 -37.754)" fill="#fff"/>
        <path id="Path_4169" data-name="Path 4169" d="M412.417,90.068v-.032c-.236-6.774-.259-13.635-.386-20.454q-.088-10.27,0-20.631v-.368l.422-.2L429.337,40.2l.249-.123-.009.209c-.073,6.919-.168,13.844,0,20.636.063,3.408.145,6.806.145,10.25.041,3.417-.032,6.9-.041,10.336v.3l-.345.163q-8.44,4.118-16.884,8.072Zm16.92-8.689-.34.467c-.014-3.43-.082-6.842-.045-10.3,0-3.444.081-6.919.15-10.386.172-6.965.073-13.8,0-20.64l.236.091L412.453,49.1l.422-.572q.095,10.27,0,20.64c-.123,6.929-.145,13.8-.368,20.781Q420.92,85.594,429.337,81.379Z" transform="translate(-328.044 -29.544)" fill="#fff"/>
        <path id="Path_4170" data-name="Path 4170" d="M404.577,93.93l0-.036c-.227-6.761-.25-13.635-.372-20.445q-.088-10.277,0-20.636V52.44l.417-.2,16.888-8.181.24-.118v.2c-.082,6.919-.177,13.848,0,20.64.063,3.408.145,6.811.145,10.241.032,3.421-.032,6.9-.045,10.345v.295l-.34.168q-8.447,4.111-16.888,8.077Zm16.929-8.685-.35.467c-.009-3.435-.082-6.842-.036-10.3,0-3.43.082-6.915.141-10.381.168-6.969.073-13.8,0-20.636l.245.082-16.888,8.489.417-.567q.1,10.27,0,20.636c-.123,6.929-.136,13.8-.377,20.781Q413.092,89.463,421.506,85.246Z" transform="translate(-355.75 -15.865)" fill="#fff"/>
        <path id="Path_4171" data-name="Path 4171" d="M396.674,97.825l0-.036c-.222-6.761-.249-13.626-.372-20.441q-.081-10.284,0-20.64v-.368l.418-.2L413.6,47.959l.245-.118,0,.2c-.077,6.919-.177,13.853,0,20.645.063,3.408.141,6.806.141,10.241.036,3.417-.027,6.892-.036,10.341v.295l-.345.168q-8.447,4.118-16.888,8.081ZM413.6,89.14l-.345.467c-.018-3.435-.082-6.838-.041-10.3,0-3.439.082-6.919.141-10.386.177-6.965.082-13.8,0-20.636l.245.086-16.888,8.485.422-.563q.1,10.264,0,20.631c-.122,6.929-.141,13.8-.372,20.781Q405.177,93.358,413.6,89.14Z" transform="translate(-383.688 -2.073)" fill="#fff"/>
      </g>
    </g>
    <path id="Path_4172" data-name="Path 4172" d="M370.087,36.823c9.166,3.689,18.018,7.845,26.635,12.346,4.265,2.31,8.417,4.773,12.736,7.024,4.315,2.228,8.744,4.3,13.218,6.311a497.225,497.225,0,0,1,52,26.557l-.141.191a502.068,502.068,0,0,1-52.588-25.681c-4.242-2.341-8.526-4.628-12.927-6.747-4.406-2.1-8.957-4-13.4-6.035-8.812-4.215-17.4-8.757-25.663-13.775Z" transform="translate(4.818 41.507)" fill="#fff"/>
    <path id="Path_4173" data-name="Path 4173" d="M393.393,25.089c9.669,4.12,19.016,8.694,28.118,13.612,4.515,2.509,8.889,5.209,13.471,7.623,4.533,2.482,9.234,4.732,13.948,6.96a563.823,563.823,0,0,1,54.92,29.062l-.132.2A570.439,570.439,0,0,1,448.177,54.35c-4.492-2.545-8.993-5.073-13.671-7.36-4.619-2.359-9.442-4.424-14.134-6.693-9.306-4.624-18.372-9.592-27.111-15.014Z" transform="translate(87.274 0)" fill="#fff"/>
    <path id="Path_4174" data-name="Path 4174" d="M478.59,25.284c-8.653,5.259-17.628,10.064-26.834,14.52-4.637,2.182-9.41,4.161-13.984,6.439-4.624,2.2-9.079,4.646-13.526,7.1a548.889,548.889,0,0,1-54.938,27.188l-.131-.191a546.039,546.039,0,0,1,54.335-28.064c4.664-2.146,9.315-4.306,13.793-6.711,4.537-2.328,8.871-4.95,13.34-7.373,9.007-4.751,18.254-9.156,27.814-13.1Z" transform="translate(2.076 0)" fill="#fff"/>
    <path id="Path_4175" data-name="Path 4175" d="M387.655,41.306c2.8-3.394,6.965-4.787,11.416-6.057,1.066-.309,3.308-1.089,2.895-2.409-.39-1.252-2.85-1.157-3.916-.853-6.566,1.878-12.664,4.025-16.788,9.02-.971,1.175.821,1.892,1.919,1.947a5.652,5.652,0,0,0,4.474-1.647Z" transform="translate(43.844 23.712)" fill="#fff"/>
  </g>
</svg>
