<svg version="1.2" baseProfile="tiny-ps" xmlns="http://www.w3.org/2000/svg" viewBox="0 0 193 215" width="193" height="215">
	<title>Home Agio '21</title>
	<style>
		tspan { white-space:pre }
		.shp0 { fill: #ffffff } 
	</style>
	<g id="Home Agio '21">
		<g id="noun_person with robot_3728333">
			<path id="Ellipse 2" class="shp0" d="M75.59 30.33C73.34 30.33 71.53 28.52 71.53 26.28C71.53 24.04 73.34 22.22 75.59 22.22C77.83 22.22 79.64 24.04 79.64 26.28C79.64 28.52 77.83 30.33 75.59 30.33Z" />
			<path id="Ellipse 3" class="shp0" d="M56.57 30.33C54.33 30.33 52.51 28.52 52.51 26.28C52.51 24.04 54.33 22.22 56.57 22.22C58.81 22.22 60.62 24.04 60.62 26.28C60.62 28.52 58.81 30.33 56.57 30.33Z" />
			<path id="Ellipse 4" class="shp0" d="M169.63 65.53C167.38 65.53 165.57 63.71 165.57 61.47C165.57 59.23 167.38 57.42 169.63 57.42C171.87 57.42 173.68 59.23 173.68 61.47C173.68 63.71 171.87 65.53 169.63 65.53Z" />
			<path id="Ellipse 5" class="shp0" d="M150.61 65.53C148.37 65.53 146.56 63.71 146.56 61.47C146.56 59.23 148.37 57.42 150.61 57.42C152.85 57.42 154.66 59.23 154.66 61.47C154.66 63.71 152.85 65.53 150.61 65.53Z" />
			<path id="Path 4196" class="shp0" d="M169.63 74.29L150.61 74.29C148.87 74.29 147.47 75.7 147.47 77.43C147.47 79.17 148.87 80.57 150.61 80.57L169.63 80.57C171.36 80.57 172.77 79.17 172.77 77.43C172.77 75.7 171.36 74.29 169.63 74.29Z" />
			<path id="Path 4197" fill-rule="evenodd" class="shp0" d="M163.65 211.29L163.65 160.3L156.58 160.3L156.58 211.29C156.58 213.03 155.18 214.43 153.44 214.43L138.51 214.43C136.78 214.43 135.37 213.03 135.37 211.29L135.37 160.3L130.56 160.3C128.82 160.3 127.41 158.89 127.41 157.16L127.41 108.55C127.41 106.82 128.82 105.41 130.56 105.41L144.66 105.41L144.66 95.84L131.16 95.84C129.43 95.84 128.02 94.43 128.02 92.7L128.02 84.68C117.08 84.02 108.08 80.87 101.49 77.59C110.36 94.3 117.01 117.32 120.34 144.03C120.46 144.92 120.18 145.82 119.58 146.5C118.99 147.17 118.13 147.56 117.23 147.56L85.7 147.56L85.7 211.29C85.7 213.03 84.29 214.43 82.56 214.43C80.82 214.43 79.41 213.03 79.41 211.29L79.41 147.56L52.74 147.56L52.74 211.29C52.74 213.03 51.33 214.43 49.6 214.43C47.86 214.43 46.46 213.03 46.46 211.29L46.46 147.56L14.93 147.56C14.03 147.56 13.17 147.17 12.57 146.5C11.97 145.82 11.7 144.92 11.81 144.03C15.29 116.11 22.41 92.27 31.89 75.41C20.72 85.31 6.49 104.97 6.67 140.79C6.68 142.52 5.28 143.94 3.55 143.95C3.54 143.95 3.53 143.95 3.53 143.95C1.8 143.95 0.4 142.55 0.39 140.82C0.09 82.28 36.36 63.69 41.92 61.19C43.13 59.87 44.35 58.62 45.6 57.5C38.34 51.56 33.7 42.54 33.7 32.45C33.7 14.59 48.22 0.06 66.08 0.06C83.93 0.06 98.46 14.59 98.46 32.45C98.46 42.54 93.81 51.56 86.56 57.5C88.9 59.6 91.16 62.09 93.34 64.88C94.29 65.72 107.46 76.99 128.02 78.39L128.02 41.52C128.02 39.79 129.43 38.38 131.16 38.38L156.98 38.38L156.98 30.75C151.52 29.34 147.47 24.43 147.47 18.54C147.47 11.57 153.14 5.89 160.12 5.89C167.09 5.89 172.77 11.57 172.77 18.54C172.77 24.43 168.71 29.34 163.26 30.75L163.26 38.38L189.07 38.38C190.81 38.38 192.21 39.79 192.21 41.52L192.21 92.7C192.21 94.43 190.81 95.84 189.07 95.84L175.57 95.84L175.57 105.41L189.68 105.41C191.41 105.41 192.82 106.82 192.82 108.55L192.82 157.16C192.82 158.89 191.41 160.3 189.68 160.3L184.86 160.3L184.86 211.29C184.86 213.03 183.45 214.43 181.72 214.43L166.79 214.43C165.06 214.43 163.65 213.03 163.65 211.29ZM66.08 58.54C80.47 58.54 92.17 46.84 92.17 32.45C92.17 18.06 80.47 6.35 66.08 6.35C51.69 6.35 39.98 18.06 39.98 32.45C39.98 46.84 51.69 58.54 66.08 58.54ZM81.06 61.13C77.81 62.83 74.24 63.98 70.46 64.49L78 84.96C78.39 86.02 78.18 87.22 77.44 88.08L68.47 98.59C67.87 99.29 67 99.69 66.08 99.69C65.16 99.69 64.29 99.29 63.69 98.59L54.72 88.08C53.98 87.22 53.77 86.02 54.16 84.96L61.69 64.49C57.92 63.98 54.35 62.83 51.1 61.13C36 73.48 23.7 103.66 18.51 141.27L113.64 141.27C108.45 103.66 96.16 73.48 81.06 61.13ZM66.08 70.78L60.69 85.4L66.08 91.71L71.46 85.4L66.08 70.78ZM178.58 160.3L169.94 160.3L169.94 208.15L178.58 208.15L178.58 160.3ZM160.12 24.91C163.63 24.91 166.48 22.05 166.48 18.54C166.48 15.03 163.63 12.18 160.12 12.18C156.61 12.18 153.75 15.03 153.75 18.54C153.75 22.05 156.61 24.91 160.12 24.91ZM185.93 89.55L185.93 44.66L134.31 44.66L134.31 89.55L185.93 89.55ZM150.95 95.84L150.95 105.41L169.29 105.41L169.29 95.84L150.95 95.84ZM150.3 160.3L141.66 160.3L141.66 208.15L150.3 208.15L150.3 160.3ZM186.54 154.02L186.54 111.69L133.7 111.69L133.7 154.02L186.54 154.02Z" />
		</g>
	</g>
</svg>