<svg version="1.2" baseProfile="tiny-ps" xmlns="http://www.w3.org/2000/svg" viewBox="0 0 186 186" width="186" height="186">
	<title>Home Agio '21</title>
	<style>
		tspan { white-space:pre }
		.shp0 { fill: #ffffff } 
	</style>
	<g id="Home Agio '21">
		<path id="Path 4204" fill-rule="evenodd" class="shp0" d="M180.13 148.9C179.67 149.17 179.17 149.29 178.67 149.29C177.66 149.29 176.67 148.77 176.13 147.83C175.32 146.43 175.8 144.64 177.2 143.83C178.71 142.96 179.64 141.34 179.64 139.6L179.64 111.29L163.05 111.29C161.43 111.29 160.12 109.98 160.12 108.36C160.12 106.74 161.43 105.43 163.05 105.43L179.64 105.43L179.64 10.74C179.64 8.05 177.45 5.86 174.76 5.86L38.09 5.86C36.47 5.86 35.16 4.55 35.16 2.93C35.16 1.31 36.47 0 38.09 0L174.76 0C180.68 0 185.5 4.82 185.5 10.74L185.5 139.6C185.5 143.42 183.44 146.98 180.13 148.9ZM26.38 5.86L10.76 5.86C8.06 5.86 5.87 8.05 5.87 10.74L5.87 105.43L77.14 105.43C78.76 105.43 80.07 106.74 80.07 108.36C80.07 109.98 78.76 111.29 77.14 111.29L5.87 111.29L5.87 139.6C5.87 142.29 8.06 144.48 10.76 144.48L61.52 144.48C63.14 144.48 64.45 145.79 64.45 147.41C64.45 149.03 63.14 150.34 61.52 150.34L10.76 150.34C4.83 150.34 0.02 145.52 0.02 139.6L0.02 10.74C0.02 4.82 4.83 0 10.76 0L26.38 0C27.99 0 29.3 1.31 29.3 2.93C29.3 4.55 27.99 5.86 26.38 5.86ZM22.47 138.62C16.55 138.62 11.73 133.81 11.73 127.88C11.73 121.96 16.55 117.15 22.47 117.15L49.8 117.15C55.73 117.15 60.54 121.96 60.54 127.88C60.54 133.81 55.73 138.62 49.8 138.62L22.47 138.62ZM54.69 127.88C54.69 125.19 52.5 123 49.8 123L22.47 123C19.78 123 17.59 125.19 17.59 127.88C17.59 130.58 19.78 132.77 22.47 132.77L49.8 132.77C52.5 132.77 54.69 130.58 54.69 127.88ZM75.71 145.17L101.54 137.42L101.54 128.26C99.45 127.27 97.48 125.99 95.7 124.46C90.92 120.36 87.76 114.68 86.81 108.46L83.55 87.3C80.38 86.09 78.11 83.01 78.11 79.41C78.11 77.15 78.99 75.03 80.59 73.43L86.29 67.73L90.32 55.64C92.66 48.64 98.85 43.77 106.07 43.05C107.15 40.69 109.53 39.05 112.28 39.05L127.9 39.05C130.66 39.05 133.04 40.69 134.12 43.05C141.34 43.77 147.53 48.64 149.86 55.64L153.89 67.73L159.59 73.43C159.59 73.43 159.59 73.43 159.59 73.43C161.19 75.03 162.07 77.15 162.07 79.41C162.07 83.01 159.81 86.09 156.63 87.3L153.38 108.46C152.42 114.68 149.26 120.36 144.49 124.46C142.7 125.99 140.73 127.27 138.64 128.26L138.64 137.42L164.47 145.17C172.38 147.54 177.69 154.68 177.69 162.94L177.69 178.65C177.69 182.42 174.62 185.48 170.86 185.48L149.38 185.48C147.76 185.48 146.45 184.17 146.45 182.55L146.45 170.84C146.45 169.22 147.76 167.91 149.38 167.91C151 167.91 152.31 169.22 152.31 170.84L152.31 179.63L170.86 179.63C171.39 179.63 171.83 179.19 171.83 178.65L171.83 162.94C171.83 157.29 168.2 152.4 162.79 150.78L135.28 142.53L104.9 142.53L77.4 150.78C71.99 152.4 68.35 157.29 68.35 162.94L68.35 178.65C68.35 179.19 68.79 179.63 69.33 179.63L87.88 179.63L87.88 170.84C87.88 169.22 89.19 167.91 90.81 167.91C92.42 167.91 93.73 169.22 93.73 170.84L93.73 179.63L139.62 179.63C141.23 179.63 142.55 180.94 142.55 182.55C142.55 184.17 141.23 185.48 139.62 185.48L69.33 185.48C65.56 185.48 62.5 182.42 62.5 178.65L62.5 162.94C62.5 154.68 67.81 147.54 75.71 145.17ZM87.88 127.88C87.88 133.81 83.06 138.62 77.14 138.62C71.22 138.62 66.4 133.81 66.4 127.88C66.4 121.96 71.22 117.15 77.14 117.15C83.06 117.15 87.88 121.96 87.88 127.88ZM28.33 37.1C25.64 37.1 23.45 34.91 23.45 32.22L23.45 20.5C23.45 17.81 25.64 15.62 28.33 15.62L55.66 15.62C58.35 15.62 60.54 17.81 60.54 20.5L60.54 23.43L159.14 23.43C160.76 23.43 162.07 24.74 162.07 26.36L162.07 57.6C162.07 59.21 160.76 60.53 159.14 60.53C157.52 60.53 156.21 59.21 156.21 57.6L156.21 29.29L60.54 29.29L60.54 32.21C60.54 34.91 58.35 37.1 55.66 37.1L44.92 37.1L44.92 44.07L57.84 50.53C59.51 51.36 60.54 53.04 60.54 54.9L60.54 56.39C60.54 58.25 59.51 59.92 57.84 60.76L44.92 67.22L44.92 74.19L55.66 74.19C58.35 74.19 60.54 76.38 60.54 79.07L60.54 82L69.33 82C70.95 82 72.26 83.31 72.26 84.93C72.26 86.55 70.95 87.86 69.33 87.86L60.54 87.86L60.54 90.79C60.54 93.48 58.35 95.67 55.66 95.67L28.33 95.67C25.64 95.67 23.45 93.48 23.45 90.79L23.45 79.07C23.45 76.38 25.64 74.19 28.33 74.19L39.07 74.19L39.07 67.22L26.14 60.76C24.48 59.93 23.45 58.25 23.45 56.39L23.45 54.9C23.45 53.04 24.48 51.37 26.15 50.53L39.07 44.07L39.07 37.1L28.33 37.1ZM29.3 80.05L29.3 89.81L54.69 89.81L54.69 80.05L29.3 80.05ZM29.3 55.5L29.3 55.79L41.99 62.13L54.69 55.79L54.69 55.5L41.99 49.16L29.3 55.5ZM54.69 31.24L54.69 21.48L29.3 21.48L29.3 31.24L54.69 31.24ZM163.05 138.62C157.13 138.62 152.31 133.81 152.31 127.88C152.31 121.96 157.13 117.15 163.05 117.15C168.97 117.15 173.78 121.96 173.78 127.88C173.78 133.81 168.97 138.62 163.05 138.62ZM163.05 123C160.35 123 158.17 125.19 158.17 127.89C158.17 130.58 160.35 132.77 163.05 132.77C165.74 132.77 167.93 130.58 167.93 127.89C167.93 125.19 165.74 123 163.05 123ZM77.14 123C74.45 123 72.26 125.19 72.26 127.88C72.26 130.58 74.45 132.77 77.14 132.77C79.83 132.77 82.02 130.58 82.02 127.88C82.02 125.19 79.83 123 77.14 123ZM153.62 82L153.62 82C155.05 82 156.21 80.84 156.21 79.41C156.21 78.73 155.94 78.06 155.45 77.57L149.26 71.38C148.94 71.06 148.7 70.67 148.55 70.24L144.3 57.49C142.84 53.1 139.15 49.93 134.74 49.05L134.74 61.5C134.74 63.12 133.42 64.43 131.81 64.43C130.19 64.43 128.88 63.12 128.88 61.5L128.88 45.88C128.88 45.34 128.44 44.91 127.9 44.91L112.28 44.91C111.74 44.91 111.31 45.34 111.31 45.88L111.31 61.5C111.31 63.12 110 64.43 108.38 64.43C106.76 64.43 105.45 63.12 105.45 61.5L105.45 49.05C101.03 49.92 97.35 53.1 95.88 57.49L91.63 70.24C91.49 70.67 91.25 71.06 90.92 71.38L84.73 77.57C84.24 78.06 83.97 78.72 83.97 79.41C83.97 80.84 85.14 82 86.57 82L153.62 82ZM116.19 130.81L112.86 130.81C111.01 130.81 109.19 130.62 107.4 130.24L107.4 136.67L132.78 136.67L132.78 130.24C131 130.62 129.17 130.81 127.33 130.81C125.71 130.81 124.4 129.5 124.4 127.89C124.4 126.27 125.71 124.96 127.33 124.96C137.52 124.96 146.04 117.65 147.59 107.57L150.62 87.86L89.56 87.86L92.6 107.57C94.15 117.65 102.67 124.96 112.86 124.96L116.19 124.96C117.81 124.96 119.12 126.27 119.12 127.89C119.12 129.5 117.81 130.81 116.19 130.81Z" />
	</g>
</svg>