<svg version="1.2" baseProfile="tiny-ps" xmlns="http://www.w3.org/2000/svg" viewBox="0 0 90 234" width="90" height="234">
	<title>Animations</title>
	<style>
		tspan { white-space:pre }
		.shp0 { fill: #ffffff } 
		.shp1 { fill: #1660a9 } 
	</style>
	<g id="Animations">
		<g id="Bottle">
			<path id="Union 1" class="shp0" d="M10.85 233.51C4.88 233.51 0 228.85 0 223.15L0 130.98L24.14 87.23L24.14 72.73L65.37 72.73L65.37 87.23L89.78 130.72L89.78 223.15C89.78 228.85 84.9 233.51 78.93 233.51L10.85 233.51ZM16.05 67.29L16.05 50.72C16.05 47.87 18.56 45.54 21.63 45.54L30.83 45.54L30.83 13.44C30.83 6.19 37.24 0.49 44.77 0.49C52.58 0.49 58.71 6.45 58.71 13.44L58.71 45.28L67.64 45.28C70.7 45.28 73.21 47.61 73.21 50.46L73.21 67.29L16.05 67.29Z" />
			<g id="Group 909">
				<g id="Group 907">
					<path id="Ellipse 1" class="shp1" d="M56.94 171.54C56.36 173.03 54.69 173.78 53.19 173.2C51.7 172.63 50.96 170.96 51.53 169.46C52.11 167.97 53.78 167.23 55.27 167.8C56.77 168.37 57.51 170.05 56.94 171.54Z" />
				</g>
				<g id="Group 908">
					<path id="Path 4181" fill-rule="evenodd" class="shp1" d="M73.79 184.24C73.79 188.62 70.23 192.18 65.86 192.18C61.48 192.18 57.92 188.62 57.92 184.24C57.92 179.86 61.48 176.3 65.86 176.3C70.23 176.3 73.79 179.86 73.79 184.24ZM71 184.24C71 181.41 68.69 179.1 65.86 179.1C63.02 179.1 60.71 181.41 60.71 184.24C60.71 187.08 63.02 189.38 65.86 189.38C68.69 189.38 71 187.08 71 184.24Z" />
					<path id="Path 4182" fill-rule="evenodd" class="shp1" d="M46.92 190.75C49.06 192.29 50.37 194.86 50.18 197.65C50.04 199.73 49.09 201.64 47.51 203.02C46.07 204.28 44.26 204.95 42.37 204.95C42.19 204.95 42.01 204.94 41.82 204.93C37.51 204.64 34.24 200.89 34.54 196.58C34.59 195.81 35.26 195.23 36.03 195.28C36.8 195.33 37.38 196 37.32 196.77C37.13 199.54 39.24 201.95 42.01 202.14C43.36 202.24 44.66 201.8 45.67 200.91C46.69 200.03 47.3 198.8 47.39 197.45C47.57 194.85 45.71 192.55 43.16 192.14C42.9 192.16 42.65 192.18 42.39 192.18C38.01 192.18 34.45 188.62 34.45 184.24C34.45 179.86 38.01 176.3 42.39 176.3C43.71 176.3 44.95 176.63 46.05 177.21C46.31 176.44 47.02 175.89 47.87 175.89C48.93 175.89 49.8 176.76 49.8 177.82C49.8 178.57 49.37 179.2 48.76 179.53C49.74 180.85 50.32 182.47 50.32 184.24C50.32 186.93 48.98 189.31 46.92 190.75ZM47.53 184.24C47.53 181.41 45.22 179.1 42.39 179.1C39.55 179.1 37.24 181.41 37.24 184.24C37.24 187.08 39.55 189.38 42.39 189.38C45.22 189.38 47.53 187.08 47.53 184.24Z" />
					<path id="Path 4183" class="shp1" d="M54.31 176.61C53.54 176.61 52.92 177.23 52.92 178L52.92 190.78C52.92 191.55 53.54 192.18 54.31 192.18C55.09 192.18 55.71 191.55 55.71 190.78L55.71 178C55.71 177.23 55.09 176.61 54.31 176.61Z" />
					<path id="Path 4184" fill-rule="evenodd" class="shp1" d="M32.08 184.24C32.08 184.25 32.08 184.26 32.08 184.27C32.08 184.27 32.08 184.27 32.08 184.27L32.08 190.78C32.08 191.55 31.46 192.18 30.69 192.18C29.91 192.18 29.29 191.55 29.29 190.78L29.29 190.28C27.9 191.46 26.11 192.18 24.15 192.18C19.77 192.18 16.21 188.62 16.21 184.24C16.21 179.86 19.77 176.3 24.15 176.3C28.52 176.3 32.08 179.86 32.08 184.24ZM29.29 184.24C29.29 181.41 26.98 179.1 24.15 179.1C21.31 179.1 19 181.41 19 184.24C19 187.08 21.31 189.38 24.15 189.38C26.98 189.38 29.29 187.08 29.29 184.24Z" />
				</g>
			</g>
		</g>
	</g>
</svg>