<svg version="1.2" baseProfile="tiny-ps" xmlns="http://www.w3.org/2000/svg" viewBox="0 0 943 1208" width="943" height="1208">
	<title>Home Agio '21</title>
	<style>
		tspan { white-space:pre }
		.shp0 { fill: #ffffff;stroke: #1660a9;stroke-width: 5 } 
	</style>
	<g id="Home Agio '21">
		<g id="noun_process_3867553">
			<g id="Layer 2">
				<path id="Path 4186" class="shp0" d="M562.9 480.69L619.03 480.69C621.1 480.69 622.77 479.02 622.77 476.95C622.77 474.88 621.1 473.21 619.03 473.21L562.9 473.21C560.83 473.21 559.16 474.88 559.16 476.95C559.16 479.02 560.83 480.69 562.9 480.69L562.9 480.69Z" />
				<path id="Path 4187" class="shp0" d="M648.96 491.92L562.9 491.92C560.83 491.92 559.16 493.59 559.16 495.66C559.16 497.73 560.83 499.4 562.9 499.4L648.96 499.4C651.03 499.4 652.7 497.73 652.7 495.66C652.7 493.59 651.03 491.92 648.96 491.92L648.96 491.92Z" />
				<path id="Path 4188" class="shp0" d="M592.84 510.63L562.9 510.63C560.83 510.63 559.16 512.3 559.16 514.37C559.16 516.44 560.83 518.11 562.9 518.11L592.84 518.11C594.9 518.11 596.58 516.44 596.58 514.37C596.58 512.3 594.9 510.63 592.84 510.63L592.84 510.63Z" />
				<path id="Path 4189" fill-rule="evenodd" class="shp0" d="M532.97 574.24C532.97 568.04 538 563.02 544.19 563.01L701.35 563.01C707.54 563.02 712.57 568.04 712.57 574.24L712.57 637.85C712.57 644.04 707.54 649.07 701.35 649.07L603.25 649.07L593.03 666.77C592 668.56 589.71 669.17 587.92 668.14L578.9 662.94C577.84 663.64 576.73 664.29 575.58 664.86L575.58 675.26C575.58 677.33 573.91 679.01 571.84 679.01L550.41 679.01C548.34 679.01 546.67 677.33 546.67 675.26L546.67 664.86C545.52 664.29 544.41 663.64 543.34 662.94L534.33 668.14C532.54 669.17 530.25 668.56 529.22 666.77L518.5 648.21C517.47 646.42 518.08 644.13 519.87 643.1L528.88 637.9C528.79 636.62 528.79 635.33 528.88 634.05L519.87 628.85C518.09 627.81 517.48 625.53 518.5 623.74L529.22 605.18C529.98 603.86 531.46 603.14 532.97 603.35L532.97 574.24ZM595.4 647.71L587.52 643.17C584.77 641.78 585.99 638.21 585.96 635.98C585.99 633.74 584.77 630.17 587.52 628.79L595.4 624.24L588.42 612.16L580.55 616.71C576.78 618.63 573.94 613.72 570.43 612.97C569.02 612.39 568.1 611.02 568.1 609.5L568.1 600.43L554.15 600.43L554.15 609.5C554.15 611.02 553.23 612.39 551.82 612.97C548.31 613.72 545.47 618.63 541.7 616.71L533.83 612.16L526.85 624.24L534.73 628.79C537.48 630.17 536.26 633.74 536.29 635.98C536.26 638.21 537.48 641.78 534.73 643.17L526.85 647.71L533.83 659.79L541.7 655.25C545.47 653.32 548.31 658.23 551.82 658.99C553.23 659.56 554.15 660.93 554.15 662.45L554.15 671.52L568.1 671.52L568.1 662.45C568.1 660.93 569.02 659.56 570.43 658.99C573.94 658.23 576.78 653.32 580.55 655.25L588.42 659.79L595.4 647.71ZM544.19 570.5C542.13 570.5 540.45 572.17 540.45 574.24L540.45 607.35L543.35 609.02C544.41 608.31 545.52 607.67 546.67 607.09L546.67 596.69C546.67 594.62 548.34 592.95 550.41 592.95L571.84 592.95C573.91 592.95 575.58 594.62 575.58 596.69L575.58 607.09C576.73 607.67 577.84 608.31 578.9 609.02L587.92 603.81C589.71 602.78 592 603.39 593.03 605.18L603.75 623.74C604.78 625.53 604.17 627.82 602.38 628.85L593.37 634.05C593.46 635.33 593.46 636.62 593.37 637.9L599.76 641.59L701.35 641.59C703.41 641.59 705.09 639.91 705.09 637.85L705.09 574.24C705.09 572.17 703.41 570.5 701.35 570.5L544.19 570.5Z" />
				<path id="Path 4190" class="shp0" d="M562.9 589.2L619.03 589.2C621.1 589.2 622.77 587.53 622.77 585.46C622.77 583.4 621.1 581.72 619.03 581.72L562.9 581.72C560.83 581.72 559.16 583.4 559.16 585.46C559.16 587.53 560.83 589.2 562.9 589.2L562.9 589.2Z" />
				<path id="Path 4191" class="shp0" d="M600.32 604.17C600.32 606.24 601.99 607.91 604.06 607.91L648.96 607.91C651.03 607.91 652.7 606.24 652.7 604.17C652.7 602.1 651.03 600.43 648.96 600.43L604.06 600.43C601.99 600.43 600.32 602.1 600.32 604.17L600.32 604.17Z" />
				<path id="Path 4192" class="shp0" d="M637.74 619.14L615.29 619.14C613.22 619.14 611.54 620.81 611.54 622.88C611.54 624.95 613.22 626.62 615.29 626.62L637.74 626.62C639.8 626.62 641.48 624.95 641.48 622.88C641.48 620.81 639.8 619.14 637.74 619.14L637.74 619.14Z" />
				<path id="Path 4193" fill-rule="evenodd" class="shp0" d="M561.12 619.14C570.42 619.14 577.96 626.68 577.96 635.98C577.96 645.28 570.42 652.82 561.12 652.81C551.82 652.81 544.29 645.28 544.29 635.98C544.29 626.68 551.82 619.14 561.12 619.14L561.12 619.14ZM561.12 645.33C566.29 645.33 570.48 641.14 570.48 635.98C570.48 630.81 566.29 626.62 561.12 626.62C555.96 626.62 551.77 630.81 551.77 635.98C551.77 641.14 555.96 645.33 561.12 645.33L561.12 645.33Z" />
				<path id="Path 4194" fill-rule="evenodd" class="shp0" d="M711.93 532.92C710.41 537.47 706.15 540.54 701.35 540.56L626.51 540.56L626.51 550.24L627.61 549.14C629.07 547.68 631.44 547.68 632.9 549.14C634.36 550.6 634.36 552.97 632.9 554.43L625.42 561.91C623.95 563.36 621.59 563.36 620.12 561.91L612.64 554.43C611.18 552.97 611.18 550.6 612.64 549.14C614.1 547.68 616.47 547.68 617.93 549.14L619.03 550.24L619.03 540.56L544.19 540.56C538 540.55 532.97 535.53 532.97 529.34L532.97 465.73C532.97 459.53 538 454.51 544.19 454.5L701.35 454.5C704.36 454.5 707.25 455.72 709.36 457.87C711.47 460.02 712.63 462.93 712.57 465.95C752.55 471.36 752.07 528.24 711.93 532.92ZM701.35 533.08C701.98 533.06 702.59 532.88 703.14 532.56C665.03 525.28 666.52 471.04 705.09 465.95C705.14 464.92 704.77 463.91 704.07 463.16C703.36 462.41 702.38 461.99 701.35 461.98L544.19 461.98C542.13 461.99 540.45 463.66 540.45 465.73L540.45 529.34C540.45 531.4 542.13 533.07 544.19 533.08L701.35 533.08ZM735.02 499.4C733.8 464.74 683.87 464.74 682.64 499.4C682.65 513.86 694.37 525.58 708.83 525.59C723.29 525.58 735.01 513.86 735.02 499.4Z" />
				<path id="Path 4195" class="shp0" d="M721.15 489.27L708.83 501.59L703.99 496.76C702.53 495.29 700.16 495.29 698.7 496.76C697.24 498.22 697.24 500.59 698.7 502.05L706.19 509.53C707.65 510.99 710.02 510.99 711.48 509.53L726.44 494.56C727.91 493.1 727.91 490.73 726.44 489.27C724.98 487.81 722.61 487.81 721.15 489.27L721.15 489.27Z" />
			</g>
		</g>
	</g>
</svg>