<svg version="1.2" baseProfile="tiny-ps" xmlns="http://www.w3.org/2000/svg" viewBox="0 0 90 234" width="90" height="234">
	<title>Home Agio '21</title>
	<style>
		tspan { white-space:pre }
		.shp0 { fill: #ffffff } 
	</style>
	<g id="Home Agio '21">
		<g id="Bottle">
			<path id="Union 1" class="shp0" d="M10.85 233.51C4.88 233.51 0 228.85 0 223.15L0 130.98L24.14 87.23L24.14 72.73L65.37 72.73L65.37 87.23L89.78 130.72L89.78 223.15C89.78 228.85 84.9 233.51 78.93 233.51L10.85 233.51ZM16.05 67.29L16.05 50.72C16.05 47.87 18.56 45.54 21.63 45.54L30.83 45.54L30.83 13.44C30.83 6.19 37.24 0.49 44.77 0.49C52.58 0.49 58.71 6.45 58.71 13.44L58.71 45.28L67.64 45.28C70.7 45.28 73.21 47.61 73.21 50.46L73.21 67.29L16.05 67.29Z" />
		</g>
	</g>
</svg>