<svg xmlns="http://www.w3.org/2000/svg" width="82" height="82" viewBox="0 0 82 82">
  <g id="noun_Blueprint_3532659" transform="translate(-9 -9)" style="isolation: isolate">
    <path id="Path_4228" data-name="Path 4228" d="M17,71a11.948,11.948,0,0,0-8,3.08V17a8,8,0,0,1,16,0V74.08A11.948,11.948,0,0,0,17,71ZM91,21V91H17a8,8,0,1,1,8-8,2,2,0,0,0,4,0V21ZM61,83a2.006,2.006,0,0,0-2-2H45a2,2,0,0,0,0,4H59A2.006,2.006,0,0,0,61,83Zm0-8a2.006,2.006,0,0,0-2-2H51a2,2,0,0,0,0,4h8A2.006,2.006,0,0,0,61,75Zm24,0a2.006,2.006,0,0,0-2-2H67a2.006,2.006,0,0,0-2,2v8a2.006,2.006,0,0,0,2,2H83a2.006,2.006,0,0,0,2-2Zm0-36a1.981,1.981,0,0,0-1.2-1.83l-23-10a1.941,1.941,0,0,0-1.6,0l-23,10A1.981,1.981,0,0,0,35,39V65a2.006,2.006,0,0,0,2,2H83a2.006,2.006,0,0,0,2-2ZM69,81H81V77H69ZM60,31.18l21,9.13V63H39V40.31ZM57,47a2.006,2.006,0,0,0-2-2H45a2.006,2.006,0,0,0-2,2V57a2.006,2.006,0,0,0,2,2H55a2.006,2.006,0,0,0,2-2Zm6,10a2.006,2.006,0,0,0,2,2H75a2.006,2.006,0,0,0,2-2V47a2.006,2.006,0,0,0-2-2H65a2.006,2.006,0,0,0-2,2ZM47,55h6V49H47Zm26-6H67v6h6Z" fill="#1660a9"/>
  </g>
</svg>
