<svg version="1.2" baseProfile="tiny-ps" xmlns="http://www.w3.org/2000/svg" viewBox="0 0 42 41" width="42" height="41">
	<title>Teste Fit</title>
	<style>
		tspan { white-space:pre }
		.shp0 { fill: #1660a9 } 
	</style>
	<g id="Teste Fit">
		<g id="noun_Blueprint_3532659">
			<path id="Path 4228" fill-rule="evenodd" class="shp0" d="M4.5 31C2.96 31 1.56 31.58 0.5 32.54L0.5 4C0.5 1.79 2.29 0 4.5 0C6.7 0 8.5 1.79 8.5 4L8.5 32.54C7.43 31.58 6.03 31 4.5 31ZM41.5 6L41.5 41L4.5 41C2.29 41 0.5 39.2 0.5 37C0.5 34.79 2.29 33 4.5 33C6.7 33 8.5 34.79 8.5 37C8.5 37.55 8.95 38 9.5 38C10.05 38 10.5 37.55 10.5 37L10.5 6L41.5 6ZM26.5 37C26.5 36.45 26.05 36 25.5 36L18.5 36C17.95 36 17.5 36.45 17.5 37C17.5 37.55 17.95 38 18.5 38L25.5 38C26.05 38 26.5 37.55 26.5 37ZM26.5 33C26.5 32.45 26.05 32 25.5 32L21.5 32C20.95 32 20.5 32.45 20.5 33C20.5 33.55 20.95 34 21.5 34L25.5 34C26.05 34 26.5 33.55 26.5 33ZM38.5 33C38.5 32.45 38.05 32 37.5 32L29.5 32C28.95 32 28.5 32.45 28.5 33L28.5 37C28.5 37.55 28.95 38 29.5 38L37.5 38C38.05 38 38.5 37.55 38.5 37L38.5 33ZM38.5 15C38.5 14.6 38.26 14.24 37.9 14.08L26.4 9.08C26.14 8.97 25.85 8.97 25.6 9.08L14.1 14.08C13.73 14.24 13.5 14.6 13.5 15L13.5 28C13.5 28.55 13.95 29 14.5 29L37.5 29C38.05 29 38.5 28.55 38.5 28L38.5 15ZM30.5 34L36.5 34L36.5 36L30.5 36L30.5 34ZM26 11.09L36.5 15.65L36.5 27L15.5 27L15.5 15.65L26 11.09ZM24.5 19C24.5 18.45 24.05 18 23.5 18L18.5 18C17.95 18 17.5 18.45 17.5 19L17.5 24C17.5 24.55 17.95 25 18.5 25L23.5 25C24.05 25 24.5 24.55 24.5 24L24.5 19ZM27.5 24C27.5 24.55 27.95 25 28.5 25L33.5 25C34.05 25 34.5 24.55 34.5 24L34.5 19C34.5 18.45 34.05 18 33.5 18L28.5 18C27.95 18 27.5 18.45 27.5 19L27.5 24ZM19.5 20L22.5 20L22.5 23L19.5 23L19.5 20ZM32.5 23L29.5 23L29.5 20L32.5 20L32.5 23Z" />
		</g>
	</g>
</svg>