<svg xmlns="http://www.w3.org/2000/svg" xmlns:xlink="http://www.w3.org/1999/xlink" width="160.1" height="103.84" viewBox="0 0 160.1 103.84">
  <defs>
    <clipPath id="clip-path">
      <rect id="Rectangle_14" data-name="Rectangle 14" width="160.094" height="103.836" fill="none"/>
    </clipPath>
  </defs>
  <g id="Logo_White" data-name="Logo White" clip-path="url(#clip-path)">
    <path id="Path_4229" data-name="Path 4229" d="M63.768,7.984a7.984,7.984,0,1,0-7.984,7.984,7.984,7.984,0,0,0,7.984-7.984" transform="translate(50.058 0)" fill="#ec4645"/>
    <path id="Path_4230" data-name="Path 4230" d="M78.71,11.8a22.11,22.11,0,1,0,22.11,22.11A22.11,22.11,0,0,0,78.71,11.8m0,36.441A14.331,14.331,0,1,1,93.041,33.91,14.331,14.331,0,0,1,78.71,48.241" transform="translate(59.274 12.357)"/>
    <path id="Path_4231" data-name="Path 4231" d="M69.063,34.4a21.905,21.905,0,0,0-4.3-13.1,5.323,5.323,0,1,0-7.575-6.551A22.11,22.11,0,1,0,46.953,56.3H49A13.921,13.921,0,1,1,32.827,69.2a3.9,3.9,0,0,0-7.78-.614A21.905,21.905,0,0,0,45.315,91.927h1.433A21.7,21.7,0,0,0,59.441,52.415,22.11,22.11,0,0,0,68.858,34.4M46.748,48.73A14.331,14.331,0,1,1,61.079,34.4,14.331,14.331,0,0,1,46.748,48.73" transform="translate(25.724 11.868)"/>
    <path id="Path_4232" data-name="Path 4232" d="M53.79,12.2a3.89,3.89,0,0,0-3.89,3.89V51.712a3.89,3.89,0,0,0,7.78,0V16.09a3.89,3.89,0,0,0-3.89-3.89" transform="translate(52.257 12.776)"/>
    <path id="Path_4233" data-name="Path 4233" d="M22.141,11.8A22.11,22.11,0,1,0,36.472,50.7v1.433a3.89,3.89,0,0,0,7.78,0V33.91h0A22.11,22.11,0,0,0,22.141,11.8m0,36.441A14.331,14.331,0,1,1,36.472,33.91,14.331,14.331,0,0,1,22.141,48.241" transform="translate(-0.031 12.357)"/>
  </g>
</svg>
