<svg version="1.2" baseProfile="tiny-ps" xmlns="http://www.w3.org/2000/svg" viewBox="0 0 81 53" width="81" height="53">
	<title>Home Agio '21</title>
	<defs>
		<clipPath clipPathUnits="userSpaceOnUse" id="cp1">
			<path d="M0.5 0.45L80.55 0.45L80.55 52.38L0.5 52.38L0.5 0.45Z" />
		</clipPath>
	</defs>
	<style>
		tspan { white-space:pre }
		.shp0 { fill: #ec4645 } 
		.shp1 { fill: #ffffff } 
	</style>
	<g id="Home Agio '21">
		<g id="Logo White" clip-path="url(#cp1)">
			<path id="Path 4229" class="shp0" d="M57.42 4.45C57.42 2.24 55.63 0.45 53.42 0.45C51.22 0.45 49.43 2.24 49.43 4.45C49.43 6.65 51.22 8.44 53.42 8.44C55.63 8.44 57.42 6.65 57.42 4.45" />
			<path id="Path 4230" fill-rule="evenodd" class="shp1" d="M69.49 12.53C75.6 12.53 80.55 17.48 80.55 23.59C80.55 29.7 75.6 34.65 69.49 34.65C63.39 34.65 58.44 29.7 58.44 23.59C58.44 17.48 63.39 12.53 69.49 12.53ZM69.49 30.76C73.45 30.76 76.66 27.55 76.66 23.59C76.66 19.63 73.45 16.42 69.49 16.42C65.54 16.42 62.33 19.63 62.33 23.59C62.33 27.55 65.54 30.76 69.49 30.76Z" />
			<path id="Path 4231" fill-rule="evenodd" class="shp1" d="M47.79 23.59C47.78 27.18 46.02 30.54 43.08 32.6C47 35.32 48.68 40.28 47.22 44.82C45.76 49.36 41.51 52.42 36.74 52.35L36.02 52.35C30.01 51.92 25.48 46.7 25.89 40.68C25.97 39.61 26.91 38.81 27.98 38.89C29.06 38.98 29.86 39.92 29.78 40.99C29.55 44.74 32.33 47.98 36.07 48.34C39.8 48.69 43.14 46.03 43.63 42.31C44.11 38.59 41.56 35.16 37.86 34.54L36.84 34.54C32.21 34.6 28.04 31.77 26.38 27.45C24.72 23.13 25.93 18.24 29.4 15.18C32.88 12.13 37.89 11.56 41.96 13.76C42.38 12.67 43.47 11.98 44.64 12.06C45.81 12.15 46.79 12.99 47.04 14.14C47.29 15.29 46.77 16.46 45.75 17.04C47.15 18.93 47.9 21.23 47.9 23.59M36.74 30.76C40.69 30.76 43.9 27.55 43.9 23.59C43.9 19.63 40.69 16.42 36.74 16.42C32.78 16.42 29.57 19.63 29.57 23.59C29.57 27.55 32.78 30.76 36.74 30.76Z" />
			<path id="Path 4232" class="shp1" d="M53.53 12.94C52.45 12.94 51.58 13.81 51.58 14.89L51.58 32.7C51.58 33.77 52.45 34.65 53.53 34.65C54.6 34.65 55.47 33.77 55.47 32.7L55.47 14.89C55.47 13.81 54.6 12.94 53.53 12.94Z" />
			<path id="Path 4233" fill-rule="evenodd" class="shp1" d="M11.56 12.53C17.66 12.53 22.61 17.48 22.61 23.59L22.61 32.7C22.61 33.77 21.74 34.65 20.67 34.65C19.59 34.65 18.72 33.77 18.72 32.7L18.72 31.98C15 35.17 9.62 35.53 5.51 32.86C1.4 30.19 -0.47 25.14 0.93 20.44C2.33 15.74 6.65 12.52 11.56 12.53ZM11.56 30.76C15.51 30.76 18.72 27.55 18.72 23.59C18.72 19.63 15.51 16.42 11.56 16.42C7.6 16.42 4.39 19.63 4.39 23.59C4.39 27.55 7.6 30.76 11.56 30.76Z" />
		</g>
	</g>
</svg>