<svg version="1.2" baseProfile="tiny-ps" xmlns="http://www.w3.org/2000/svg" viewBox="0 0 42 42" width="42" height="42">
	<title>Home Agio '21</title>
	<style>
		tspan { white-space:pre }
		.shp0 { fill: #ffffff } 
	</style>
	<g id="Home Agio '21">
		<g id="Layer 2">
			<path id="Path 4239" fill-rule="evenodd" class="shp0" d="M20.7 0.46C32.03 0.46 41.21 9.64 41.21 20.96C41.21 32.28 32.03 41.46 20.7 41.46C9.38 41.46 0.2 32.28 0.2 20.96C0.2 9.64 9.38 0.46 20.7 0.46ZM14.84 20.96C14.84 18.53 12.88 16.57 10.45 16.57C8.02 16.57 6.05 18.53 6.05 20.96C6.05 23.39 8.02 25.35 10.45 25.35C12.88 25.35 14.84 23.39 14.84 20.96ZM25.09 20.96C25.09 18.53 23.13 16.57 20.7 16.57C18.27 16.57 16.31 18.53 16.31 20.96C16.31 23.39 18.27 25.35 20.7 25.35C23.13 25.35 25.09 23.39 25.09 20.96ZM35.35 20.96C35.35 18.53 33.38 16.57 30.95 16.57C28.53 16.57 26.56 18.53 26.56 20.96C26.56 23.39 28.53 25.35 30.95 25.35C33.38 25.35 35.35 23.39 35.35 20.96Z" />
		</g>
	</g>
</svg>