<svg id="Layer_2" data-name="Layer 2" xmlns="http://www.w3.org/2000/svg" width="82.018" height="82.018" viewBox="0 0 82.018 82.018">
  <path id="Path_4239" data-name="Path 4239" d="M43.009,2A41.009,41.009,0,1,0,84.018,43.009,41.009,41.009,0,0,0,43.009,2ZM22.5,51.8a8.788,8.788,0,1,1,8.788-8.788A8.788,8.788,0,0,1,22.5,51.8Zm20.5,0A8.788,8.788,0,1,1,51.8,43.009,8.788,8.788,0,0,1,43.009,51.8Zm20.5,0A8.788,8.788,0,1,1,72.3,43.009,8.788,8.788,0,0,1,63.514,51.8Z" transform="translate(-2 -2)" fill="#1660a9"/>
</svg>
