<svg xmlns="http://www.w3.org/2000/svg" width="117.672" height="66.272" viewBox="0 0 117.672 66.272">
  <g id="noun_mood_board_21878" data-name="noun_mood board_21878" transform="translate(-4.121 -24.298)">
    <rect id="Rectangle_8" data-name="Rectangle 8" width="18.771" height="18.771" transform="translate(70.415 24.298)" fill="#1660a9"/>
    <rect id="Rectangle_9" data-name="Rectangle 9" width="18.771" height="18.771" transform="translate(91.877 24.298)" fill="#1660a9"/>
    <g id="Group_918" data-name="Group 918" transform="translate(4.121 36.947)">
      <g id="Group_917" data-name="Group 917">
        <path id="Path_4205" data-name="Path 4205" d="M12.066,65.333,7.477,41.453l23.879-4.589,2.226,11.5,3.086.793-3.01-15.58L4.121,39.259l6.306,32.811,8.227-1.582,1.73-6.754Z" transform="translate(-4.121 -33.582)" fill="#1660a9"/>
      </g>
    </g>
    <g id="Group_920" data-name="Group 920" transform="translate(45.203 41.918)">
      <g id="Group_919" data-name="Group 919">
        <path id="Path_4206" data-name="Path 4206" d="M47.763,75.493,63.485,56.944,44.937,41.221l-7.588,8.93-3.076-.827L44.542,37.23,67.486,56.681l-21.6,25.487L39.493,76.75,41.3,70.015Z" transform="translate(-34.273 -37.23)" fill="#1660a9"/>
      </g>
    </g>
    <g id="Group_922" data-name="Group 922" transform="translate(17.229 50.74)">
      <g id="Group_921" data-name="Group 921">
        <path id="Path_4207" data-name="Path 4207" d="M22.035,43.705,13.742,76.071,42.88,83.536,51.171,51.17ZM41.654,76.711,18.1,70.677l6.036-23.555L47.69,53.157Z" transform="translate(-13.742 -43.705)" fill="#1660a9"/>
      </g>
    </g>
    <g id="Group_937" data-name="Group 937" transform="translate(81.511 57.735)">
      <g id="Group_936" data-name="Group 936">
        <g id="Group_931" data-name="Group 931">
          <g id="Group_930" data-name="Group 930">
            <rect id="Rectangle_10" data-name="Rectangle 10" width="40.282" height="4.087" fill="#1660a9"/>
          </g>
        </g>
        <g id="Group_933" data-name="Group 933" transform="translate(0 9.343)">
          <g id="Group_932" data-name="Group 932">
            <rect id="Rectangle_11" data-name="Rectangle 11" width="40.282" height="4.087" fill="#1660a9"/>
          </g>
        </g>
        <g id="Group_935" data-name="Group 935" transform="translate(0 18.686)">
          <g id="Group_934" data-name="Group 934">
            <rect id="Rectangle_12" data-name="Rectangle 12" width="40.282" height="4.087" fill="#1660a9"/>
          </g>
        </g>
      </g>
    </g>
    <g id="Group_938" data-name="Group 938" transform="translate(27.496 24.298)">
      <path id="Path_4214" data-name="Path 4214" d="M40.048,24.3H21.277V36.852l7.33-1.425,1.485,7.642h9.956Z" transform="translate(-21.277 -24.298)" fill="#1660a9"/>
    </g>
    <g id="Group_939" data-name="Group 939" transform="translate(48.956 24.298)">
      <path id="Path_4215" data-name="Path 4215" d="M46.879,43.069H55.8V24.3H37.028V43.069h3.909l2.457-2.839Z" transform="translate(-37.028 -24.298)" fill="#1660a9"/>
    </g>
  </g>
</svg>
