<svg xmlns="http://www.w3.org/2000/svg" width="384.874" height="428.741" viewBox="0 0 384.874 428.741">
  <g id="noun_person_with_robot_3728333" data-name="noun_person with robot_3728333" transform="translate(-76.453 -10.888)">
    <circle id="Ellipse_2" data-name="Ellipse 2" cx="8.107" cy="8.107" r="8.107" transform="translate(218.748 55.208)" fill="#fff"/>
    <circle id="Ellipse_3" data-name="Ellipse 3" cx="8.107" cy="8.107" r="8.107" transform="translate(180.713 55.208)" fill="#fff"/>
    <circle id="Ellipse_4" data-name="Ellipse 4" cx="8.107" cy="8.107" r="8.107" transform="translate(406.829 125.598)" fill="#fff"/>
    <circle id="Ellipse_5" data-name="Ellipse 5" cx="8.107" cy="8.107" r="8.107" transform="translate(368.794 125.598)" fill="#fff"/>
    <path id="Path_4196" data-name="Path 4196" d="M105.506,34.511H67.472a6.284,6.284,0,1,0,0,12.569h38.034a6.284,6.284,0,0,0,0-12.569Z" transform="translate(309.43 124.83)" fill="#fff"/>
    <path id="Path_4197" data-name="Path 4197" d="M347.2,439.629h29.851a6.285,6.285,0,0,0,6.284-6.284V331.359h9.635a6.285,6.285,0,0,0,6.284-6.284V227.864a6.285,6.285,0,0,0-6.284-6.284H364.756V202.435h26.994a6.285,6.285,0,0,0,6.284-6.284V93.8a6.285,6.285,0,0,0-6.284-6.284H340.128V72.26a25.3,25.3,0,1,0-12.569,0V87.518H275.937a6.285,6.285,0,0,0-6.284,6.284v73.743C228.52,164.734,202.2,142.2,200.3,140.521a113.54,113.54,0,0,0-13.576-14.759,64.761,64.761,0,1,0-81.914,0c-2.5,2.239-4.944,4.736-7.353,7.373C86.331,138.143,13.78,175.317,14.382,292.4a6.285,6.285,0,0,0,6.284,6.251H20.7a6.283,6.283,0,0,0,6.251-6.318c-.368-71.634,28.1-110.944,50.443-130.751-18.96,33.725-33.2,81.4-40.167,137.232a6.283,6.283,0,0,0,6.235,7.064h63.058V433.344a6.284,6.284,0,1,0,12.569,0V305.878h53.346V433.344a6.284,6.284,0,1,0,12.569,0V305.878h63.058a6.282,6.282,0,0,0,6.235-7.061c-6.663-53.425-19.965-99.465-37.713-132.886a137.758,137.758,0,0,0,53.068,14.2V196.15a6.285,6.285,0,0,0,6.284,6.284h27v19.145H274.719a6.285,6.285,0,0,0-6.284,6.284v97.211a6.285,6.285,0,0,0,6.284,6.284h9.635V433.344a6.285,6.285,0,0,0,6.284,6.284h29.851a6.285,6.285,0,0,0,6.284-6.284V331.359h14.14V433.344A6.285,6.285,0,0,0,347.2,439.629ZM93.571,75.649a52.191,52.191,0,1,1,52.193,52.193A52.251,52.251,0,0,1,93.571,75.649Zm62.966,105.91-10.774,12.615L134.99,181.56l10.774-29.249Zm84.36,111.75H50.627c10.387-75.235,34.978-135.6,65.177-160.3A64.219,64.219,0,0,0,137,139.746L121.925,180.67a6.287,6.287,0,0,0,1.12,6.254l17.942,21.007a6.282,6.282,0,0,0,9.555,0l17.942-21.007a6.287,6.287,0,0,0,1.12-6.254l-15.072-40.924a64.221,64.221,0,0,0,21.19-6.737C205.921,157.712,230.513,218.074,240.9,293.309ZM370.764,427.06H353.482v-95.7h17.282ZM321.112,47.846a12.733,12.733,0,1,1,12.731,12.731A12.747,12.747,0,0,1,321.112,47.846Zm-38.89,142.021V100.087H385.465v89.779Zm69.965,12.569v19.145H315.5V202.435ZM314.2,427.06H296.923v-95.7H314.2ZM281,318.79V234.148h105.68V318.79Z" transform="translate(62.074 0)" fill="#fff"/>
  </g>
</svg>
