<svg xmlns="http://www.w3.org/2000/svg" width="453.625" height="454.013" viewBox="0 0 453.625 454.013">
  <g id="noun_process_3867553" transform="translate(-5.103 0.5)">
    <g id="Layer_2" data-name="Layer 2" transform="translate(7.626 2)">
      <path id="Path_4186" data-name="Path 4186" d="M20.512,21.968H132.766a7.484,7.484,0,1,0,0-14.969H20.512a7.484,7.484,0,1,0,0,14.969Z" transform="translate(69.291 30.416)" fill="#fff" stroke="#1660a9" stroke-width="5"/>
      <path id="Path_4187" data-name="Path 4187" d="M192.634,12H20.512a7.484,7.484,0,1,0,0,14.969H192.634a7.484,7.484,0,1,0,0-14.969Z" transform="translate(69.291 62.834)" fill="#fff" stroke="#1660a9" stroke-width="5"/>
      <path id="Path_4188" data-name="Path 4188" d="M80.381,17H20.512a7.484,7.484,0,1,0,0,14.969H80.381a7.484,7.484,0,1,0,0-14.969Z" transform="translate(69.291 95.252)" fill="#fff" stroke="#1660a9" stroke-width="5"/>
      <path id="Path_4189" data-name="Path 4189" d="M31.962,53.451v58.234a7.456,7.456,0,0,0-7.5,3.655L3.029,152.458A7.533,7.533,0,0,0,5.77,162.682l18.014,10.4a53.058,53.058,0,0,0,0,7.7L5.77,191.177A7.49,7.49,0,0,0,3.029,201.4l21.431,37.118a7.49,7.49,0,0,0,10.224,2.741l18.033-10.411a65.282,65.282,0,0,0,6.647,3.855v20.8a7.484,7.484,0,0,0,7.484,7.484h42.858a7.484,7.484,0,0,0,7.484-7.484V234.7a65.271,65.271,0,0,0,6.647-3.855l18.033,10.41a7.5,7.5,0,0,0,10.225-2.74l20.438-35.4H368.722a22.475,22.475,0,0,0,22.451-22.451V53.451A22.475,22.475,0,0,0,368.722,31H54.413A22.475,22.475,0,0,0,31.962,53.451Zm110.909,171.1-15.734-9.084c-7.55-3.858-13.236,5.972-20.24,7.479a7.486,7.486,0,0,0-4.673,6.936v18.139H74.332V229.884a7.484,7.484,0,0,0-4.673-6.935c-7-1.508-12.694-11.339-20.24-7.481l-15.735,9.085L19.736,200.4l15.745-9.091c5.5-2.765,3.061-9.9,3.131-14.379-.071-4.471,2.366-11.618-3.132-14.378l-15.745-9.092,13.948-24.153,15.735,9.084c7.549,3.853,13.238-5.97,20.24-7.479a7.486,7.486,0,0,0,4.673-6.936V105.836h27.892v18.139a7.483,7.483,0,0,0,4.673,6.935c7,1.512,12.688,11.331,20.24,7.481l15.735-9.085,13.948,24.153-15.745,9.091c-5.5,2.765-3.061,9.9-3.131,14.379.071,4.471-2.366,11.618,3.132,14.378l15.745,9.092ZM368.722,45.967a7.493,7.493,0,0,1,7.484,7.484v127.22a7.493,7.493,0,0,1-7.484,7.484H165.55l-12.78-7.378a53.064,53.064,0,0,0,0-7.7l18.015-10.4a7.49,7.49,0,0,0,2.741-10.224L152.094,115.34A7.484,7.484,0,0,0,141.87,112.6l-18.033,10.41a65.272,65.272,0,0,0-6.647-3.855v-20.8a7.484,7.484,0,0,0-7.484-7.484H66.848a7.484,7.484,0,0,0-7.484,7.484v20.8a65.277,65.277,0,0,0-6.647,3.855l-5.788-3.342V53.451a7.493,7.493,0,0,1,7.484-7.484Z" transform="translate(-2.027 186.023)" fill="#fff" stroke="#1660a9" stroke-width="5"/>
      <path id="Path_4190" data-name="Path 4190" d="M20.512,50.968H132.766a7.484,7.484,0,1,0,0-14.969H20.512a7.484,7.484,0,1,0,0,14.969Z" transform="translate(69.291 218.44)" fill="#fff" stroke="#1660a9" stroke-width="5"/>
      <path id="Path_4191" data-name="Path 4191" d="M24.028,48.484a7.484,7.484,0,0,0,7.484,7.484h89.8a7.484,7.484,0,0,0,0-14.967h-89.8a7.484,7.484,0,0,0-7.484,7.484Z" transform="translate(140.611 250.859)" fill="#fff" stroke="#1660a9" stroke-width="5"/>
      <path id="Path_4192" data-name="Path 4192" d="M79.413,46h-44.9a7.484,7.484,0,1,0,0,14.969h44.9a7.484,7.484,0,1,0,0-14.969Z" transform="translate(160.061 283.275)" fill="#fff" stroke="#1660a9" stroke-width="5"/>
      <path id="Path_4193" data-name="Path 4193" d="M42.729,46A33.677,33.677,0,1,0,76.407,79.677,33.675,33.675,0,0,0,42.729,46Zm0,52.385A18.709,18.709,0,1,1,61.44,79.676a18.708,18.708,0,0,1-18.71,18.709Z" transform="translate(43.519 283.276)" fill="#fff" stroke="#1660a9" stroke-width="5"/>
      <path id="Path_4194" data-name="Path 4194" d="M365.238,24.892A22.491,22.491,0,0,0,342.788,2H28.478A22.475,22.475,0,0,0,6.028,24.451v127.22a22.475,22.475,0,0,0,22.451,22.451H178.149v19.352l-2.193-2.193a7.483,7.483,0,1,0-10.583,10.584l14.966,14.964a7.543,7.543,0,0,0,10.587,0l14.965-14.965a7.483,7.483,0,1,0-10.584-10.583l-2.191,2.193V174.122H342.788a22.407,22.407,0,0,0,21.169-15.281C444.243,149.488,445.2,35.713,365.238,24.892ZM28.478,159.155a7.493,7.493,0,0,1-7.484-7.484V24.451a7.493,7.493,0,0,1,7.484-7.484H342.788a7.524,7.524,0,0,1,7.483,7.925c-77.128,10.2-80.122,118.658-3.907,133.223a7.267,7.267,0,0,1-3.576,1.039Zm329.276-14.967A52.444,52.444,0,0,1,305.37,91.8c2.459-69.332,102.321-69.314,104.77,0A52.444,52.444,0,0,1,357.755,144.188Z" transform="translate(23.907 -2)" fill="#fff" stroke="#1660a9" stroke-width="5"/>
      <path id="Path_4195" data-name="Path 4195" d="M97.122,13.193,72.479,37.836,62.8,28.16A7.483,7.483,0,1,0,52.22,38.744L67.188,53.71a7.481,7.481,0,0,0,10.582,0L107.7,23.775A7.483,7.483,0,1,0,97.121,13.192Z" transform="translate(309.183 56.352)" fill="#fff" stroke="#1660a9" stroke-width="5"/>
    </g>
  </g>
</svg>
