<svg xmlns="http://www.w3.org/2000/svg" width="93.345" height="86.426" viewBox="0 0 93.345 86.426">
  <path id="_Compound_Path_5" data-name=" Compound Path 5" d="M746.37,457.015l21.148-17.19a1.275,1.275,0,0,1,.138-.089l.067-.045a1.291,1.291,0,0,1,.275-.112l37.728-10.016a1.3,1.3,0,0,1,1.292.372h31.343a.864.864,0,0,1,.864.864h0a.864.864,0,0,1-.864.864h-4.2l2.5,3.824h-1.769V483.7h1.769l-2.58,3.947h4.282a.864.864,0,0,1,.864.864h0a.864.864,0,0,1-.864.864H823.65a.924.924,0,0,1-.082.089v11.572a.864.864,0,0,1-.864.864h0a.864.864,0,0,1-.864-.864h0v-2.859l-3.932,3.91v-1.724l-26.651,10.343v1.69l-3.909-1.2v3.883a.864.864,0,0,1-.864.864h0a.864.864,0,0,1-.864-.864h0V503.627l-10.142-3.7a1.3,1.3,0,0,1-.853-1.232V475.472l-12.7-4.628v22.284a1.295,1.295,0,0,1-1.739,1.218l-9.059-3.3a1.3,1.3,0,0,1-.853-1.218V457.183L748,459.045a1.3,1.3,0,0,1-1.65-2.014ZM824,487.643h9.96l-2.58-3.947h1.769V435.487H831.38l2.487-3.809H808.474l21.64,25.858a1.3,1.3,0,0,1-.585,2.063L824,461.428Zm-36.652,23.4,3.909-3.913v1.724l26.651-10.34v-1.675l3.932,1.229v-7.819l-34.492,13.4v7.391Zm34.046-23.419V462.284L791.34,472.21a1.3,1.3,0,0,1-1.441-.454l-2.13-2.841v31.756ZM791.41,469.455l35.49-11.713-21.3-25.46-35.073,9.308Zm-38.558,19.484,6.467,2.357V469.012a1.3,1.3,0,0,1,1.757-1.218l15.292,5.585a1.3,1.3,0,0,1,.853,1.218v23.226l7.971,2.9V466.305l-17.1-23.587-15.224,12.376v33.863Z" transform="translate(-745.88 -429.518)" fill="#1660a9"/>
</svg>
