<svg xmlns="http://www.w3.org/2000/svg" width="370.965" height="370.965" viewBox="0 0 370.965 370.965">
  <path id="Path_4204" data-name="Path 4204" d="M360.231,297.8a5.857,5.857,0,1,1-5.866-10.14,9.8,9.8,0,0,0,4.885-8.46V222.578H326.059a5.857,5.857,0,0,1,0-11.714H359.25V21.477a9.773,9.773,0,0,0-9.762-9.762H76.146A5.857,5.857,0,0,1,76.146,0H349.488a21.5,21.5,0,0,1,21.478,21.477V279.2A21.555,21.555,0,0,1,360.231,297.8ZM44.906,277.247a21.477,21.477,0,1,1,0-42.954H99.575a21.477,21.477,0,1,1,0,42.954Zm64.431-21.477a9.774,9.774,0,0,0-9.762-9.762H44.906a9.762,9.762,0,1,0,0,19.525H99.574A9.773,9.773,0,0,0,109.337,255.77ZM52.716,11.714H21.477a9.773,9.773,0,0,0-9.762,9.762V210.865H154.243a5.857,5.857,0,1,1,0,11.714H11.714V279.2a9.773,9.773,0,0,0,9.762,9.762H123a5.857,5.857,0,1,1,0,11.714H21.477A21.5,21.5,0,0,1,0,279.2V21.477A21.5,21.5,0,0,1,21.477,0H52.716a5.857,5.857,0,0,1,0,11.714Zm123,244.056a21.477,21.477,0,1,1-21.477-21.477A21.5,21.5,0,0,1,175.72,255.77Zm-21.477-9.762a9.762,9.762,0,1,0,9.762,9.762A9.773,9.773,0,0,0,154.243,246.008ZM56.621,74.194a9.773,9.773,0,0,1-9.762-9.762V41a9.773,9.773,0,0,1,9.762-9.762H111.29A9.773,9.773,0,0,1,121.052,41v5.857h197.2a5.857,5.857,0,0,1,5.857,5.857v62.478a5.857,5.857,0,0,1-11.714,0V58.573H121.052v5.857a9.773,9.773,0,0,1-9.762,9.762H89.812V88.145l25.843,12.921a9.707,9.707,0,0,1,5.4,8.731v2.984a9.707,9.707,0,0,1-5.4,8.732L89.813,134.434v13.952H111.29a9.773,9.773,0,0,1,9.762,9.762v5.857h17.572a5.857,5.857,0,0,1,0,11.714H121.052v5.857a9.773,9.773,0,0,1-9.762,9.762H56.621a9.773,9.773,0,0,1-9.762-9.762v-23.43a9.773,9.773,0,0,1,9.762-9.762H78.1v-13.95L52.255,121.514a9.707,9.707,0,0,1-5.4-8.731V109.8a9.707,9.707,0,0,1,5.4-8.732L78.1,88.146V74.194ZM58.573,160.1v19.524h50.764V160.1Zm0-49.095v.569l25.382,12.691,25.382-12.691v-.569L83.955,98.315ZM83.955,62.479h25.382V42.954H58.573V62.479Zm242.1,214.769a21.477,21.477,0,1,1,21.477-21.477A21.5,21.5,0,0,1,326.058,277.247Zm0-31.239a9.762,9.762,0,1,0,9.762,9.762A9.773,9.773,0,0,0,326.058,246.009ZM151.393,290.341l51.661-15.5v-18.32a52.7,52.7,0,0,1-29.474-39.594l-6.51-42.318a16.9,16.9,0,0,1-5.924-27.744l11.407-11.406,8.062-24.187A37.049,37.049,0,0,1,212.1,86.091,13.687,13.687,0,0,1,224.53,78.1H255.77A13.686,13.686,0,0,1,268.2,86.091a37.049,37.049,0,0,1,31.483,25.181l8.062,24.187,11.407,11.406h0a16.9,16.9,0,0,1-5.925,27.743l-6.51,42.318a52.7,52.7,0,0,1-29.474,39.594v18.32l51.661,15.5a36.868,36.868,0,0,1,26.438,35.532V357.3a13.683,13.683,0,0,1-13.667,13.667H298.724a5.857,5.857,0,0,1-5.857-5.857V341.679a5.857,5.857,0,1,1,11.714,0v17.572h37.1a1.955,1.955,0,0,0,1.953-1.953V325.874a25.227,25.227,0,0,0-18.088-24.312l-55.012-16.5H209.771l-55.011,16.5a25.227,25.227,0,0,0-18.088,24.312V357.3a1.955,1.955,0,0,0,1.953,1.953h37.1V341.679a5.857,5.857,0,1,1,11.714,0v17.572H279.2a5.857,5.857,0,0,1,0,11.714H138.623A13.683,13.683,0,0,1,124.956,357.3V325.874A36.868,36.868,0,0,1,151.393,290.341ZM307.2,164.005h0a5.187,5.187,0,0,0,3.667-8.856l-12.384-12.383a5.858,5.858,0,0,1-1.415-2.29l-8.5-25.5a25.343,25.343,0,0,0-19.134-16.872V123a5.857,5.857,0,1,1-11.714,0V91.765a1.955,1.955,0,0,0-1.953-1.953H224.532a1.955,1.955,0,0,0-1.953,1.953V123a5.857,5.857,0,1,1-11.714,0v-24.9a25.344,25.344,0,0,0-19.135,16.872l-8.5,25.5a5.86,5.86,0,0,1-1.415,2.29L169.43,155.15a5.188,5.188,0,0,0,3.668,8.855Zm-74.862,97.623h-6.658a52.693,52.693,0,0,1-10.915-1.143v12.858h50.764V260.485a52.7,52.7,0,0,1-10.914,1.143,5.857,5.857,0,0,1,0-11.714,40.781,40.781,0,0,0,40.525-34.768l6.065-39.425H179.094l6.066,39.425a40.779,40.779,0,0,0,40.524,34.768h6.658a5.857,5.857,0,1,1,0,11.714Z" fill="#fff" fill-rule="evenodd"/>
</svg>
